<svg width="497" height="511" viewBox="0 0 497 511" fill="none" xmlns="http://www.w3.org/2000/svg">
<path d="M171.637 135.939C172.041 132.709 172.556 129.492 173.207 126.283C180.368 91.1567 202.218 52.0901 235.141 38.1182C263.927 25.9132 299.517 24.0392 328.698 34.6722C356.137 44.669 376.54 67.9111 381.779 97.6464C387.666 131.093 371.521 165.334 381.048 198.686C394.905 247.235 372.521 303.478 331.7 331.437C295.507 356.223 241.879 356.841 202.057 342.909C181.929 335.868 163.454 321.493 155.34 301.169C148.882 284.998 149.452 266.449 153.693 249.348C157.105 235.603 163.192 223.3 168.548 210.32C172.837 199.919 172.335 190.9 171.485 179.625C170.378 165.12 169.833 150.433 171.637 135.939Z" fill="url(#paint0_linear_190_2)"/>
<path d="M247.256 253.656V282.265C247.256 297.452 259.681 309.877 274.868 309.877H290.813C306 309.877 318.425 297.452 318.425 282.265V253.656H247.256Z" fill="#7EDDEB"/>
<path d="M246.435 147.255C251.645 143.659 257.561 144.214 265.647 143.723C274.414 143.193 283.13 142.07 291.922 141.78C300.323 141.502 309.481 141.805 317.163 145.009C323.925 147.835 332.679 151.985 334.344 159.806C336.463 169.708 332.704 182.259 331.115 192.073C327.671 213.277 320.393 244.952 319.068 264.844C319.093 264.895 298.873 267.229 297.548 267.317C284.795 268.162 271.752 268.704 259.037 267.178C252.414 266.383 246.776 266.573 246.776 266.573C245.136 256.973 239.535 238.14 238.072 228.49C235.587 212.117 232.03 194.76 233.455 177.831C234.174 169.216 236.041 160.348 240.948 153.07C242.752 150.408 244.543 148.554 246.435 147.255Z" fill="white"/>
<path d="M320.909 466.268C319.572 473.459 323.256 481.317 329.638 484.874C333.965 487.296 339.074 487.776 343.817 489.226C353.063 492.077 360.997 498.939 365.16 507.668L302.089 505.953L303.199 465.209L320.909 466.268Z" fill="#ECECEC"/>
<path d="M343.83 489.239C339.087 487.776 333.978 487.297 329.651 484.887C325.955 482.818 323.155 479.312 321.717 475.338C320.418 477.092 319.156 478.883 317.769 480.573C316.419 482.213 314.918 483.79 313.076 484.862C311.222 485.947 309.115 486.3 307.021 485.871C305.47 485.543 304.032 484.837 302.72 483.941L302.114 505.991L365.185 507.706C361.01 498.952 353.076 492.09 343.83 489.239Z" fill="#2F2F35"/>
<path d="M363.659 510.999L302.266 509.334C300.525 509.283 299.125 507.82 299.175 506.067C299.226 504.326 300.689 502.926 302.442 502.976L363.836 504.641C365.577 504.692 366.977 506.155 366.926 507.908C366.876 509.649 365.4 511.049 363.659 510.999Z" fill="#ECECEC"/>
<path d="M318.664 487.46C318.021 486.779 318.059 485.707 318.727 485.064L328.566 475.742C329.248 475.098 330.32 475.136 330.963 475.805C331.606 476.486 331.569 477.558 330.9 478.201L321.061 487.523C320.38 488.167 319.308 488.142 318.664 487.46Z" fill="#ECECEC"/>
<path d="M324.757 492.002C324.114 491.321 324.152 490.248 324.82 489.605L334.659 480.283C335.34 479.64 336.413 479.678 337.056 480.346C337.699 481.027 337.661 482.1 336.993 482.743L327.154 492.065C326.473 492.708 325.4 492.683 324.757 492.002Z" fill="#ECECEC"/>
<path d="M252.163 466.269C253.5 473.459 249.817 481.317 243.434 484.875C239.107 487.296 233.998 487.776 229.255 489.226C220.009 492.077 212.075 498.939 207.912 507.668L270.983 505.953L269.873 465.209L252.163 466.269Z" fill="#ECECEC"/>
<path d="M229.255 489.239C233.998 487.776 239.107 487.297 243.434 484.887C247.13 482.819 249.93 479.312 251.368 475.338C252.667 477.092 253.929 478.883 255.316 480.573C256.666 482.213 258.167 483.79 260.009 484.862C261.863 485.947 263.97 486.3 266.064 485.871C267.615 485.543 269.053 484.837 270.365 483.941L270.971 505.991L207.899 507.706C212.062 498.952 220.009 492.09 229.255 489.239Z" fill="#2F2F35"/>
<path d="M209.426 510.999L270.819 509.334C272.56 509.283 273.96 507.82 273.91 506.067C273.859 504.326 272.396 502.926 270.643 502.976L209.249 504.641C207.508 504.692 206.108 506.155 206.159 507.908C206.209 509.649 207.672 511.049 209.426 510.999Z" fill="#ECECEC"/>
<path d="M254.421 487.46C255.064 486.779 255.027 485.707 254.358 485.064L244.519 475.742C243.838 475.098 242.766 475.136 242.122 475.805C241.479 476.486 241.517 477.558 242.185 478.202L252.024 487.524C252.706 488.167 253.778 488.142 254.421 487.46Z" fill="#ECECEC"/>
<path d="M248.328 492.002C248.972 491.321 248.934 490.248 248.265 489.605L238.426 480.283C237.745 479.64 236.673 479.678 236.03 480.346C235.386 481.027 235.424 482.1 236.093 482.743L245.932 492.065C246.613 492.708 247.685 492.683 248.328 492.002Z" fill="#ECECEC"/>
<path d="M271.816 469.586C272.837 453.579 283.08 290.918 282.147 274.898L247.293 271.807C247.268 288.13 247.306 450.627 247.987 468.262L271.816 469.586Z" fill="#7EDDEB"/>
<path d="M321.818 468.615C321.856 448.407 319.409 283.034 318.589 264.504L283.9 269.083C283.622 287.096 297.422 450.387 299.604 468.262L321.818 468.615Z" fill="#7EDDEB"/>
<path d="M273.973 310.886C277.984 311.668 282.134 311.631 286.158 310.949C289.753 310.344 293.475 309.183 296.288 306.787C297.196 306.017 295.884 304.731 294.988 305.487C292.428 307.67 288.908 308.628 285.666 309.183C281.983 309.802 278.123 309.839 274.465 309.12C273.304 308.893 272.812 310.659 273.973 310.886Z" fill="#2F2F35"/>
<path d="M250.384 289.316C252.264 288.547 248.315 280.549 248.315 280.549C248.315 280.549 254.118 290.653 255.657 290.313C258.066 289.783 251.28 278.417 251.28 278.417C251.28 278.417 258.974 290.615 261.068 288.887C263.15 287.159 254.156 275.958 254.156 275.958C254.156 275.958 263.263 285.973 264.79 284.195C266.316 282.416 254.067 269.941 254.067 269.941C254.067 269.941 262.86 270.874 263.162 269.096C263.679 266.093 242.134 261.641 242.134 261.641L236.748 269.348C236.735 269.348 248.492 290.086 250.384 289.316Z" fill="#FF7E6E"/>
<path d="M258.431 271.744L246.675 288.08L253.108 294.639C258.179 299.811 266.643 299.332 271.096 293.618L275.423 288.067L258.431 271.744Z" fill="#7EDDEB"/>
<path d="M253.209 298.613C252.97 298.613 252.743 298.499 252.591 298.285L246.057 288.483C245.893 288.231 245.893 287.89 246.07 287.651L257.826 271.315C258.066 270.987 258.52 270.912 258.848 271.151C259.176 271.391 259.252 271.845 259.012 272.173L247.545 288.092L253.802 297.465C254.029 297.805 253.941 298.259 253.6 298.486C253.487 298.575 253.348 298.613 253.209 298.613Z" fill="#2F2F35"/>
<path d="M300.638 141.893C294.205 139.017 291.569 121.61 292.288 114.596L278.412 125.76C278.955 130.553 276.356 134.199 274.035 138.424C272.824 140.632 271.348 142.94 269.002 143.823C272.862 148.213 279.068 150.055 284.896 149.739C290.724 149.424 297.283 146.674 300.638 141.893Z" fill="#FF7E6E"/>
<path d="M316.81 297.389C316.646 297.389 316.469 297.326 316.33 297.212C313 294.374 309.203 291.006 306.289 286.919C304.095 283.829 301.471 278.96 301.483 273.283C301.483 272.88 301.811 272.552 302.215 272.552C302.619 272.552 302.947 272.88 302.947 273.283C302.934 278.569 305.406 283.148 307.475 286.061C310.288 290.022 314.009 293.315 317.276 296.09C317.592 296.355 317.617 296.821 317.365 297.124C317.226 297.301 317.024 297.389 316.81 297.389Z" fill="#2F2F35"/>
<path d="M258.154 249.859C257.939 249.859 257.738 249.77 257.599 249.594C257.334 249.279 257.372 248.824 257.687 248.56C263.944 243.236 269.481 237.093 274.124 230.307C274.351 229.979 274.805 229.89 275.145 230.118C275.486 230.345 275.562 230.799 275.334 231.139C270.617 238.039 265.003 244.271 258.633 249.682C258.494 249.796 258.318 249.859 258.154 249.859Z" fill="#2F2F35"/>
<path d="M298.772 176.267C298.633 176.267 298.495 176.229 298.369 176.141C298.028 175.914 297.94 175.46 298.167 175.119C302.128 169.229 306.896 163.931 312.333 159.377C312.648 159.112 313.102 159.162 313.367 159.465C313.632 159.78 313.581 160.235 313.279 160.499C307.943 164.965 303.276 170.162 299.39 175.927C299.239 176.154 299.012 176.267 298.772 176.267Z" fill="#2F2F35"/>
<path d="M252.856 146.51C247.571 144.467 239.851 147.645 236.735 150.749C236.672 150.812 225.635 161.105 225.597 161.193L179.921 211.209L179.807 211.499C178.028 216.191 179.29 221.3 182.607 224.643L196.508 236.5L210.371 248.408C214.988 252.382 219.58 256.38 224.146 260.379C223.086 259.446 222.014 258.512 220.955 257.591C225.319 254.728 229.217 250.994 232.068 246.617C229.242 242.997 226.417 239.376 223.578 235.769L212.175 221.376L206.133 213.807L269.822 167.74C272.61 160.903 259.731 149.172 252.856 146.51Z" fill="white"/>
<path d="M232.093 246.63C233.039 247.853 233.985 249.051 234.931 250.275C233.985 249.051 233.039 247.84 232.093 246.63Z" fill="#FF7E6E"/>
<path d="M220.967 257.604C222.026 258.537 223.099 259.458 224.158 260.392C226.441 262.397 228.712 264.403 230.957 266.409C232.08 267.418 233.19 268.414 234.275 269.423C234.817 269.915 235.347 270.42 235.839 270.899L236.52 271.555C236.583 271.618 236.646 271.681 236.697 271.719C237.857 273.763 240.216 274.936 242.651 274.482C243.597 274.28 244.391 273.965 245.274 273.233C246.246 272.426 246.813 271.316 247.003 270.672C247.28 269.739 247.293 269.196 247.293 268.894C247.293 268.452 247.242 268.048 247.217 267.922C247.179 267.72 247.141 267.519 247.091 267.329C247.066 267.216 247.028 267.115 246.99 267.014C246.902 266.762 246.864 266.686 246.813 266.547L246.738 266.383L246.687 266.257L246.586 266.043L246.498 265.879L246.435 265.753C246.258 265.437 246.157 265.286 246.057 265.135C245.867 264.832 245.729 264.617 245.577 264.416C245.3 264.012 245.06 263.659 244.808 263.318C244.328 262.637 243.849 261.994 243.382 261.35C242.449 260.076 241.515 258.84 240.582 257.604C238.715 255.131 236.836 252.697 234.956 250.275C234.01 249.051 233.051 247.853 232.105 246.642C229.229 251.007 225.344 254.74 220.967 257.604ZM239.611 263.646C239.585 263.659 239.56 263.671 239.522 263.684C239.56 263.671 239.585 263.659 239.611 263.646ZM239.346 263.76C239.308 263.772 239.27 263.797 239.22 263.81C239.27 263.797 239.308 263.772 239.346 263.76ZM238.942 263.949C238.929 263.949 238.929 263.961 238.917 263.961C238.929 263.961 238.942 263.961 238.942 263.949Z" fill="#FF7E6E"/>
<path d="M226.092 149.456C226.656 151.535 227.215 153.577 227.772 155.606C228.05 156.659 228.597 156.967 229.635 156.679C230.772 156.365 231.91 156.064 233.058 155.736C234.036 155.468 234.355 154.907 234.089 153.942C233.597 152.119 233.104 150.297 232.6 148.476C232.547 148.267 232.493 148.047 232.418 147.765C233.861 147.956 235.072 148.494 236.168 149.325C239.869 152.145 240.386 157.434 237.31 160.928C236.891 161.401 236.472 161.874 236.023 162.313C235.742 162.59 235.697 162.824 235.837 163.211C237.745 168.495 239.62 173.809 241.552 179.077C242.024 180.358 241.761 181.444 241.005 182.442C240.023 183.736 238.688 184.278 237.085 184.032C235.6 183.809 234.467 182.995 233.976 181.565C233.595 180.501 233.456 179.341 233.233 178.218C232.273 173.607 231.314 168.996 230.381 164.395C230.311 164.05 230.151 163.893 229.831 163.771C228.765 163.366 227.634 163.046 226.683 162.461C222.074 159.671 221.655 153.09 225.777 149.662C225.868 149.587 225.963 149.536 226.092 149.456ZM235.53 179.031C234.9 179.924 235.393 180.493 236.048 181.142C236.631 181.724 237.114 181.838 237.926 181.655C238.922 181.423 239.381 180.97 239.617 179.964C239.802 179.155 239.645 178.732 239.114 178.156C238.421 177.411 237.794 177.265 236.847 177.579C236.045 177.837 235.454 178.066 235.53 179.031Z" fill="#2F2F35"/>
<path d="M222.594 260.858C222.607 260.858 222.607 260.846 222.619 260.846C222.619 260.859 222.607 260.858 222.594 260.858Z" fill="#B3392C"/>
<path d="M209.211 248.635C213.601 243.602 219.302 239.73 225.597 237.497" stroke="#2F2F35" stroke-width="1.0878" stroke-miterlimit="10" stroke-linecap="round" stroke-linejoin="round"/>
<path d="M299.252 103.849C299.252 103.849 303.756 87.0719 295.834 82.6317C290.826 80.3485 288.291 83.603 288.291 83.603C288.291 83.603 283.548 78.8853 272.094 82.1524C261.914 85.0537 265.623 96.6714 267.881 105.993C273.204 110.143 267.893 109.26 267.893 109.26L299.252 103.849Z" fill="#2F2F35"/>
<path d="M302.202 108.264C302.329 111.115 300.134 113.537 297.27 113.675C294.419 113.814 291.997 111.607 291.859 108.743C291.72 105.892 293.927 103.471 296.791 103.332C299.642 103.206 302.064 105.4 302.202 108.264Z" fill="#FF7E6E"/>
<path d="M275.587 109.5C275.713 112.351 273.518 114.773 270.655 114.912C267.804 115.038 265.382 112.843 265.243 109.979C265.117 107.129 267.312 104.707 270.176 104.568C273.039 104.429 275.461 106.637 275.587 109.5Z" fill="#FF7E6E"/>
<path d="M291.733 90.6293L282.638 91.0456L273.543 91.4745L269.494 101.515L270.705 111.216C271.348 116.388 275.12 125.205 279.951 127.185C281.389 127.778 282.89 128.144 284.354 128.068C285.817 128.005 287.293 127.501 288.655 126.769C293.272 124.347 296.211 115.227 296.375 110.005L296.678 100.241L291.733 90.6293Z" fill="#FF7E6E"/>
<path d="M291.204 104C289.248 104.089 287.836 103.773 287.747 103.761C287.432 103.685 287.243 103.382 287.318 103.067C287.394 102.751 287.697 102.562 288.012 102.638C288.037 102.638 291.002 103.306 294.218 102.348C294.521 102.259 294.849 102.436 294.937 102.739C295.026 103.042 294.849 103.369 294.546 103.458C293.361 103.798 292.213 103.95 291.204 104Z" fill="#2F2F35"/>
<path d="M293.865 99.2699C293.663 99.2825 293.474 99.2447 293.285 99.1438C291.342 98.1472 288 98.5383 286.89 98.778C286.271 98.9167 285.653 98.5131 285.515 97.8823C285.376 97.2516 285.78 96.6461 286.41 96.5074C286.612 96.4695 291.267 95.4856 294.357 97.0876C294.925 97.3778 295.152 98.0842 294.862 98.6518C294.647 99.0176 294.256 99.2447 293.865 99.2699Z" fill="#2F2F35"/>
<path d="M275.322 104.732C274.313 104.782 273.152 104.732 271.941 104.492C271.626 104.429 271.424 104.126 271.487 103.811C271.55 103.496 271.853 103.294 272.168 103.357C275.461 104.013 278.349 103.079 278.374 103.067C278.677 102.966 279.005 103.13 279.106 103.433C279.207 103.735 279.043 104.063 278.74 104.164C278.652 104.202 277.277 104.644 275.322 104.732Z" fill="#2F2F35"/>
<path d="M279.211 96.7366C279.615 96.7113 280.006 96.9132 280.245 97.2664C280.586 97.8088 280.435 98.5152 279.892 98.8684C276.966 100.735 272.235 100.205 272.034 100.18C271.403 100.105 270.949 99.5243 271.024 98.8936C271.1 98.2629 271.68 97.8088 272.311 97.8845C273.446 98.0232 276.802 98.0989 278.656 96.9258C278.82 96.7996 279.009 96.7366 279.211 96.7366Z" fill="#2F2F35"/>
<path d="M278.311 111.972C277.756 111.998 277.466 112.654 277.819 113.082C279.459 114.987 281.553 116.11 283.799 116.009C286.044 115.908 288.037 114.596 289.488 112.54C289.803 112.086 289.45 111.455 288.895 111.48L278.311 111.972Z" fill="white"/>
<path d="M285.363 109.058L284.82 108.781C284.783 108.756 283.672 108.239 282.184 108.92C282.007 109.008 281.793 108.92 281.717 108.743C281.629 108.567 281.717 108.352 281.894 108.276C283.054 107.747 284.038 107.822 284.606 107.961L284.379 103.13C284.366 102.928 284.518 102.764 284.719 102.764C284.921 102.751 285.085 102.903 285.085 103.105L285.363 109.058Z" fill="#2F2F35"/>
<g opacity="0.6">
<path opacity="0.6" d="M290.75 110.194C288.517 108.062 278.703 109.059 276.231 111.014C273.746 112.956 270.466 110.673 270.466 110.673C270.466 110.673 272.585 122.556 278.867 126.744C278.867 126.744 284.796 130.642 290.535 125.457C290.535 125.457 296.186 119.806 296.401 109.487C296.413 109.462 292.982 112.326 290.75 110.194ZM290.434 113.549C289.917 117.006 283.648 117.132 283.648 117.132C283.648 117.132 278.186 117.75 276.659 114.18C276.659 114.18 275.373 111.569 278.488 110.963L288.34 110.509C288.328 110.509 290.951 110.093 290.434 113.549Z" fill="#2F2F35"/>
</g>
<path d="M248.428 194.217C250.232 190.572 247.899 186.371 246.309 182.625C243.938 177.037 243.193 170.755 244.215 164.763C242.866 164.246 241.541 165.583 240.835 166.844C239.157 169.821 238.337 173.278 238.514 176.696C236.773 177.125 234.881 176.406 233.153 175.927C231.424 175.447 229.608 174.955 227.855 175.334C226.101 175.712 224.449 177.276 224.651 179.055C224.915 181.489 227.955 182.372 230.39 182.675C228.523 182.486 226.606 184.063 226.152 185.879C225.698 187.696 226.757 189.777 228.511 190.483C225.559 193.132 226.417 197.27 229.785 199.364C231.134 200.209 232.749 200.512 234.313 200.814C241.163 202.101 248 203.388 254.849 204.674C254.761 200.045 252.692 196.071 248.428 194.217Z" fill="#FF7E6E"/>
<path d="M296.942 217.264L240.871 201.319C237.415 200.033 235.662 196.198 236.948 192.742C238.147 189.525 241.565 187.772 244.82 188.592L305.797 207.879" fill="#FF7E6E"/>
<path d="M260.374 191.038L269.293 192.489L286.776 192.098C293.625 191.921 300.5 191.732 307.362 191.518L308.952 162.354C308.952 162.278 308.964 162.127 308.977 162.064C309.595 153.852 316.747 147.696 324.959 148.301C333.171 148.919 339.327 156.072 338.721 164.284L335.568 206.491L335.542 206.794C334.962 214.577 331.594 222.158 323.773 221.704L321.049 222.158C309.381 220.631 299.428 218.891 287.785 217.276L269.015 212.281L256.804 209.291C253.865 198.594 257.309 195.769 260.374 191.038Z" fill="white"/>
<path d="M264.146 212.319C266.165 206.226 267.678 199.957 268.662 193.624" stroke="#2F2F35" stroke-width="1.0878" stroke-miterlimit="10" stroke-linecap="round" stroke-linejoin="round"/>
<path d="M155.602 396.975L157.769 393.222L156.107 392.262C156.82 390.297 157.033 388.243 156.797 386.25L158.876 385.695L157.75 381.504L155.595 382.08C154.746 380.319 153.492 378.739 151.884 377.475L153.015 375.515L149.257 373.345L148.083 375.38C146.222 374.727 144.282 374.521 142.388 374.719L141.825 372.624L137.633 373.744L138.203 375.865C136.409 376.692 134.799 377.933 133.511 379.545L131.646 378.468L129.479 382.221L131.387 383.323C130.701 385.218 130.483 387.205 130.687 389.129L128.371 389.748L129.497 393.939L131.839 393.313C132.647 395.057 133.849 396.629 135.4 397.903L134.232 399.927L137.99 402.097L139.159 400.073C141.027 400.774 142.981 401.031 144.893 400.864L145.419 402.824L149.612 401.704L149.094 399.777C150.956 398.954 152.634 397.695 153.969 396.039L155.599 396.98L155.602 396.975ZM140.07 394.161C136.543 392.124 135.33 387.612 137.364 384.089C139.398 380.567 143.911 379.361 147.439 381.397C150.967 383.434 152.179 387.946 150.145 391.469C148.111 394.991 143.598 396.197 140.07 394.161Z" fill="#E8E8E8"/>
<path d="M426.796 298.284L428.045 296.121L427.085 295.567C427.497 294.434 427.622 293.25 427.486 292.1L428.686 291.78L428.037 289.363L426.794 289.695C426.303 288.676 425.583 287.768 424.653 287.039L425.306 285.909L423.14 284.659L422.463 285.831C421.387 285.453 420.269 285.335 419.181 285.449L418.856 284.241L416.439 284.887L416.768 286.112C415.733 286.593 414.806 287.307 414.063 288.234L412.985 287.612L411.737 289.775L412.836 290.409C412.441 291.502 412.314 292.65 412.431 293.759L411.096 294.116L411.745 296.533L413.097 296.171C413.567 297.178 414.259 298.084 415.15 298.82L414.476 299.987L416.642 301.237L417.316 300.07C418.398 300.474 419.52 300.622 420.627 300.526L420.931 301.658L423.348 301.012L423.051 299.905C424.128 299.427 425.097 298.702 425.863 297.745L426.796 298.284ZM417.84 296.661C415.803 295.485 415.104 292.882 416.278 290.848C417.453 288.813 420.056 288.118 422.093 289.294C424.131 290.47 424.83 293.073 423.655 295.107C422.481 297.142 419.877 297.837 417.84 296.661Z" fill="white"/>
<path d="M222.927 61.5476L227.375 53.8435L223.965 51.8749C225.436 47.8414 225.873 43.6179 225.385 39.5239L229.653 38.3834L227.342 29.7822L222.921 30.9634C221.179 27.3448 218.596 24.1047 215.299 21.5085L217.623 17.4824L209.908 13.0282L207.497 17.2042C203.676 15.8617 199.686 15.4427 195.808 15.845L194.653 11.5444L186.048 13.8435L187.22 18.2032C183.542 19.9059 180.232 22.4566 177.585 25.7538L173.752 23.5407L169.304 31.2448L173.217 33.5044C171.81 37.4031 171.363 41.4709 171.779 45.4302L167.029 46.6995L169.34 55.3007L174.149 54.0156C175.813 57.5962 178.28 60.8265 181.46 63.4406L179.059 67.6005L186.773 72.0547L189.175 67.8948C193.013 69.3325 197.032 69.8613 200.949 69.5168L202.029 73.5386L210.634 71.2394L209.571 67.2852C213.393 65.594 216.841 63.0019 219.579 59.6077L222.93 61.5423L222.927 61.5476ZM191.036 55.7701C183.787 51.5852 181.299 42.325 185.478 35.0866C189.657 27.8483 198.921 25.373 206.169 29.5579C213.418 33.7428 215.906 43.003 211.727 50.2413C207.556 57.4774 198.29 59.9581 191.036 55.7701Z" fill="white"/>
<path d="M193.899 50.2418C198.154 52.6983 203.591 51.2453 206.045 46.9964C208.498 42.7474 207.037 37.3115 202.782 34.855C198.527 32.3984 193.089 33.8514 190.636 38.1004C188.183 42.3493 189.644 47.7852 193.899 50.2418Z" fill="#E8E8E8"/>
<path d="M410.493 63L413.43 68.926L420 69.8697L415.253 74.4911L416.367 81L410.493 77.9329L404.633 81L405.747 74.4911L401 69.8697L407.57 68.926L410.493 63Z" fill="#E8E8E8"/>
<path d="M94.5 196L96.812 200.611L102 201.345L98.25 204.932L99.1382 210L94.5 207.618L89.8618 210L90.75 204.932L87 201.345L92.188 200.611L94.5 196Z" fill="#E8E8E8"/>
<defs>
<linearGradient id="paint0_linear_190_2" x1="338.751" y1="336.957" x2="186.56" y2="100.693" gradientUnits="userSpaceOnUse">
<stop stop-color="#00EBB2"/>
<stop offset="0.432292" stop-color="#02DFED"/>
<stop offset="1" stop-color="#CB7BFF"/>
</linearGradient>
</defs>
</svg>
