<svg width="580" height="653" viewBox="0 0 580 653" fill="none" xmlns="http://www.w3.org/2000/svg">
<path d="M216.06 643.863C210.304 643.835 204.548 643.609 198.777 643.143C135.602 637.974 62.4127 607.849 30.945 552.995C3.45144 505.033 -7.3395 442.948 5.17686 389.478C16.9436 339.2 53.4462 298.483 104.544 283.018C162.02 265.633 225.535 286.761 282.078 263.006C364.389 228.447 467.844 255.888 525.532 321.659C576.672 379.973 589.061 473.991 572.995 546.838C564.877 583.656 543.536 619.12 509.565 637.649C482.538 652.394 449.854 655.303 418.938 651.461C394.089 648.369 371.206 640.276 347.291 633.61C328.127 628.271 312.4 631.054 292.784 634.923C267.554 639.923 241.885 643.976 216.06 643.863Z" fill="#252525"/>
<g clip-path="url(#clip0_501_2)">
<path d="M429.7 91.7858L414.434 82.8423L419.131 90.4795H186.216C176.956 90.4795 169.44 97.9826 169.44 107.228V540.252C169.44 541.139 169.524 542.01 169.658 542.865L163.871 540.285L160.901 544.975L177.711 554.672C180.21 556.146 183.096 557 186.199 557H423.207C432.468 557 439.983 549.497 439.983 540.252V107.228C440 100.277 435.739 94.3148 429.7 91.7858ZM330.152 123.339H279.271C274.641 123.339 270.883 119.588 270.883 114.965C270.883 110.343 274.641 106.591 279.271 106.591H330.135C334.766 106.591 338.523 110.343 338.523 114.965C338.523 119.588 334.782 123.339 330.152 123.339Z" fill="white"/>
<path d="M406.784 81H169.776C160.516 81 153 88.5032 153 97.7482V530.772C153 540.017 160.516 547.521 169.776 547.521H406.784C416.044 547.521 423.56 540.017 423.56 530.772V97.7482C423.56 88.5032 416.044 81 406.784 81ZM313.712 113.86H262.848C258.218 113.86 254.46 110.108 254.46 105.486C254.46 100.863 258.218 97.1117 262.848 97.1117H313.712C318.342 97.1117 322.1 100.863 322.1 105.486C322.1 110.108 318.342 113.86 313.712 113.86Z" fill="url(#paint0_linear_501_2)"/>
<path d="M386.838 371H184.891C180.646 371 177.157 367.598 177.157 363.424V338.576C177.157 334.418 180.63 331 184.891 331H386.854C391.099 331 394.588 334.402 394.588 338.576V363.424C394.571 367.582 391.099 371 386.838 371Z" fill="#ECECEC"/>
<path d="M200.28 356H198.228L194.796 350.804V356H192.744V347.576H194.796L198.228 352.796V347.576H200.28V356ZM204.815 356.096C204.159 356.096 203.567 355.956 203.039 355.676C202.519 355.396 202.107 354.996 201.803 354.476C201.507 353.956 201.359 353.348 201.359 352.652C201.359 351.964 201.511 351.36 201.815 350.84C202.119 350.312 202.535 349.908 203.063 349.628C203.591 349.348 204.183 349.208 204.839 349.208C205.495 349.208 206.087 349.348 206.615 349.628C207.143 349.908 207.559 350.312 207.863 350.84C208.167 351.36 208.319 351.964 208.319 352.652C208.319 353.34 208.163 353.948 207.851 354.476C207.547 354.996 207.127 355.396 206.591 355.676C206.063 355.956 205.471 356.096 204.815 356.096ZM204.815 354.32C205.207 354.32 205.539 354.176 205.811 353.888C206.091 353.6 206.231 353.188 206.231 352.652C206.231 352.116 206.095 351.704 205.823 351.416C205.559 351.128 205.231 350.984 204.839 350.984C204.439 350.984 204.107 351.128 203.843 351.416C203.579 351.696 203.447 352.108 203.447 352.652C203.447 353.188 203.575 353.6 203.831 353.888C204.095 354.176 204.423 354.32 204.815 354.32ZM217.952 349.232C218.784 349.232 219.444 349.484 219.932 349.988C220.428 350.492 220.676 351.192 220.676 352.088V356H218.636V352.364C218.636 351.932 218.52 351.6 218.288 351.368C218.064 351.128 217.752 351.008 217.352 351.008C216.952 351.008 216.636 351.128 216.404 351.368C216.18 351.6 216.068 351.932 216.068 352.364V356H214.028V352.364C214.028 351.932 213.912 351.6 213.68 351.368C213.456 351.128 213.144 351.008 212.744 351.008C212.344 351.008 212.028 351.128 211.796 351.368C211.572 351.6 211.46 351.932 211.46 352.364V356H209.408V349.304H211.46V350.144C211.668 349.864 211.94 349.644 212.276 349.484C212.612 349.316 212.992 349.232 213.416 349.232C213.92 349.232 214.368 349.34 214.76 349.556C215.16 349.772 215.472 350.08 215.696 350.48C215.928 350.112 216.244 349.812 216.644 349.58C217.044 349.348 217.48 349.232 217.952 349.232ZM228.423 352.544C228.423 352.736 228.411 352.936 228.387 353.144H223.743C223.775 353.56 223.907 353.88 224.139 354.104C224.379 354.32 224.671 354.428 225.015 354.428C225.527 354.428 225.883 354.212 226.083 353.78H228.267C228.155 354.22 227.951 354.616 227.655 354.968C227.367 355.32 227.003 355.596 226.563 355.796C226.123 355.996 225.631 356.096 225.087 356.096C224.431 356.096 223.847 355.956 223.335 355.676C222.823 355.396 222.423 354.996 222.135 354.476C221.847 353.956 221.703 353.348 221.703 352.652C221.703 351.956 221.843 351.348 222.123 350.828C222.411 350.308 222.811 349.908 223.323 349.628C223.835 349.348 224.423 349.208 225.087 349.208C225.735 349.208 226.311 349.344 226.815 349.616C227.319 349.888 227.711 350.276 227.991 350.78C228.279 351.284 228.423 351.872 228.423 352.544ZM226.323 352.004C226.323 351.652 226.203 351.372 225.963 351.164C225.723 350.956 225.423 350.852 225.063 350.852C224.719 350.852 224.427 350.952 224.187 351.152C223.955 351.352 223.811 351.636 223.755 352.004H226.323ZM230.466 356.096C230.106 356.096 229.81 355.992 229.578 355.784C229.354 355.568 229.242 355.304 229.242 354.992C229.242 354.672 229.354 354.404 229.578 354.188C229.81 353.972 230.106 353.864 230.466 353.864C230.818 353.864 231.106 353.972 231.33 354.188C231.562 354.404 231.678 354.672 231.678 354.992C231.678 355.304 231.562 355.568 231.33 355.784C231.106 355.992 230.818 356.096 230.466 356.096ZM230.466 351.212C230.106 351.212 229.81 351.108 229.578 350.9C229.354 350.684 229.242 350.42 229.242 350.108C229.242 349.788 229.354 349.52 229.578 349.304C229.81 349.088 230.106 348.98 230.466 348.98C230.818 348.98 231.106 349.088 231.33 349.304C231.562 349.52 231.678 349.788 231.678 350.108C231.678 350.42 231.562 350.684 231.33 350.9C231.106 351.108 230.818 351.212 230.466 351.212Z" fill="#CB7BFF"/>
<path d="M240.961 347.612V348.308H237.265V351.44H240.385V352.136H237.265V356H236.425V347.612H240.961ZM243.183 350.612C243.367 350.204 243.647 349.888 244.023 349.664C244.407 349.44 244.875 349.328 245.427 349.328V350.204H245.199C244.591 350.204 244.103 350.368 243.735 350.696C243.367 351.024 243.183 351.572 243.183 352.34V356H242.343V349.448H243.183V350.612ZM246.306 352.712C246.306 352.04 246.438 351.452 246.702 350.948C246.974 350.436 247.346 350.044 247.818 349.772C248.298 349.492 248.838 349.352 249.438 349.352C250.062 349.352 250.598 349.496 251.046 349.784C251.502 350.072 251.83 350.44 252.03 350.888V349.448H252.87V356H252.03V354.548C251.822 354.996 251.49 355.368 251.034 355.664C250.586 355.952 250.05 356.096 249.426 356.096C248.834 356.096 248.298 355.956 247.818 355.676C247.346 355.396 246.974 355 246.702 354.488C246.438 353.976 246.306 353.384 246.306 352.712ZM252.03 352.724C252.03 352.196 251.922 351.732 251.706 351.332C251.49 350.932 251.194 350.624 250.818 350.408C250.45 350.192 250.042 350.084 249.594 350.084C249.13 350.084 248.714 350.188 248.346 350.396C247.978 350.604 247.686 350.908 247.47 351.308C247.262 351.7 247.158 352.168 247.158 352.712C247.158 353.248 247.262 353.72 247.47 354.128C247.686 354.528 247.978 354.836 248.346 355.052C248.714 355.26 249.13 355.364 249.594 355.364C250.042 355.364 250.45 355.256 250.818 355.04C251.194 354.824 251.49 354.516 251.706 354.116C251.922 353.716 252.03 353.252 252.03 352.724ZM257.86 349.328C258.644 349.328 259.284 349.572 259.78 350.06C260.276 350.54 260.524 351.24 260.524 352.16V356H259.696V352.256C259.696 351.544 259.516 351 259.156 350.624C258.804 350.248 258.32 350.06 257.704 350.06C257.072 350.06 256.568 350.26 256.192 350.66C255.816 351.06 255.628 351.648 255.628 352.424V356H254.788V349.448H255.628V350.564C255.836 350.164 256.136 349.86 256.528 349.652C256.92 349.436 257.364 349.328 257.86 349.328ZM265.922 356L263.222 353.06V356H262.382V347.12H263.222V352.376L265.862 349.448H267.038L263.93 352.712L267.062 356H265.922ZM268.988 347.12V356H268.148V347.12H268.988ZM271.31 348.212C271.142 348.212 270.998 348.152 270.878 348.032C270.758 347.912 270.698 347.764 270.698 347.588C270.698 347.412 270.758 347.268 270.878 347.156C270.998 347.036 271.142 346.976 271.31 346.976C271.478 346.976 271.622 347.036 271.742 347.156C271.862 347.268 271.922 347.412 271.922 347.588C271.922 347.764 271.862 347.912 271.742 348.032C271.622 348.152 271.478 348.212 271.31 348.212ZM271.73 349.448V356H270.89V349.448H271.73ZM276.704 349.328C277.488 349.328 278.128 349.572 278.624 350.06C279.12 350.54 279.368 351.24 279.368 352.16V356H278.54V352.256C278.54 351.544 278.36 351 278 350.624C277.648 350.248 277.164 350.06 276.548 350.06C275.916 350.06 275.412 350.26 275.036 350.66C274.66 351.06 274.472 351.648 274.472 352.424V356H273.632V349.448H274.472V350.564C274.68 350.164 274.98 349.86 275.372 349.652C275.764 349.436 276.208 349.328 276.704 349.328ZM288.983 356L286.907 352.496H285.359V356H284.519V347.612H287.039C287.975 347.612 288.683 347.836 289.163 348.284C289.651 348.732 289.895 349.32 289.895 350.048C289.895 350.656 289.719 351.176 289.367 351.608C289.023 352.032 288.511 352.308 287.831 352.436L289.991 356H288.983ZM285.359 351.812H287.051C287.707 351.812 288.199 351.652 288.527 351.332C288.863 351.012 289.031 350.584 289.031 350.048C289.031 349.496 288.871 349.072 288.551 348.776C288.231 348.472 287.727 348.32 287.039 348.32H285.359V351.812ZM297.49 352.388C297.49 352.676 297.482 352.896 297.466 353.048H292.03C292.054 353.544 292.174 353.968 292.39 354.32C292.606 354.672 292.89 354.94 293.242 355.124C293.594 355.3 293.978 355.388 294.394 355.388C294.938 355.388 295.394 355.256 295.762 354.992C296.138 354.728 296.386 354.372 296.506 353.924H297.394C297.234 354.564 296.89 355.088 296.362 355.496C295.842 355.896 295.186 356.096 294.394 356.096C293.778 356.096 293.226 355.96 292.738 355.688C292.25 355.408 291.866 355.016 291.586 354.512C291.314 354 291.178 353.404 291.178 352.724C291.178 352.044 291.314 351.448 291.586 350.936C291.858 350.424 292.238 350.032 292.726 349.76C293.214 349.488 293.77 349.352 294.394 349.352C295.018 349.352 295.562 349.488 296.026 349.76C296.498 350.032 296.858 350.4 297.106 350.864C297.362 351.32 297.49 351.828 297.49 352.388ZM296.638 352.364C296.646 351.876 296.546 351.46 296.338 351.116C296.138 350.772 295.862 350.512 295.51 350.336C295.158 350.16 294.774 350.072 294.358 350.072C293.734 350.072 293.202 350.272 292.762 350.672C292.322 351.072 292.078 351.636 292.03 352.364H296.638ZM301.774 349.352C302.39 349.352 302.926 349.496 303.382 349.784C303.838 350.072 304.166 350.436 304.366 350.876V349.448H305.206V356.168C305.206 356.768 305.074 357.3 304.81 357.764C304.554 358.228 304.194 358.584 303.73 358.832C303.266 359.088 302.738 359.216 302.146 359.216C301.306 359.216 300.606 359.016 300.046 358.616C299.494 358.216 299.15 357.672 299.014 356.984H299.842C299.986 357.44 300.258 357.804 300.658 358.076C301.066 358.348 301.562 358.484 302.146 358.484C302.57 358.484 302.95 358.392 303.286 358.208C303.622 358.032 303.886 357.768 304.078 357.416C304.27 357.064 304.366 356.648 304.366 356.168V354.548C304.158 354.996 303.826 355.368 303.37 355.664C302.922 355.952 302.39 356.096 301.774 356.096C301.174 356.096 300.634 355.956 300.154 355.676C299.682 355.396 299.31 355 299.038 354.488C298.774 353.976 298.642 353.384 298.642 352.712C298.642 352.04 298.774 351.452 299.038 350.948C299.31 350.436 299.682 350.044 300.154 349.772C300.634 349.492 301.174 349.352 301.774 349.352ZM304.366 352.724C304.366 352.196 304.258 351.732 304.042 351.332C303.826 350.932 303.53 350.624 303.154 350.408C302.786 350.192 302.378 350.084 301.93 350.084C301.466 350.084 301.05 350.188 300.682 350.396C300.314 350.604 300.022 350.908 299.806 351.308C299.598 351.7 299.494 352.168 299.494 352.712C299.494 353.248 299.598 353.72 299.806 354.128C300.022 354.528 300.314 354.836 300.682 355.052C301.05 355.26 301.466 355.364 301.93 355.364C302.378 355.364 302.786 355.256 303.154 355.04C303.53 354.824 303.826 354.516 304.042 354.116C304.258 353.716 304.366 353.252 304.366 352.724ZM307.544 348.212C307.376 348.212 307.232 348.152 307.112 348.032C306.992 347.912 306.932 347.764 306.932 347.588C306.932 347.412 306.992 347.268 307.112 347.156C307.232 347.036 307.376 346.976 307.544 346.976C307.712 346.976 307.856 347.036 307.976 347.156C308.096 347.268 308.156 347.412 308.156 347.588C308.156 347.764 308.096 347.912 307.976 348.032C307.856 348.152 307.712 348.212 307.544 348.212ZM307.964 349.448V356H307.124V349.448H307.964ZM312.122 356.096C311.37 356.096 310.754 355.924 310.274 355.58C309.802 355.228 309.538 354.752 309.482 354.152H310.346C310.386 354.52 310.558 354.82 310.862 355.052C311.174 355.276 311.59 355.388 312.11 355.388C312.566 355.388 312.922 355.28 313.178 355.064C313.442 354.848 313.574 354.58 313.574 354.26C313.574 354.036 313.502 353.852 313.358 353.708C313.214 353.564 313.03 353.452 312.806 353.372C312.59 353.284 312.294 353.192 311.918 353.096C311.43 352.968 311.034 352.84 310.73 352.712C310.426 352.584 310.166 352.396 309.95 352.148C309.742 351.892 309.638 351.552 309.638 351.128C309.638 350.808 309.734 350.512 309.926 350.24C310.118 349.968 310.39 349.752 310.742 349.592C311.094 349.432 311.494 349.352 311.942 349.352C312.646 349.352 313.214 349.532 313.646 349.892C314.078 350.244 314.31 350.732 314.342 351.356H313.502C313.478 350.972 313.326 350.664 313.046 350.432C312.774 350.192 312.398 350.072 311.918 350.072C311.494 350.072 311.15 350.172 310.886 350.372C310.622 350.572 310.49 350.82 310.49 351.116C310.49 351.372 310.566 351.584 310.718 351.752C310.878 351.912 311.074 352.04 311.306 352.136C311.538 352.224 311.85 352.324 312.242 352.436C312.714 352.564 313.09 352.688 313.37 352.808C313.65 352.928 313.89 353.104 314.09 353.336C314.29 353.568 314.394 353.876 314.402 354.26C314.402 354.612 314.306 354.928 314.114 355.208C313.922 355.48 313.654 355.696 313.31 355.856C312.966 356.016 312.57 356.096 312.122 356.096Z" fill="#2F2F35"/>
<path d="M386.838 424.279H184.891C180.646 424.279 177.157 420.877 177.157 416.703V391.855C177.157 387.697 180.63 384.279 184.891 384.279H386.854C391.099 384.279 394.588 387.681 394.588 391.855V416.703C394.571 420.877 391.099 424.279 386.838 424.279Z" fill="#ECECEC"/>
<path d="M386.838 477.622H184.891C180.646 477.622 177.157 474.22 177.157 470.046V445.198C177.157 441.04 180.63 437.622 184.891 437.622H386.854C391.099 437.622 394.588 441.023 394.588 445.198V470.046C394.571 474.22 391.099 477.622 386.838 477.622Z" fill="#ECECEC"/>
<path d="M288.28 285.204C322.635 285.204 350.484 257.4 350.484 223.102C350.484 188.804 322.635 161 288.28 161C253.925 161 226.075 188.804 226.075 223.102C226.075 257.4 253.925 285.204 288.28 285.204Z" fill="#CB7BFF"/>
<path d="M288.28 263.683L259.191 274.268L279.758 266.781C279.758 266.781 281.687 275.859 277.124 284.283C280.58 284.886 284.136 285.204 287.777 285.204C288.632 285.204 289.471 285.171 290.31 285.137C290.31 269.009 290.31 266.38 290.31 266.38L288.28 263.683Z" fill="white"/>
<path d="M290.327 266.38C290.327 266.38 290.327 269.009 290.327 285.137C303.982 284.769 314.031 280.85 322.855 274.737L292.373 263.683L290.327 266.38Z" fill="white"/>
<path d="M259.191 274.251L255.332 275.675L254.913 275.809L259.191 274.251Z" fill="white"/>
<path d="M279.775 266.765L259.208 274.251L254.93 275.809C261.606 279.962 269.105 282.876 277.158 284.267C281.704 275.842 279.775 266.765 279.775 266.765Z" fill="white"/>
<path d="M315.306 218.162C315.306 218.162 323.542 192.353 311.514 184.866C303.865 180.947 299.671 185.838 299.671 185.838C299.671 185.838 292.608 178.15 274.507 182.404C258.419 186.189 264.643 200.593 265.331 206.907C273.333 213.757 265.985 224.325 265.985 224.325L315.306 218.162Z" fill="#2F2F35"/>
<path d="M265.331 206.907C266.74 210.39 265.985 224.325 265.985 224.325L276.47 223.019C287.24 213.455 299.385 201.346 297.624 196.791C294.537 188.802 292.658 180.713 283.029 181.131C260.399 182.086 261.539 194.413 265.331 206.907Z" fill="#515159"/>
<path d="M290.444 285.204H290.192C283.314 285.204 277.745 279.644 277.745 272.777V243.083H302.908V272.777C302.908 279.644 297.322 285.204 290.444 285.204Z" fill="#FF7E6E"/>
<path d="M302.707 265.978C302.774 265.978 302.841 265.978 302.908 265.961V243.083H291.165L277.745 247.923C277.745 247.923 282.727 265.978 302.707 265.978Z" fill="#4C2A29"/>
<path d="M319.583 225.246C319.583 229.701 315.96 233.319 311.498 233.319C307.035 233.319 303.412 229.701 303.412 225.246C303.412 220.791 307.035 217.173 311.498 217.173C315.977 217.173 319.583 220.791 319.583 225.246Z" fill="#C64F4F"/>
<path d="M313.091 233.151C314.266 228.478 314.937 222.499 315.322 218.162C314.182 217.559 312.907 217.173 311.531 217.173C307.069 217.173 303.445 220.791 303.445 225.246C303.445 229.701 307.069 233.319 311.531 233.319C312.051 233.302 312.571 233.252 313.091 233.151Z" fill="#803D3D"/>
<path d="M261.053 225.246C261.053 229.701 264.676 233.319 269.139 233.319C273.601 233.319 277.225 229.701 277.225 225.246C277.225 220.791 273.601 217.173 269.139 217.173C264.676 217.173 261.053 220.791 261.053 225.246Z" fill="#C64F4F"/>
<path d="M267.562 233.151C266.387 228.478 265.716 222.499 265.331 218.162C266.471 217.559 267.746 217.173 269.122 217.173C273.584 217.173 277.208 220.791 277.208 225.246C277.208 229.701 273.584 233.319 269.122 233.319C268.602 233.302 268.065 233.252 267.562 233.151Z" fill="#803D3D"/>
<path d="M304.536 197.025H290.31H276.084L269.038 212.383L270.229 227.574C270.867 235.68 276.101 249.682 283.499 253.115C285.696 254.137 288.011 254.823 290.31 254.823C292.608 254.823 294.923 254.137 297.121 253.115C304.502 249.682 309.753 235.68 310.39 227.574L311.581 212.383L304.536 197.025Z" fill="#FF7E6E"/>
<path d="M302.741 217.81C299.671 217.81 297.507 217.224 297.372 217.173C296.886 217.039 296.617 216.537 296.752 216.068C296.886 215.582 297.372 215.314 297.859 215.448C297.909 215.465 302.489 216.704 307.572 215.448C308.058 215.331 308.545 215.616 308.662 216.102C308.78 216.587 308.495 217.073 308.008 217.19C306.113 217.642 304.301 217.81 302.741 217.81Z" fill="#2F2F35"/>
<path d="M307.236 210.625C306.935 210.625 306.616 210.541 306.331 210.39C303.361 208.682 298.127 209.067 296.366 209.352C295.376 209.519 294.453 208.85 294.286 207.861C294.118 206.873 294.789 205.952 295.779 205.785C296.097 205.734 303.445 204.545 308.142 207.258C309.015 207.761 309.3 208.866 308.813 209.72C308.461 210.307 307.857 210.625 307.236 210.625Z" fill="#2F2F35"/>
<path d="M277.912 217.81C276.335 217.81 274.54 217.659 272.645 217.19C272.158 217.073 271.856 216.587 271.991 216.102C272.108 215.616 272.595 215.331 273.081 215.448C278.198 216.704 282.744 215.465 282.794 215.448C283.264 215.314 283.767 215.599 283.901 216.068C284.036 216.554 283.75 217.039 283.281 217.173C283.13 217.207 280.966 217.81 277.912 217.81Z" fill="#2F2F35"/>
<path d="M273.416 210.625C272.796 210.625 272.175 210.307 271.84 209.72C271.336 208.85 271.638 207.744 272.511 207.258C277.208 204.562 284.556 205.734 284.874 205.785C285.864 205.952 286.518 206.873 286.367 207.861C286.2 208.85 285.26 209.503 284.287 209.352C282.526 209.067 277.292 208.682 274.322 210.39C274.02 210.558 273.718 210.625 273.416 210.625Z" fill="#2F2F35"/>
<g opacity="0.52">
<path opacity="0.52" d="M278.986 229.55C278.063 214.192 276.101 197.042 276.101 197.042L269.055 212.4L269.424 217.224C269.323 217.224 269.223 217.19 269.122 217.19C264.66 217.19 261.036 220.808 261.036 225.263C261.036 229.718 264.66 233.335 269.122 233.335C269.827 233.335 270.498 233.218 271.152 233.051C273.047 240.906 277.594 250.402 283.499 253.165C285.696 254.187 288.011 254.874 290.31 254.874C290.327 254.823 279.926 244.892 278.986 229.55Z" fill="#FFF6E7"/>
</g>
<path d="M282.056 229.299C281.184 229.299 280.68 230.304 281.217 230.991C283.633 234.089 286.82 235.982 290.343 235.982C293.849 235.982 297.054 234.089 299.469 230.991C300.006 230.304 299.486 229.299 298.631 229.299H282.056Z" fill="white"/>
<path d="M293.262 225.263L292.44 224.794C292.373 224.76 290.696 223.856 288.33 224.827C288.045 224.945 287.726 224.811 287.609 224.526C287.491 224.241 287.626 223.923 287.911 223.806C289.756 223.052 291.283 223.253 292.172 223.504V215.968C292.172 215.666 292.424 215.415 292.725 215.415C293.027 215.415 293.279 215.666 293.279 215.968V225.263H293.262Z" fill="#2F2F35"/>
<g opacity="0.6">
<path opacity="0.6" d="M301.583 227.423C298.245 223.94 282.878 224.794 278.869 227.641C274.859 230.505 269.91 226.686 269.91 226.686C269.91 226.686 272.343 245.344 281.855 252.311C281.855 252.311 290.83 258.826 300.157 251.139C300.157 251.139 309.367 242.731 310.474 226.686C310.457 226.686 304.921 230.907 301.583 227.423ZM300.862 232.632C299.805 237.975 290.008 237.723 290.008 237.723C290.008 237.723 281.452 238.293 279.305 232.632C279.305 232.632 277.476 228.478 282.392 227.741H297.792C297.792 227.741 301.919 227.289 300.862 232.632Z" fill="#2F2F35"/>
</g>
<path d="M194.796 400.576V409H192.744V400.576H194.796ZM195.875 405.64C195.875 404.952 196.003 404.348 196.259 403.828C196.523 403.308 196.879 402.908 197.327 402.628C197.775 402.348 198.275 402.208 198.827 402.208C199.267 402.208 199.667 402.3 200.027 402.484C200.395 402.668 200.683 402.916 200.891 403.228V400.12H202.943V409H200.891V408.04C200.699 408.36 200.423 408.616 200.063 408.808C199.711 409 199.299 409.096 198.827 409.096C198.275 409.096 197.775 408.956 197.327 408.676C196.879 408.388 196.523 407.984 196.259 407.464C196.003 406.936 195.875 406.328 195.875 405.64ZM200.891 405.652C200.891 405.14 200.747 404.736 200.459 404.44C200.179 404.144 199.835 403.996 199.427 403.996C199.019 403.996 198.671 404.144 198.383 404.44C198.103 404.728 197.963 405.128 197.963 405.64C197.963 406.152 198.103 406.56 198.383 406.864C198.671 407.16 199.019 407.308 199.427 407.308C199.835 407.308 200.179 407.16 200.459 406.864C200.747 406.568 200.891 406.164 200.891 405.652ZM204.02 405.64C204.02 404.952 204.148 404.348 204.404 403.828C204.668 403.308 205.024 402.908 205.472 402.628C205.92 402.348 206.42 402.208 206.972 402.208C207.444 402.208 207.856 402.304 208.208 402.496C208.568 402.688 208.844 402.94 209.036 403.252V402.304H211.088V409H209.036V408.052C208.836 408.364 208.556 408.616 208.196 408.808C207.844 409 207.432 409.096 206.96 409.096C206.416 409.096 205.92 408.956 205.472 408.676C205.024 408.388 204.668 407.984 204.404 407.464C204.148 406.936 204.02 406.328 204.02 405.64ZM209.036 405.652C209.036 405.14 208.892 404.736 208.604 404.44C208.324 404.144 207.98 403.996 207.572 403.996C207.164 403.996 206.816 404.144 206.528 404.44C206.248 404.728 206.108 405.128 206.108 405.64C206.108 406.152 206.248 406.56 206.528 406.864C206.816 407.16 207.164 407.308 207.572 407.308C207.98 407.308 208.324 407.16 208.604 406.864C208.892 406.568 209.036 406.164 209.036 405.652ZM212.164 405.64C212.164 404.952 212.292 404.348 212.548 403.828C212.812 403.308 213.168 402.908 213.616 402.628C214.064 402.348 214.564 402.208 215.116 402.208C215.556 402.208 215.956 402.3 216.316 402.484C216.684 402.668 216.972 402.916 217.18 403.228V400.12H219.232V409H217.18V408.04C216.988 408.36 216.712 408.616 216.352 408.808C216 409 215.588 409.096 215.116 409.096C214.564 409.096 214.064 408.956 213.616 408.676C213.168 408.388 212.812 407.984 212.548 407.464C212.292 406.936 212.164 406.328 212.164 405.64ZM217.18 405.652C217.18 405.14 217.036 404.736 216.748 404.44C216.468 404.144 216.124 403.996 215.716 403.996C215.308 403.996 214.96 404.144 214.672 404.44C214.392 404.728 214.252 405.128 214.252 405.64C214.252 406.152 214.392 406.56 214.672 406.864C214.96 407.16 215.308 407.308 215.716 407.308C216.124 407.308 216.468 407.16 216.748 406.864C217.036 406.568 217.18 406.164 217.18 405.652ZM227.029 405.544C227.029 405.736 227.017 405.936 226.993 406.144H222.349C222.381 406.56 222.513 406.88 222.745 407.104C222.985 407.32 223.277 407.428 223.621 407.428C224.133 407.428 224.489 407.212 224.689 406.78H226.873C226.761 407.22 226.557 407.616 226.261 407.968C225.973 408.32 225.609 408.596 225.169 408.796C224.729 408.996 224.237 409.096 223.693 409.096C223.037 409.096 222.453 408.956 221.941 408.676C221.429 408.396 221.029 407.996 220.741 407.476C220.453 406.956 220.309 406.348 220.309 405.652C220.309 404.956 220.449 404.348 220.729 403.828C221.017 403.308 221.417 402.908 221.929 402.628C222.441 402.348 223.029 402.208 223.693 402.208C224.341 402.208 224.917 402.344 225.421 402.616C225.925 402.888 226.317 403.276 226.597 403.78C226.885 404.284 227.029 404.872 227.029 405.544ZM224.929 405.004C224.929 404.652 224.809 404.372 224.569 404.164C224.329 403.956 224.029 403.852 223.669 403.852C223.325 403.852 223.033 403.952 222.793 404.152C222.561 404.352 222.417 404.636 222.361 405.004H224.929ZM229.071 409.096C228.711 409.096 228.415 408.992 228.183 408.784C227.959 408.568 227.847 408.304 227.847 407.992C227.847 407.672 227.959 407.404 228.183 407.188C228.415 406.972 228.711 406.864 229.071 406.864C229.423 406.864 229.711 406.972 229.935 407.188C230.167 407.404 230.283 407.672 230.283 407.992C230.283 408.304 230.167 408.568 229.935 408.784C229.711 408.992 229.423 409.096 229.071 409.096ZM229.071 404.212C228.711 404.212 228.415 404.108 228.183 403.9C227.959 403.684 227.847 403.42 227.847 403.108C227.847 402.788 227.959 402.52 228.183 402.304C228.415 402.088 228.711 401.98 229.071 401.98C229.423 401.98 229.711 402.088 229.935 402.304C230.167 402.52 230.283 402.788 230.283 403.108C230.283 403.42 230.167 403.684 229.935 403.9C229.711 404.108 229.423 404.212 229.071 404.212Z" fill="#CB7BFF"/>
<path d="M234.682 408.34C236.154 407.236 237.29 406.248 238.09 405.376C238.898 404.496 239.302 403.636 239.302 402.796C239.302 402.244 239.162 401.804 238.882 401.476C238.61 401.14 238.162 400.972 237.538 400.972C236.93 400.972 236.458 401.164 236.122 401.548C235.794 401.924 235.61 402.428 235.57 403.06H234.754C234.802 402.172 235.074 401.484 235.57 400.996C236.074 400.5 236.73 400.252 237.538 400.252C238.314 400.252 238.942 400.472 239.422 400.912C239.902 401.344 240.142 401.96 240.142 402.76C240.142 403.728 239.738 404.668 238.93 405.58C238.13 406.484 237.142 407.368 235.966 408.232H240.406V408.94H234.682V408.34ZM241.682 402.592C241.738 401.864 242.018 401.292 242.521 400.876C243.034 400.452 243.694 400.24 244.502 400.24C245.038 400.24 245.498 400.336 245.882 400.528C246.266 400.72 246.554 400.984 246.746 401.32C246.946 401.648 247.046 402.02 247.046 402.436C247.046 402.94 246.898 403.376 246.602 403.744C246.306 404.112 245.886 404.34 245.342 404.428V404.488C245.91 404.6 246.362 404.848 246.698 405.232C247.034 405.608 247.202 406.104 247.202 406.72C247.202 407.408 246.97 407.972 246.506 408.412C246.05 408.844 245.386 409.06 244.514 409.06C243.682 409.06 242.998 408.844 242.462 408.412C241.926 407.972 241.618 407.352 241.538 406.552H242.354C242.426 407.088 242.65 407.524 243.026 407.86C243.402 408.188 243.898 408.352 244.514 408.352C245.122 408.352 245.586 408.192 245.906 407.872C246.234 407.552 246.398 407.144 246.398 406.648C246.398 405.432 245.522 404.824 243.77 404.824H243.506V404.116H243.782C245.414 404.116 246.23 403.584 246.23 402.52C246.23 402.056 246.078 401.684 245.774 401.404C245.47 401.116 245.038 400.972 244.478 400.972C243.934 400.972 243.482 401.116 243.122 401.404C242.77 401.684 242.562 402.08 242.498 402.592H241.682ZM251.826 405.712C251.826 405.04 251.958 404.452 252.222 403.948C252.494 403.436 252.866 403.044 253.338 402.772C253.818 402.492 254.358 402.352 254.958 402.352C255.582 402.352 256.118 402.496 256.566 402.784C257.022 403.072 257.35 403.44 257.55 403.888V402.448H258.39V409H257.55V407.548C257.342 407.996 257.01 408.368 256.554 408.664C256.106 408.952 255.57 409.096 254.946 409.096C254.354 409.096 253.818 408.956 253.338 408.676C252.866 408.396 252.494 408 252.222 407.488C251.958 406.976 251.826 406.384 251.826 405.712ZM257.55 405.724C257.55 405.196 257.442 404.732 257.226 404.332C257.01 403.932 256.714 403.624 256.338 403.408C255.97 403.192 255.562 403.084 255.114 403.084C254.65 403.084 254.234 403.188 253.866 403.396C253.498 403.604 253.206 403.908 252.99 404.308C252.782 404.7 252.678 405.168 252.678 405.712C252.678 406.248 252.782 406.72 252.99 407.128C253.206 407.528 253.498 407.836 253.866 408.052C254.234 408.26 254.65 408.364 255.114 408.364C255.562 408.364 255.97 408.256 256.338 408.04C256.714 407.824 257.01 407.516 257.226 407.116C257.442 406.716 257.55 406.252 257.55 405.724ZM263.38 402.328C264.164 402.328 264.804 402.572 265.3 403.06C265.796 403.54 266.044 404.24 266.044 405.16V409H265.216V405.256C265.216 404.544 265.036 404 264.676 403.624C264.324 403.248 263.84 403.06 263.224 403.06C262.592 403.06 262.088 403.26 261.712 403.66C261.336 404.06 261.148 404.648 261.148 405.424V409H260.308V402.448H261.148V403.564C261.356 403.164 261.656 402.86 262.048 402.652C262.44 402.436 262.884 402.328 263.38 402.328ZM270.769 409.096C270.153 409.096 269.597 408.96 269.101 408.688C268.613 408.408 268.225 408.016 267.937 407.512C267.657 407 267.517 406.404 267.517 405.724C267.517 405.044 267.661 404.452 267.949 403.948C268.237 403.436 268.629 403.044 269.125 402.772C269.621 402.492 270.177 402.352 270.793 402.352C271.409 402.352 271.965 402.492 272.461 402.772C272.965 403.044 273.357 403.436 273.637 403.948C273.925 404.452 274.069 405.044 274.069 405.724C274.069 406.396 273.925 406.988 273.637 407.5C273.349 408.012 272.953 408.408 272.449 408.688C271.945 408.96 271.385 409.096 270.769 409.096ZM270.769 408.364C271.201 408.364 271.601 408.268 271.969 408.076C272.337 407.876 272.633 407.58 272.857 407.188C273.089 406.788 273.205 406.3 273.205 405.724C273.205 405.148 273.093 404.664 272.869 404.272C272.645 403.872 272.349 403.576 271.981 403.384C271.613 403.184 271.213 403.084 270.781 403.084C270.349 403.084 269.949 403.184 269.581 403.384C269.213 403.576 268.917 403.872 268.693 404.272C268.477 404.664 268.369 405.148 268.369 405.724C268.369 406.3 268.477 406.788 268.693 407.188C268.917 407.58 269.209 407.876 269.569 408.076C269.937 408.268 270.337 408.364 270.769 408.364ZM277.857 409.096C277.105 409.096 276.489 408.924 276.009 408.58C275.537 408.228 275.273 407.752 275.217 407.152H276.081C276.121 407.52 276.293 407.82 276.597 408.052C276.909 408.276 277.325 408.388 277.845 408.388C278.301 408.388 278.657 408.28 278.913 408.064C279.177 407.848 279.309 407.58 279.309 407.26C279.309 407.036 279.237 406.852 279.093 406.708C278.949 406.564 278.765 406.452 278.541 406.372C278.325 406.284 278.029 406.192 277.653 406.096C277.165 405.968 276.769 405.84 276.465 405.712C276.161 405.584 275.901 405.396 275.685 405.148C275.477 404.892 275.373 404.552 275.373 404.128C275.373 403.808 275.469 403.512 275.661 403.24C275.853 402.968 276.125 402.752 276.477 402.592C276.829 402.432 277.229 402.352 277.677 402.352C278.381 402.352 278.949 402.532 279.381 402.892C279.813 403.244 280.045 403.732 280.077 404.356H279.237C279.213 403.972 279.061 403.664 278.781 403.432C278.509 403.192 278.133 403.072 277.653 403.072C277.229 403.072 276.885 403.172 276.621 403.372C276.357 403.572 276.225 403.82 276.225 404.116C276.225 404.372 276.301 404.584 276.453 404.752C276.613 404.912 276.809 405.04 277.041 405.136C277.273 405.224 277.585 405.324 277.977 405.436C278.449 405.564 278.825 405.688 279.105 405.808C279.385 405.928 279.625 406.104 279.825 406.336C280.025 406.568 280.129 406.876 280.137 407.26C280.137 407.612 280.041 407.928 279.849 408.208C279.657 408.48 279.389 408.696 279.045 408.856C278.701 409.016 278.305 409.096 277.857 409.096Z" fill="#2F2F35"/>
<path d="M194.796 461.416H197.484V463H192.744V454.576H194.796V461.416ZM201.511 463.096C200.855 463.096 200.263 462.956 199.735 462.676C199.215 462.396 198.803 461.996 198.499 461.476C198.203 460.956 198.055 460.348 198.055 459.652C198.055 458.964 198.207 458.36 198.511 457.84C198.815 457.312 199.231 456.908 199.759 456.628C200.287 456.348 200.879 456.208 201.535 456.208C202.191 456.208 202.783 456.348 203.311 456.628C203.839 456.908 204.255 457.312 204.559 457.84C204.863 458.36 205.015 458.964 205.015 459.652C205.015 460.34 204.859 460.948 204.547 461.476C204.243 461.996 203.823 462.396 203.287 462.676C202.759 462.956 202.167 463.096 201.511 463.096ZM201.511 461.32C201.903 461.32 202.235 461.176 202.507 460.888C202.787 460.6 202.927 460.188 202.927 459.652C202.927 459.116 202.791 458.704 202.519 458.416C202.255 458.128 201.927 457.984 201.535 457.984C201.135 457.984 200.803 458.128 200.539 458.416C200.275 458.696 200.143 459.108 200.143 459.652C200.143 460.188 200.271 460.6 200.527 460.888C200.791 461.176 201.119 461.32 201.511 461.32ZM205.695 459.652C205.695 458.956 205.835 458.348 206.115 457.828C206.403 457.308 206.799 456.908 207.303 456.628C207.815 456.348 208.399 456.208 209.055 456.208C209.895 456.208 210.595 456.428 211.155 456.868C211.723 457.308 212.095 457.928 212.271 458.728H210.087C209.903 458.216 209.547 457.96 209.019 457.96C208.643 457.96 208.343 458.108 208.119 458.404C207.895 458.692 207.783 459.108 207.783 459.652C207.783 460.196 207.895 460.616 208.119 460.912C208.343 461.2 208.643 461.344 209.019 461.344C209.547 461.344 209.903 461.088 210.087 460.576H212.271C212.095 461.36 211.723 461.976 211.155 462.424C210.587 462.872 209.887 463.096 209.055 463.096C208.399 463.096 207.815 462.956 207.303 462.676C206.799 462.396 206.403 461.996 206.115 461.476C205.835 460.956 205.695 460.348 205.695 459.652ZM212.961 459.64C212.961 458.952 213.089 458.348 213.345 457.828C213.609 457.308 213.965 456.908 214.413 456.628C214.861 456.348 215.361 456.208 215.913 456.208C216.385 456.208 216.797 456.304 217.149 456.496C217.509 456.688 217.785 456.94 217.977 457.252V456.304H220.029V463H217.977V462.052C217.777 462.364 217.497 462.616 217.137 462.808C216.785 463 216.373 463.096 215.901 463.096C215.357 463.096 214.861 462.956 214.413 462.676C213.965 462.388 213.609 461.984 213.345 461.464C213.089 460.936 212.961 460.328 212.961 459.64ZM217.977 459.652C217.977 459.14 217.833 458.736 217.545 458.44C217.265 458.144 216.921 457.996 216.513 457.996C216.105 457.996 215.757 458.144 215.469 458.44C215.189 458.728 215.049 459.128 215.049 459.64C215.049 460.152 215.189 460.56 215.469 460.864C215.757 461.16 216.105 461.308 216.513 461.308C216.921 461.308 217.265 461.16 217.545 460.864C217.833 460.568 217.977 460.164 217.977 459.652ZM223.566 454.12V463H221.514V454.12H223.566ZM226.013 463.096C225.653 463.096 225.357 462.992 225.125 462.784C224.901 462.568 224.789 462.304 224.789 461.992C224.789 461.672 224.901 461.404 225.125 461.188C225.357 460.972 225.653 460.864 226.013 460.864C226.365 460.864 226.653 460.972 226.877 461.188C227.109 461.404 227.225 461.672 227.225 461.992C227.225 462.304 227.109 462.568 226.877 462.784C226.653 462.992 226.365 463.096 226.013 463.096ZM226.013 458.212C225.653 458.212 225.357 458.108 225.125 457.9C224.901 457.684 224.789 457.42 224.789 457.108C224.789 456.788 224.901 456.52 225.125 456.304C225.357 456.088 225.653 455.98 226.013 455.98C226.365 455.98 226.653 456.088 226.877 456.304C227.109 456.52 227.225 456.788 227.225 457.108C227.225 457.42 227.109 457.684 226.877 457.9C226.653 458.108 226.365 458.212 226.013 458.212Z" fill="#CB7BFF"/>
<path d="M231.588 458.8C231.588 457.976 231.768 457.24 232.128 456.592C232.488 455.936 232.98 455.428 233.604 455.068C234.228 454.7 234.924 454.516 235.692 454.516C236.628 454.516 237.428 454.74 238.092 455.188C238.764 455.628 239.252 456.252 239.556 457.06H238.572C238.332 456.492 237.964 456.048 237.468 455.728C236.98 455.408 236.388 455.248 235.692 455.248C235.076 455.248 234.52 455.392 234.024 455.68C233.536 455.968 233.152 456.384 232.872 456.928C232.592 457.464 232.452 458.088 232.452 458.8C232.452 459.512 232.592 460.136 232.872 460.672C233.152 461.208 233.536 461.62 234.024 461.908C234.52 462.196 235.076 462.34 235.692 462.34C236.388 462.34 236.98 462.184 237.468 461.872C237.964 461.552 238.332 461.112 238.572 460.552H239.556C239.252 461.352 238.764 461.972 238.092 462.412C237.42 462.852 236.62 463.072 235.692 463.072C234.924 463.072 234.228 462.892 233.604 462.532C232.98 462.164 232.488 461.656 232.128 461.008C231.768 460.36 231.588 459.624 231.588 458.8ZM240.846 459.712C240.846 459.04 240.978 458.452 241.242 457.948C241.514 457.436 241.886 457.044 242.358 456.772C242.838 456.492 243.378 456.352 243.978 456.352C244.602 456.352 245.138 456.496 245.586 456.784C246.042 457.072 246.37 457.44 246.57 457.888V456.448H247.41V463H246.57V461.548C246.362 461.996 246.03 462.368 245.574 462.664C245.126 462.952 244.59 463.096 243.966 463.096C243.374 463.096 242.838 462.956 242.358 462.676C241.886 462.396 241.514 462 241.242 461.488C240.978 460.976 240.846 460.384 240.846 459.712ZM246.57 459.724C246.57 459.196 246.462 458.732 246.246 458.332C246.03 457.932 245.734 457.624 245.358 457.408C244.99 457.192 244.582 457.084 244.134 457.084C243.67 457.084 243.254 457.188 242.886 457.396C242.518 457.604 242.226 457.908 242.01 458.308C241.802 458.7 241.698 459.168 241.698 459.712C241.698 460.248 241.802 460.72 242.01 461.128C242.226 461.528 242.518 461.836 242.886 462.052C243.254 462.26 243.67 462.364 244.134 462.364C244.582 462.364 244.99 462.256 245.358 462.04C245.734 461.824 246.03 461.516 246.246 461.116C246.462 460.716 246.57 460.252 246.57 459.724ZM257.127 456.328C257.895 456.328 258.519 456.572 258.999 457.06C259.487 457.54 259.731 458.24 259.731 459.16V463H258.903V459.256C258.903 458.544 258.731 458 258.387 457.624C258.043 457.248 257.575 457.06 256.983 457.06C256.367 457.06 255.875 457.264 255.507 457.672C255.139 458.08 254.955 458.672 254.955 459.448V463H254.127V459.256C254.127 458.544 253.955 458 253.611 457.624C253.267 457.248 252.795 457.06 252.195 457.06C251.579 457.06 251.087 457.264 250.719 457.672C250.351 458.08 250.167 458.672 250.167 459.448V463H249.327V456.448H250.167V457.576C250.375 457.168 250.671 456.86 251.055 456.652C251.439 456.436 251.867 456.328 252.339 456.328C252.907 456.328 253.403 456.464 253.827 456.736C254.259 457.008 254.571 457.408 254.763 457.936C254.939 457.416 255.239 457.02 255.663 456.748C256.095 456.468 256.583 456.328 257.127 456.328ZM262.425 457.888C262.633 457.448 262.961 457.084 263.409 456.796C263.865 456.5 264.405 456.352 265.029 456.352C265.621 456.352 266.153 456.492 266.625 456.772C267.105 457.044 267.477 457.436 267.741 457.948C268.013 458.452 268.149 459.04 268.149 459.712C268.149 460.384 268.013 460.976 267.741 461.488C267.477 462 267.105 462.396 266.625 462.676C266.153 462.956 265.621 463.096 265.029 463.096C264.413 463.096 263.877 462.952 263.421 462.664C262.965 462.368 262.633 462 262.425 461.56V466.096H261.597V456.448H262.425V457.888ZM267.297 459.712C267.297 459.168 267.189 458.7 266.973 458.308C266.765 457.908 266.477 457.604 266.109 457.396C265.741 457.188 265.325 457.084 264.861 457.084C264.413 457.084 264.001 457.192 263.625 457.408C263.257 457.624 262.965 457.932 262.749 458.332C262.533 458.732 262.425 459.196 262.425 459.724C262.425 460.252 262.533 460.716 262.749 461.116C262.965 461.516 263.257 461.824 263.625 462.04C264.001 462.256 264.413 462.364 264.861 462.364C265.325 462.364 265.741 462.26 266.109 462.052C266.477 461.836 266.765 461.528 266.973 461.128C267.189 460.72 267.297 460.248 267.297 459.712ZM270.114 455.212C269.946 455.212 269.802 455.152 269.682 455.032C269.562 454.912 269.502 454.764 269.502 454.588C269.502 454.412 269.562 454.268 269.682 454.156C269.802 454.036 269.946 453.976 270.114 453.976C270.282 453.976 270.426 454.036 270.546 454.156C270.666 454.268 270.726 454.412 270.726 454.588C270.726 454.764 270.666 454.912 270.546 455.032C270.426 455.152 270.282 455.212 270.114 455.212ZM270.534 456.448V463H269.694V456.448H270.534ZM275.509 456.328C276.293 456.328 276.933 456.572 277.429 457.06C277.925 457.54 278.173 458.24 278.173 459.16V463H277.345V459.256C277.345 458.544 277.165 458 276.805 457.624C276.453 457.248 275.969 457.06 275.353 457.06C274.721 457.06 274.217 457.26 273.841 457.66C273.465 458.06 273.277 458.648 273.277 459.424V463H272.437V456.448H273.277V457.564C273.485 457.164 273.785 456.86 274.177 456.652C274.569 456.436 275.013 456.328 275.509 456.328ZM279.646 459.712C279.646 459.04 279.778 458.452 280.042 457.948C280.314 457.436 280.686 457.044 281.158 456.772C281.638 456.492 282.178 456.352 282.778 456.352C283.402 456.352 283.938 456.496 284.386 456.784C284.842 457.072 285.17 457.44 285.37 457.888V456.448H286.21V463H285.37V461.548C285.162 461.996 284.83 462.368 284.374 462.664C283.926 462.952 283.39 463.096 282.766 463.096C282.174 463.096 281.638 462.956 281.158 462.676C280.686 462.396 280.314 462 280.042 461.488C279.778 460.976 279.646 460.384 279.646 459.712ZM285.37 459.724C285.37 459.196 285.262 458.732 285.046 458.332C284.83 457.932 284.534 457.624 284.158 457.408C283.79 457.192 283.382 457.084 282.934 457.084C282.47 457.084 282.054 457.188 281.686 457.396C281.318 457.604 281.026 457.908 280.81 458.308C280.602 458.7 280.498 459.168 280.498 459.712C280.498 460.248 280.602 460.72 280.81 461.128C281.026 461.528 281.318 461.836 281.686 462.052C282.054 462.26 282.47 462.364 282.934 462.364C283.382 462.364 283.79 462.256 284.158 462.04C284.534 461.824 284.83 461.516 285.046 461.116C285.262 460.716 285.37 460.252 285.37 459.724ZM298.021 457.06C297.781 456.508 297.413 456.076 296.917 455.764C296.429 455.444 295.853 455.284 295.189 455.284C294.565 455.284 294.005 455.428 293.509 455.716C293.013 456.004 292.621 456.416 292.333 456.952C292.045 457.48 291.901 458.096 291.901 458.8C291.901 459.504 292.045 460.124 292.333 460.66C292.621 461.196 293.013 461.608 293.509 461.896C294.005 462.184 294.565 462.328 295.189 462.328C295.773 462.328 296.297 462.204 296.761 461.956C297.233 461.7 297.609 461.34 297.889 460.876C298.177 460.404 298.341 459.856 298.381 459.232H294.853V458.548H299.269V459.16C299.229 459.896 299.029 460.564 298.669 461.164C298.309 461.756 297.825 462.224 297.217 462.568C296.617 462.912 295.941 463.084 295.189 463.084C294.413 463.084 293.709 462.904 293.077 462.544C292.445 462.176 291.945 461.668 291.577 461.02C291.217 460.364 291.037 459.624 291.037 458.8C291.037 457.976 291.217 457.24 291.577 456.592C291.945 455.936 292.445 455.428 293.077 455.068C293.709 454.7 294.413 454.516 295.189 454.516C296.085 454.516 296.869 454.74 297.541 455.188C298.213 455.636 298.701 456.26 299.005 457.06H298.021ZM301.648 457.612C301.832 457.204 302.112 456.888 302.488 456.664C302.872 456.44 303.34 456.328 303.892 456.328V457.204H303.664C303.056 457.204 302.568 457.368 302.2 457.696C301.832 458.024 301.648 458.572 301.648 459.34V463H300.808V456.448H301.648V457.612ZM304.771 459.712C304.771 459.04 304.903 458.452 305.167 457.948C305.439 457.436 305.811 457.044 306.283 456.772C306.763 456.492 307.303 456.352 307.903 456.352C308.527 456.352 309.063 456.496 309.511 456.784C309.967 457.072 310.295 457.44 310.495 457.888V456.448H311.335V463H310.495V461.548C310.287 461.996 309.955 462.368 309.499 462.664C309.051 462.952 308.515 463.096 307.891 463.096C307.299 463.096 306.763 462.956 306.283 462.676C305.811 462.396 305.439 462 305.167 461.488C304.903 460.976 304.771 460.384 304.771 459.712ZM310.495 459.724C310.495 459.196 310.387 458.732 310.171 458.332C309.955 457.932 309.659 457.624 309.283 457.408C308.915 457.192 308.507 457.084 308.059 457.084C307.595 457.084 307.179 457.188 306.811 457.396C306.443 457.604 306.151 457.908 305.935 458.308C305.727 458.7 305.623 459.168 305.623 459.712C305.623 460.248 305.727 460.72 305.935 461.128C306.151 461.528 306.443 461.836 306.811 462.052C307.179 462.26 307.595 462.364 308.059 462.364C308.507 462.364 308.915 462.256 309.283 462.04C309.659 461.824 309.955 461.516 310.171 461.116C310.387 460.716 310.495 460.252 310.495 459.724ZM316.325 456.328C317.109 456.328 317.749 456.572 318.245 457.06C318.741 457.54 318.989 458.24 318.989 459.16V463H318.161V459.256C318.161 458.544 317.981 458 317.621 457.624C317.269 457.248 316.785 457.06 316.169 457.06C315.537 457.06 315.033 457.26 314.657 457.66C314.281 458.06 314.093 458.648 314.093 459.424V463H313.253V456.448H314.093V457.564C314.301 457.164 314.601 456.86 314.993 456.652C315.385 456.436 315.829 456.328 316.325 456.328ZM320.463 459.712C320.463 459.04 320.599 458.452 320.871 457.948C321.143 457.436 321.515 457.044 321.987 456.772C322.467 456.492 323.007 456.352 323.607 456.352C324.183 456.352 324.703 456.492 325.167 456.772C325.631 457.052 325.971 457.416 326.187 457.864V454.12H327.027V463H326.187V461.536C325.987 461.992 325.659 462.368 325.203 462.664C324.747 462.952 324.211 463.096 323.595 463.096C322.995 463.096 322.455 462.956 321.975 462.676C321.503 462.396 321.131 462 320.859 461.488C320.595 460.976 320.463 460.384 320.463 459.712ZM326.187 459.724C326.187 459.196 326.079 458.732 325.863 458.332C325.647 457.932 325.351 457.624 324.975 457.408C324.607 457.192 324.199 457.084 323.751 457.084C323.287 457.084 322.871 457.188 322.503 457.396C322.135 457.604 321.843 457.908 321.627 458.308C321.419 458.7 321.315 459.168 321.315 459.712C321.315 460.248 321.419 460.72 321.627 461.128C321.843 461.528 322.135 461.836 322.503 462.052C322.871 462.26 323.287 462.364 323.751 462.364C324.199 462.364 324.607 462.256 324.975 462.04C325.351 461.824 325.647 461.516 325.863 461.116C326.079 460.716 326.187 460.252 326.187 459.724ZM334.872 459.388C334.872 459.676 334.864 459.896 334.848 460.048H329.412C329.436 460.544 329.556 460.968 329.772 461.32C329.988 461.672 330.272 461.94 330.624 462.124C330.976 462.3 331.36 462.388 331.776 462.388C332.32 462.388 332.776 462.256 333.144 461.992C333.52 461.728 333.768 461.372 333.888 460.924H334.776C334.616 461.564 334.272 462.088 333.744 462.496C333.224 462.896 332.568 463.096 331.776 463.096C331.16 463.096 330.608 462.96 330.12 462.688C329.632 462.408 329.248 462.016 328.968 461.512C328.696 461 328.56 460.404 328.56 459.724C328.56 459.044 328.696 458.448 328.968 457.936C329.24 457.424 329.62 457.032 330.108 456.76C330.596 456.488 331.152 456.352 331.776 456.352C332.4 456.352 332.944 456.488 333.408 456.76C333.88 457.032 334.24 457.4 334.488 457.864C334.744 458.32 334.872 458.828 334.872 459.388ZM334.02 459.364C334.028 458.876 333.928 458.46 333.72 458.116C333.52 457.772 333.244 457.512 332.892 457.336C332.54 457.16 332.156 457.072 331.74 457.072C331.116 457.072 330.584 457.272 330.144 457.672C329.704 458.072 329.46 458.636 329.412 459.364H334.02ZM343.77 458.2V458.908H339.102V458.2H343.77ZM354.582 457.024C354.582 457.744 354.346 458.324 353.874 458.764C353.402 459.204 352.694 459.424 351.75 459.424H350.058V463H349.218V454.612H351.75C352.686 454.612 353.39 454.832 353.862 455.272C354.342 455.712 354.582 456.296 354.582 457.024ZM351.75 458.704C353.062 458.704 353.718 458.144 353.718 457.024C353.718 456.464 353.562 456.04 353.25 455.752C352.938 455.464 352.438 455.32 351.75 455.32H350.058V458.704H351.75ZM359.915 458.668C360.387 458.756 360.787 458.996 361.115 459.388C361.443 459.78 361.607 460.236 361.607 460.756C361.607 461.18 361.499 461.564 361.283 461.908C361.075 462.244 360.767 462.512 360.359 462.712C359.951 462.904 359.463 463 358.895 463H355.991V454.612H358.811C359.659 454.612 360.303 454.808 360.743 455.2C361.191 455.592 361.415 456.1 361.415 456.724C361.415 457.244 361.275 457.668 360.995 457.996C360.715 458.316 360.355 458.54 359.915 458.668ZM356.831 458.32H358.787C359.355 458.32 359.791 458.188 360.095 457.924C360.407 457.652 360.563 457.28 360.563 456.808C360.563 456.344 360.407 455.98 360.095 455.716C359.791 455.452 359.343 455.32 358.751 455.32H356.831V458.32ZM358.835 462.292C359.443 462.292 359.915 462.148 360.251 461.86C360.595 461.572 360.767 461.176 360.767 460.672C360.767 460.168 360.587 459.768 360.227 459.472C359.875 459.168 359.399 459.016 358.799 459.016H356.831V462.292H358.835Z" fill="#2F2F35"/>
</g>
<path d="M496.645 429L499.63 435.031L506.305 435.991L501.482 440.694L502.614 447.318L496.645 444.196L490.691 447.318L491.823 440.694L487 435.991L493.675 435.031L496.645 429Z" fill="#E8E8E8"/>
<path d="M218.464 0L222.636 8.41737L231.942 9.77318L225.21 16.3263L226.794 25.591L218.464 21.2129L210.134 25.591L211.732 16.3263L205 9.77318L214.306 8.41737L218.464 0Z" fill="white"/>
<path d="M59.5239 222L61.8433 226.703L67.0479 227.452L63.2859 231.109L64.1769 236.278L59.5239 233.849L54.871 236.278L55.762 231.109L52 227.452L57.2045 226.703L59.5239 222Z" fill="#E8E8E8"/>
<path d="M378.478 589L382.636 597.431L391.942 598.787L385.21 605.34L386.794 614.605L378.478 610.227L370.148 614.605L371.732 605.34L365 598.787L374.306 597.431L378.478 589Z" fill="white"/>
<defs>
<linearGradient id="paint0_linear_501_2" x1="402.157" y1="150.249" x2="131.448" y2="241.116" gradientUnits="userSpaceOnUse">
<stop stop-color="#00EBB2"/>
<stop offset="0.432292" stop-color="#02DFED"/>
<stop offset="1" stop-color="#CB7BFF"/>
</linearGradient>
<clipPath id="clip0_501_2">
<rect width="287" height="476" fill="white" transform="translate(153 81)"/>
</clipPath>
</defs>
</svg>
