<svg width="261" height="259" viewBox="0 0 261 259" fill="none" xmlns="http://www.w3.org/2000/svg">
<rect width="261" height="259" rx="129.5" fill="#FCC709"/>
<path d="M130.57 176.364C133.693 175.455 135.038 179.839 137.464 182.006C138.308 182.761 139.785 182.903 142.24 182.774C152.6 182.244 162.7 180.494 171.72 174.834C177.06 171.484 177.27 166.714 171.91 163.634C169.727 162.459 167.36 161.664 164.91 161.284C152.507 159.026 139.728 160.06 127.85 164.284C119.5 167.134 111.29 170.444 103.04 173.574C97.8501 175.574 97.6501 175.224 97.3001 169.574C96.9501 163.684 99.3601 159.704 104.56 157.354C117.51 151.494 130.2 145.004 144.34 142.404C145.192 142.229 146.053 142.109 146.92 142.044C147.094 142.035 147.261 142.026 147.423 142.017C152.387 141.76 156.785 146.895 161.58 145.584C171.91 142.764 181.58 138.734 189.19 130.774C193.34 126.414 192.19 121.984 186.28 120.574C178.85 118.794 171.47 119.954 164.15 121.574C147.91 125.154 132.57 131.214 117.7 138.574C114.14 140.324 110.82 142.574 107.32 144.464C104.432 146.027 100.876 143.739 101.653 140.548C102.456 137.251 104.175 134.449 106.2 131.784C113.54 122.054 124 116.694 134.69 112.004C153.33 103.724 172.92 99.304 193.41 100.154C198.346 100.536 203.202 101.624 207.83 103.384C220.12 107.644 220.19 120.044 213.97 128.384C206.776 138.07 196.875 143.926 185.852 149.045C183.958 149.924 183.714 152.727 185.6 153.624C187.5 154.534 189.6 155.054 191.42 156.094C201.76 162.094 202.42 172.654 192.77 179.614C181.742 187.627 168.718 192.443 155.13 193.534C145.87 194.314 136.48 193.644 127.19 194.254C124.19 194.444 121.09 196.254 118.62 198.054C111.726 203.436 103.707 207.196 95.1601 209.054C95.135 209.062 95.1098 209.07 95.0847 209.077C92.999 209.706 89.1464 208.998 89.7101 206.894C91.4101 200.804 93.1501 194.704 95.3901 188.804C95.9801 187.224 98.1101 185.704 99.8401 185.164C110.02 182.044 120.28 179.164 130.57 176.364Z" fill="black"/>
<path d="M41.3695 78.7431C41.1545 78.5516 41.1032 78.2346 41.255 77.99C41.8569 77.02 42.5518 76.1104 43.33 75.274C52.33 67.424 68 65.894 78.33 71.944C80.22 73.044 81.7 74.844 83.4 76.274C84.7362 77.5689 86.2004 78.7248 87.77 79.724C91.14 81.554 94.42 79.514 94.45 75.724C94.45 70.594 91.45 66.854 88.23 63.394C85.4355 60.2774 82.0052 57.7962 78.1704 56.1177C74.3357 54.4392 70.1856 53.6025 66 53.664C62.6212 53.7935 61.4304 50.1784 64.7557 49.5657C65.7813 49.3768 66.8336 49.2814 67.86 49.174C85.46 47.364 100.26 59.974 103.78 73.074C104.37 75.234 106.64 78.074 108.64 78.544C119.82 81.274 123.1 95.764 120.64 104.704C119.547 108.749 117.63 112.525 115.009 115.794C112.388 119.064 109.12 121.757 105.41 123.704C99.379 126.906 93.0316 129.474 86.47 131.364C79.09 133.564 76.08 131.364 75.64 123.834C75.1749 117.03 75.215 110.202 75.76 103.404C76.07 99.974 78.05 96.634 79.61 93.404C81.36 89.794 80.89 86.864 78.26 83.844C74.16 79.144 69.65 75.004 63.32 74.004C59.9299 73.6436 56.5022 73.932 53.22 74.854C49.3378 75.8246 45.71 77.4733 41.9799 78.8586C41.7708 78.9363 41.536 78.8914 41.3695 78.7431ZM114.56 99.224C114.56 94.804 112.46 92.094 108.85 91.224C102.85 89.774 97.98 93.884 96.78 101.164C96.22 104.544 95.42 108.804 98.61 110.164C101.02 111.214 105.02 109.714 107.88 108.404C109.735 107.644 111.342 106.383 112.522 104.762C113.702 103.14 114.407 101.223 114.56 99.224Z" fill="black"/>
</svg>
