<?xml version="1.0" standalone="no"?>
<!DOCTYPE svg PUBLIC "-//W3C//DTD SVG 20010904//EN"
 "http://www.w3.org/TR/2001/REC-SVG-20010904/DTD/svg10.dtd">
<svg version="1.0" xmlns="http://www.w3.org/2000/svg"
 width="512.000000pt" height="512.000000pt" viewBox="0 0 512.000000 512.000000"
 preserveAspectRatio="xMidYMid meet">

<g transform="translate(0.000000,512.000000) scale(0.100000,-0.100000)"
fill="#5662f6" stroke="none">
<path d="M10 2560 l0 -2560 2555 0 2555 0 0 2560 0 2560 -2555 0 -2555 0 0
-2560z m2072 1345 c26 -49 49 -93 50 -96 2 -3 50 0 108 7 184 22 626 15 746
-11 17 -4 27 11 69 95 57 117 45 112 210 75 214 -48 420 -114 586 -188 52 -23
60 -31 125 -133 260 -402 413 -803 487 -1274 18 -115 21 -180 22 -435 0 -165
-3 -311 -7 -325 -13 -44 -274 -207 -518 -324 -132 -63 -381 -161 -439 -172
-27 -6 -32 -1 -94 92 -36 55 -82 129 -102 167 l-37 67 49 21 c94 41 233 108
253 122 21 15 21 15 -14 42 l-35 27 -116 -47 c-246 -98 -509 -153 -780 -162
-331 -11 -630 42 -949 169 l-99 39 -33 -23 c-19 -13 -34 -26 -34 -30 0 -9 194
-107 263 -133 26 -10 47 -22 47 -27 0 -37 -188 -328 -212 -328 -26 0 -251 83
-380 141 -146 65 -302 151 -460 255 l-126 83 -7 108 c-19 273 7 643 63 898 73
332 236 721 434 1035 71 112 75 116 138 146 97 47 367 137 515 172 72 17 139
33 150 35 11 3 34 4 50 4 27 -2 34 -11 77 -92z"/>
<path d="M1814 2770 c-288 -114 -298 -566 -16 -698 82 -39 194 -38 273 1 69
33 132 99 167 175 24 51 27 69 27 167 0 100 -3 116 -28 170 -34 73 -95 138
-162 173 -69 35 -188 41 -261 12z"/>
<path d="M3109 2777 c-92 -34 -165 -103 -207 -196 -37 -80 -43 -204 -13 -292
112 -333 539 -329 642 5 58 185 -20 383 -183 467 -54 28 -184 36 -239 16z"/>
</g>
</svg>
