<svg width="588" height="598" viewBox="0 0 588 598" fill="none" xmlns="http://www.w3.org/2000/svg">
<g clip-path="url(#clip0_281_9)">
<path d="M219.92 418.029C214.164 418.001 208.408 417.775 202.638 417.309C139.462 412.14 66.273 382.016 34.8054 327.161C7.31181 279.199 -3.47913 217.114 9.03723 163.644C20.804 113.366 57.3065 72.6492 108.404 57.1844C165.881 39.7989 229.396 60.927 285.939 37.172C368.25 2.61278 471.704 30.0539 529.392 95.8252C580.533 154.139 592.922 248.157 576.855 321.004C568.738 357.823 547.396 393.286 513.425 411.815C486.398 426.56 453.714 429.469 422.798 425.628C397.949 422.535 375.066 414.442 351.151 407.776C331.988 402.438 316.261 405.22 296.645 409.09C271.414 414.089 245.745 418.142 219.92 418.029Z" fill="url(#paint0_linear_281_9)"/>
<path opacity="0.87" d="M532.673 579.612C546.413 579.612 557.551 578.764 557.551 577.719C557.551 576.674 546.413 575.827 532.673 575.827C518.934 575.827 507.796 576.674 507.796 577.719C507.796 578.764 518.934 579.612 532.673 579.612Z" fill="black"/>
<path d="M535.827 506.285C535.827 506.285 514.528 491.837 528.204 470.822C541.88 449.82 538.472 442.519 533.678 436.601C545.303 449.821 542.757 464.876 535.827 474.423C528.897 483.97 527.794 496.977 535.827 506.285Z" fill="white"/>
<path d="M553.209 524.221H512.138L516.141 576.152H549.206L553.209 524.221Z" fill="#FEFEFE"/>
<path d="M557.551 521.566H507.796V527.653H557.551V521.566Z" fill="#CB7BFF"/>
<path d="M547.778 516.086H517.555C514.557 516.086 512.124 518.515 512.124 521.509V521.566H553.195V521.509C553.209 518.515 550.776 516.086 547.778 516.086Z" fill="#CB7BFF"/>
<path d="M550.932 553.795L551.908 541.225H513.453L514.415 553.795H550.932Z" fill="#00EBB2"/>
<g style="mix-blend-mode:multiply">
<path d="M553.209 521.566V521.509C553.209 518.515 550.776 516.086 547.778 516.086H532.815C535.813 516.086 538.246 518.515 538.246 521.509V521.566H542.587V527.653H537.977L534.229 576.152H549.192L552.94 527.653H557.551V521.566H553.209Z" fill="#AFAFAF"/>
</g>
<path d="M332.68 198.641C332.68 198.641 341.293 171.68 328.706 163.856C320.716 159.746 316.346 164.859 316.346 164.859C316.346 164.859 308.977 156.837 290.068 161.286C273.253 165.24 279.758 180.295 280.48 186.877C288.852 194.037 281.172 205.067 281.172 205.067L332.68 198.641Z" fill="#2F2F35"/>
<path opacity="0.87" d="M409.009 550.942C409.009 550.942 455.652 552.34 468.663 564.345C482.354 576.957 496.708 596.672 437.79 596.291C378.857 595.91 326.627 579.711 277.198 584.851C227.769 589.992 187.222 598.847 175.399 596.884C163.589 594.921 247.796 554.628 247.796 554.628L404.144 560.362L409.009 550.942Z" fill="black"/>
<path d="M365.379 446.191L306.587 440.287L247.796 446.191C247.796 446.191 244.302 473.929 232.946 488.73C306.587 515.14 306.587 515.14 306.587 515.14C306.587 515.14 306.587 515.14 380.228 488.73C368.872 473.929 365.379 446.191 365.379 446.191Z" fill="#A87D1D"/>
<path d="M247.456 448.451C247.456 448.451 309.317 475.694 369.07 463.859C366.383 454.17 365.379 446.191 365.379 446.191L306.587 440.287L259.364 445.019L247.456 448.451Z" fill="#895436"/>
<path d="M280.48 186.877C281.95 190.521 281.172 205.067 281.172 205.067L292.119 203.697C303.363 193.712 316.049 181.058 314.21 176.299C310.985 167.952 309.02 159.506 298.978 159.93C275.332 160.947 276.52 173.827 280.48 186.877Z" fill="#515159"/>
<path d="M304.452 246.194L255.843 263.89L247.796 446.191C247.796 446.191 264.979 454.227 306.587 454.227C306.587 264.737 306.587 249.018 306.587 249.018L304.452 246.194Z" fill="white"/>
<path d="M308.723 246.194L357.331 263.89L365.379 446.191C365.379 446.191 348.195 454.227 306.587 454.227C306.587 264.737 306.587 249.018 306.587 249.018L308.723 246.194Z" fill="white"/>
<path d="M255.843 263.876L255.617 263.961C241.417 269.031 230.075 279.92 224.46 293.887L172.287 419.993L216.653 425.275L254.216 333.361L255.843 263.876Z" fill="#FF7E6E"/>
<path d="M357.331 263.876L357.558 263.961C371.757 269.031 383.099 279.92 388.714 293.887L440.887 419.993L396.521 425.275L358.958 333.361L357.331 263.876Z" fill="#FF7E6E"/>
<path d="M408.967 342.866L388.714 293.902C383.099 279.934 371.757 269.031 357.558 263.975L357.331 263.89L358.972 333.361L369.607 359.404C383.807 347.513 398.063 343.657 408.967 342.866Z" fill="#E8E8E8"/>
<path d="M204.193 342.866L224.446 293.902C230.061 279.934 241.417 269.031 255.602 263.975L255.829 263.89L254.188 333.361L243.553 359.404C229.368 347.513 215.112 343.657 204.193 342.866Z" fill="#E8E8E8"/>
<path d="M360.499 335.762C360.499 335.762 359.184 333.926 357.331 330.466L358.972 333.361C358.972 333.361 340.473 435.867 291.044 453.831C295.796 454.086 300.958 454.241 306.587 454.241C348.195 454.241 365.379 446.205 365.379 446.205L360.499 335.762Z" fill="#D3D3D3"/>
<path opacity="0.52" d="M232.946 322.331C245.49 287.207 246.183 287.476 273.564 281.05C300.944 274.609 295.57 249.428 295.57 249.428L270.042 258.721L266.096 260.161L255.857 263.89L255.631 263.975C241.431 269.045 230.089 279.934 224.474 293.902L174.465 414.781C195.566 399.246 222.268 352.244 232.946 322.331Z" fill="#FFF6E7"/>
<path opacity="0.28" d="M380.228 322.331C367.684 287.207 366.991 287.476 339.61 281.05C312.23 274.609 317.604 249.428 317.604 249.428L343.132 258.721L347.078 260.161L357.317 263.89L357.543 263.975C371.743 269.045 383.085 279.934 388.7 293.902L438.709 414.781C417.608 399.246 390.906 352.244 380.228 322.331Z" fill="#4C2A29"/>
<path d="M306.714 268.678H306.446C299.261 268.678 293.434 262.859 293.434 255.684V224.67H319.712V255.684C319.726 262.859 313.899 268.678 306.714 268.678Z" fill="#FF7E6E"/>
<path d="M319.514 248.595C319.584 248.595 319.655 248.581 319.726 248.581V224.67H307.464L293.448 229.726C293.448 229.726 298.653 248.595 319.514 248.595Z" fill="#4C2A29"/>
<path d="M337.15 206.028C337.15 210.688 333.373 214.459 328.706 214.459C324.039 214.459 320.263 210.688 320.263 206.028C320.263 201.367 324.039 197.596 328.706 197.596C333.373 197.61 337.15 201.381 337.15 206.028Z" fill="#C64F4F"/>
<path d="M330.361 214.29C331.577 209.403 332.299 203.161 332.68 198.627C331.492 197.992 330.149 197.596 328.706 197.596C324.039 197.596 320.263 201.367 320.263 206.028C320.263 210.688 324.039 214.459 328.706 214.459C329.286 214.459 329.824 214.403 330.361 214.29Z" fill="#803D3D"/>
<path d="M276.01 206.028C276.01 210.688 279.786 214.459 284.454 214.459C289.121 214.459 292.897 210.688 292.897 206.028C292.897 201.367 289.121 197.596 284.454 197.596C279.801 197.61 276.01 201.381 276.01 206.028Z" fill="#C64F4F"/>
<path d="M282.813 214.29C281.597 209.403 280.876 203.161 280.494 198.627C281.682 197.992 283.025 197.596 284.468 197.596C289.135 197.596 292.911 201.367 292.911 206.028C292.911 210.688 289.135 214.459 284.468 214.459C283.888 214.459 283.35 214.403 282.813 214.29Z" fill="#803D3D"/>
<path d="M321.437 176.567H306.587H291.737L284.383 192.611L285.613 208.485C286.278 216.959 291.751 231.576 299.459 235.178C301.75 236.251 304.183 236.957 306.573 236.957C308.977 236.957 311.396 236.251 313.687 235.178C321.395 231.59 326.882 216.959 327.533 208.485L328.763 192.611L321.437 176.567Z" fill="#FF7E6E"/>
<path d="M314.21 196.692C314.21 196.692 319.188 198.091 324.831 196.692" stroke="#2F2F35" stroke-width="1.3362" stroke-miterlimit="10" stroke-linecap="round"/>
<path d="M312.598 187.569C312.598 187.569 319.881 186.354 324.251 188.882" stroke="#2F2F35" stroke-width="2.6723" stroke-miterlimit="10" stroke-linecap="round"/>
<path d="M298.964 196.692C298.964 196.692 293.986 198.091 288.343 196.692" stroke="#2F2F35" stroke-width="1.3362" stroke-miterlimit="10" stroke-linecap="round"/>
<path d="M300.576 187.569C300.576 187.569 293.293 186.354 288.923 188.882" stroke="#2F2F35" stroke-width="2.6723" stroke-miterlimit="10" stroke-linecap="round"/>
<g style="mix-blend-mode:overlay" opacity="0.52">
<path d="M294.75 210.533C293.774 194.489 291.737 176.567 291.737 176.567L284.383 192.611L284.779 197.653C284.666 197.653 284.567 197.624 284.454 197.624C279.787 197.624 276.01 201.395 276.01 206.056C276.01 210.717 279.787 214.487 284.454 214.487C285.189 214.487 285.896 214.36 286.575 214.191C288.569 222.382 293.293 232.325 299.459 235.192C301.75 236.265 304.183 236.971 306.573 236.971C306.587 236.943 295.725 226.563 294.75 210.533Z" fill="#FFF6E7"/>
</g>
<path d="M357.33 517.497L189.356 466.611C167.053 459.861 143.59 472.967 137.707 495.479L137.481 496.326C131.413 519.531 146.475 542.961 170.122 547.099C232.223 557.945 344.799 576.376 404.044 578.636L429.02 595.259C432.796 597.773 437.802 597.349 441.098 594.256L441.225 594.129C445.157 590.457 445.355 584.285 441.677 580.359L437.788 576.207C437.788 576.207 434.309 559.315 417.168 552.084C400.027 544.839 398.415 527.157 394.384 517.497C390.353 507.837 364.571 503.021 357.33 517.497Z" fill="#8C4242"/>
<path d="M137.694 495.48C143.592 472.968 167.04 459.848 189.343 466.613L246.311 483.871C237.726 494.562 226.412 516.256 226.072 556.535C205.268 553.159 186.034 549.883 170.123 547.1C146.477 542.976 131.401 519.532 137.482 496.328L137.694 495.48Z" fill="#02DFED"/>
<path opacity="0.28" d="M190.687 530.859C190.687 537.694 189.046 544.149 186.147 549.868C180.518 548.908 175.144 547.976 170.123 547.1C146.477 542.976 131.401 519.532 137.482 496.328L137.708 495.48C138.231 493.461 138.91 491.512 139.716 489.648C142.559 489.04 145.487 488.73 148.513 488.73C171.792 488.73 190.687 507.584 190.687 530.859Z" fill="#666666"/>
<path d="M365.379 540.83C365.379 540.83 362.96 554.882 339.61 549.868" stroke="#7B3C38" stroke-width="1.139" stroke-miterlimit="10"/>
<path opacity="0.28" d="M380.229 534.39C380.229 534.39 344.447 532.78 268.727 519.292C207.39 508.361 189.4 477.022 184.775 465.511C186.303 465.794 187.83 466.147 189.343 466.613L357.317 517.498C364.572 503.022 390.341 507.852 394.371 517.498C398.402 527.144 400.014 544.841 417.155 552.086C434.296 559.331 437.775 576.208 437.775 576.208C437.775 576.208 420.139 564.952 408.995 562.537C397.85 560.122 380.229 534.39 380.229 534.39Z" fill="#666666"/>
<path d="M387.979 577.719C387.979 577.719 418.824 607.194 445.116 595.062C449.486 593.043 450.857 587.464 448.001 583.594C425.853 553.555 397.921 520.831 387.272 508.53C384.613 505.451 380.384 504.209 376.481 505.338L346.187 514.123L387.979 577.719Z" fill="#C1C1C1"/>
<path d="M346.187 514.123L317.18 505.338L339.158 572.875L387.979 577.719L346.187 514.123Z" fill="#A5A5A5"/>
<path d="M255.843 517.498L423.817 466.613C446.12 459.862 469.583 472.968 475.466 495.48L475.692 496.328C481.759 519.532 466.697 542.962 443.051 547.1C380.95 557.947 268.373 576.378 209.129 578.637L184.153 595.26C180.377 597.774 175.37 597.35 172.075 594.257L171.948 594.13C168.016 590.458 167.818 584.286 171.495 580.36L175.385 576.208C175.385 576.208 178.864 559.317 196.005 552.086C213.146 544.841 214.758 527.159 218.789 517.498C222.819 507.852 248.602 503.022 255.843 517.498Z" fill="#FF7E6E"/>
<path d="M475.466 495.48C469.568 472.968 446.12 459.848 423.817 466.613L366.849 483.871C375.434 494.562 386.748 516.256 387.088 556.535C407.892 553.159 427.126 549.883 443.037 547.1C466.697 542.976 481.759 519.532 475.678 496.328L475.466 495.48Z" fill="#02DFED"/>
<path opacity="0.28" d="M422.487 530.859C422.487 537.694 424.128 544.149 427.027 549.868C432.656 548.908 438.03 547.976 443.051 547.1C466.712 542.976 481.774 519.532 475.692 496.328L475.466 495.48C474.943 493.461 474.264 491.512 473.458 489.648C470.615 489.04 467.687 488.73 464.661 488.73C441.368 488.73 422.487 507.584 422.487 530.859Z" fill="#666666"/>
<path opacity="0.28" d="M232.946 534.39C232.946 534.39 268.727 532.78 344.447 519.292C405.785 508.361 423.774 477.022 428.399 465.511C426.871 465.794 425.344 466.147 423.831 466.613L255.843 517.498C248.588 503.022 222.819 507.852 218.789 517.498C214.758 527.144 213.146 544.841 196.005 552.086C178.864 559.331 175.385 576.208 175.385 576.208C175.385 576.208 193.021 564.952 204.165 562.537C215.31 560.122 232.946 534.39 232.946 534.39Z" fill="#666666"/>
<path opacity="0.57" d="M196.019 552.086L170.845 547.425C148.061 543.796 132.617 522.272 136.506 499.562L136.662 498.672C140.904 473.9 166.079 458.591 190.065 466.175L237.613 481.23" stroke="white" stroke-width="1.1139" stroke-miterlimit="10"/>
<path d="M297.946 210.265C297.041 210.265 296.503 211.31 297.069 212.03C299.586 215.264 302.924 217.241 306.601 217.241C310.264 217.241 313.616 215.264 316.133 212.03C316.685 211.324 316.162 210.265 315.257 210.265H297.946Z" fill="white"/>
<path d="M309.076 196.339V205.067C309.076 205.067 307.068 203.937 304.268 205.067" stroke="#2F2F35" stroke-width="0.8212" stroke-miterlimit="10" stroke-linecap="round"/>
<path d="M440.887 419.993L440.972 420.233C446.007 434.158 439.982 449.651 426.843 456.515L337.15 503.474L336.711 502.33C328.805 481.936 337.079 458.859 356.129 448.083L396.521 425.26L440.887 419.993Z" fill="#FF7E6E"/>
<path opacity="0.28" d="M421.95 448.761C421.95 452.066 422.77 455.173 424.227 457.913L426.857 456.529C437.21 451.106 443.121 440.33 442.697 429.187C442.329 429.173 441.976 429.13 441.608 429.13C430.746 429.13 421.95 437.915 421.95 448.761Z" fill="#4C2A29"/>
<path d="M396.521 425.275L421.95 410.883" stroke="#4C2A29" stroke-width="1.3362" stroke-miterlimit="10" stroke-linecap="round"/>
<path d="M172.542 419.993L172.457 420.233C167.422 434.158 173.447 449.651 186.586 456.515L276.279 503.474L276.718 502.33C284.623 481.936 276.35 458.859 257.299 448.083L216.908 425.26L172.542 419.993Z" fill="#FF7E6E"/>
<path opacity="0.28" d="M191.493 448.761C191.493 452.066 190.673 455.173 189.216 457.913L186.586 456.529C176.233 451.106 170.321 440.33 170.746 429.187C171.113 429.173 171.467 429.13 171.835 429.13C182.682 429.13 191.493 437.915 191.493 448.761Z" fill="#4C2A29"/>
<path d="M216.908 425.275L191.493 410.883" stroke="#4C2A29" stroke-width="1.3362" stroke-miterlimit="10" stroke-linecap="round"/>
<path d="M266.323 498.277C266.323 498.277 270.848 473.477 256.112 465.511" stroke="#4C2A29" stroke-width="1.3362" stroke-miterlimit="10" stroke-linecap="round"/>
<path d="M346.852 498.277C346.852 498.277 342.326 473.477 357.063 465.511" stroke="#4C2A29" stroke-width="1.3362" stroke-miterlimit="10" stroke-linecap="round"/>
<path d="M225.195 577.719C225.195 577.719 194.35 607.194 168.059 595.062C163.688 593.043 162.317 587.464 165.173 583.594C187.321 553.555 215.253 520.831 225.903 508.53C228.561 505.451 232.79 504.209 236.693 505.338L266.987 514.123L225.195 577.719Z" fill="white"/>
<path d="M266.973 514.123L295.994 505.338L274.016 572.875L225.195 577.719L266.973 514.123Z" fill="#ECECEC"/>
<path opacity="0.28" d="M254.909 532.497C263.522 531.579 274.695 530.237 288.527 528.288L295.994 505.338L266.987 514.123L254.909 532.497Z" fill="#4C2A29"/>
<path d="M234.445 557.213L217.615 582.832C216.568 584.428 214.701 585.275 212.806 585.021L212.693 585.007C209.044 584.512 207.192 580.36 209.256 577.324L226.468 551.945C227.571 550.32 229.566 549.544 231.475 549.996L231.574 550.024C234.77 550.758 236.241 554.459 234.445 557.213Z" fill="#2F2F35"/>
<path d="M304.268 409.16H201.266L226.666 499.491H304.268H381.883L407.284 409.16H304.268Z" fill="#AFAFAF"/>
<path d="M381.883 499.491H226.666V512.654H381.883V499.491Z" fill="#8B8B8C"/>
<path d="M304.452 474.324C318.363 474.324 329.64 468.557 329.64 461.444C329.64 454.33 318.363 448.564 304.452 448.564C290.54 448.564 279.263 454.33 279.263 461.444C279.263 468.557 290.54 474.324 304.452 474.324Z" fill="#5A5A63"/>
<path d="M407.269 403.158H201.266V409.146H407.269V403.158Z" fill="#5A5A63"/>
<path d="M250.808 503.262H235.265V508.558H250.808V503.262Z" fill="#5A5A63"/>
<path d="M273.238 503.262H257.695V508.558H273.238V503.262Z" fill="#5A5A63"/>
<path d="M381.883 506.073H287.424" stroke="#0F1201" stroke-miterlimit="10"/>
<path opacity="0.54" d="M201.266 409.16L226.666 499.492H281.95C314.776 461.486 334.717 409.16 334.717 409.16L334.646 403.172H201.266V409.16Z" fill="white"/>
<path opacity="0.57" d="M201.266 409.16H407.284" stroke="#0F1201" stroke-miterlimit="10"/>
<path opacity="0.87" d="M94.2474 579.612C114.876 579.612 131.599 578.764 131.599 577.719C131.599 576.674 114.876 575.827 94.2474 575.827C73.619 575.827 56.8964 576.674 56.8964 577.719C56.8964 578.764 73.619 579.612 94.2474 579.612Z" fill="black"/>
<path d="M99.7207 559.147L102.167 556.478L100.937 557.806L102.167 556.478C101.87 556.196 72.3827 526.339 107.994 391.859L104.487 390.941C68.1399 528.246 98.4054 557.947 99.7207 559.147Z" fill="white"/>
<path d="M88.7318 394.19C102.224 406.434 99.8621 420.896 99.8621 420.896C99.8621 420.896 86.3558 415.148 83.2161 397.212C82.6645 394.077 86.3699 392.043 88.7318 394.19Z" fill="white"/>
<path d="M122.476 402.833C104.756 407.084 99.8621 420.896 99.8621 420.896C99.8621 420.896 114.472 422.337 125.857 408.129C127.851 405.643 125.588 402.084 122.476 402.833Z" fill="white"/>
<path d="M79.4965 429.356C94.1484 440.174 93.2575 454.82 93.2575 454.82C93.2575 454.82 79.242 450.456 74.3203 432.929C73.4434 429.865 76.9225 427.464 79.4965 429.356Z" fill="white"/>
<path d="M113.934 434.568C96.7366 440.57 93.2433 454.82 93.2433 454.82C93.2433 454.82 107.924 454.792 117.823 439.511C119.563 436.827 116.947 433.522 113.934 434.568Z" fill="white"/>
<path d="M73.6414 460.201C89.0571 469.918 89.2409 484.577 89.2409 484.577C89.2409 484.577 74.9426 481.259 68.7339 464.141C67.6449 461.147 70.926 458.506 73.6414 460.201Z" fill="white"/>
<path d="M108.376 462.856C91.6593 470.115 89.2409 484.577 89.2409 484.577C89.2409 484.577 103.879 483.462 112.619 467.503C114.146 464.692 111.304 461.585 108.376 462.856Z" fill="white"/>
<path d="M117.625 367.243C117.937 385.433 105.746 393.625 105.746 393.625C105.746 393.625 100.697 379.855 111.629 365.294C113.552 362.752 117.569 364.051 117.625 367.243Z" fill="white"/>
<path d="M112.421 499.52H73.2596V576.886H112.421V499.52Z" fill="#CB7BFF"/>
<path opacity="0.67" d="M112.407 499.52H96.7649V576.886H112.407V499.52Z" fill="#666666"/>
<path d="M129.604 130.554L115.518 134.056C113.467 134.565 111.403 133.322 110.893 131.274L109.536 125.823L131.033 120.484L132.391 125.936C132.9 127.969 131.655 130.045 129.604 130.554Z" fill="#4FB9C1"/>
<path d="M181.975 113.776L60.2482 143.999C58.1409 144.522 55.9912 143.236 55.468 141.132L35.3994 60.5174C34.8761 58.4131 36.1631 56.2664 38.2703 55.7438L159.997 25.5063C162.104 24.9837 164.254 26.2689 164.777 28.3733L184.846 108.974C185.369 111.106 184.082 113.239 181.975 113.776Z" fill="#4FB9C1"/>
<path d="M178.355 99.8361L174.974 109.581L66.966 136.401L57.3772 129.89L37.4925 50.024L158.47 19.97L178.355 99.8361Z" fill="#02DFED"/>
<path d="M96.4228 35.3804L37.4776 50.0173L57.3631 129.877L116.308 115.24L96.4228 35.3804Z" fill="white"/>
<path d="M92.7885 42.2177L44.356 54.2441L45.0522 57.04L93.4847 45.0135L92.7885 42.2177Z" fill="#AFAFAF"/>
<path d="M95.015 51.1491L46.5825 63.1806L47.2789 65.9764L95.7115 53.9449L95.015 51.1491Z" fill="#AFAFAF"/>
<path d="M97.2406 60.0822L48.8081 72.1087L49.5043 74.9045L97.9368 62.878L97.2406 60.0822Z" fill="#AFAFAF"/>
<path d="M99.4617 69.023L51.0292 81.0494L51.7254 83.8453L100.158 71.8188L99.4617 69.023Z" fill="#AFAFAF"/>
<path d="M101.691 77.9537L53.2584 89.9852L53.9548 92.781L102.387 80.7496L101.691 77.9537Z" fill="#AFAFAF"/>
<path d="M103.917 86.9012L55.4848 98.9277L56.1809 101.724L104.613 89.697L103.917 86.9012Z" fill="#AFAFAF"/>
<path d="M106.135 95.8282L57.7023 107.855L58.3984 110.651L106.831 98.6241L106.135 95.8282Z" fill="#AFAFAF"/>
<path d="M108.367 104.758L59.934 116.79L60.6305 119.586L109.063 107.554L108.367 104.758Z" fill="#AFAFAF"/>
<path d="M158.468 19.9583L99.5228 34.6013L119.417 114.461L178.362 99.8176L158.468 19.9583Z" fill="white"/>
<path d="M154.382 26.9114L105.95 38.9429L106.646 41.7387L155.079 29.7073L154.382 26.9114Z" fill="#AFAFAF"/>
<path d="M156.6 35.8674L108.168 47.8939L108.864 50.6897L157.296 38.6633L156.6 35.8674Z" fill="#AFAFAF"/>
<path d="M158.832 44.791L110.399 56.8175L111.095 59.6134L159.528 47.5869L158.832 44.791Z" fill="#AFAFAF"/>
<path d="M161.058 53.716L112.626 65.7475L113.322 68.5433L161.755 56.5119L161.058 53.716Z" fill="#AFAFAF"/>
<path d="M163.287 62.6694L114.855 74.6959L115.551 77.4918L163.983 65.4653L163.287 62.6694Z" fill="#AFAFAF"/>
<path d="M165.505 71.5963L117.072 83.6228L117.768 86.4187L166.201 74.3922L165.505 71.5963Z" fill="#AFAFAF"/>
<path d="M167.734 80.5208L119.302 92.5523L119.998 95.3481L168.431 83.3166L167.734 80.5208Z" fill="#AFAFAF"/>
<path d="M169.96 89.4746L121.528 101.501L122.224 104.297L170.656 92.2704L169.96 89.4746Z" fill="#AFAFAF"/>
<path d="M125.913 125.879L116.593 128.195C114.556 128.704 112.477 127.461 111.968 125.413L111.12 121.995L127.851 117.843L128.699 121.261C129.208 123.309 127.964 125.371 125.913 125.879Z" fill="#CB7BFF"/>
<path d="M332.907 11.0437C328.07 6.45367 321.96 3.31835 315.667 1.22813C315.624 1.21401 315.525 1.18576 315.384 1.14339C309.684 -0.381903 303.674 -0.381903 297.974 1.14339C297.833 1.18576 297.734 1.21401 297.691 1.22813C291.398 3.31835 285.288 6.45367 280.451 11.0437C266.054 24.7148 268.387 49.5291 282.417 62.6212C286.349 66.2932 288.074 71.0386 289.276 76.2641C289.644 77.8318 291.723 94.2569 291.002 94.2569C298.031 94.2569 306.686 94.2569 306.686 94.2569C306.686 94.2569 315.327 94.2569 322.356 94.2569C321.635 94.2569 323.714 77.8318 324.082 76.2641C325.284 71.0386 327.009 66.2932 330.941 62.6212C344.956 49.5291 347.304 24.7148 332.907 11.0437Z" fill="white"/>
<path opacity="0.52" d="M301.043 76.2506C299.841 71.025 298.116 66.2797 294.184 62.6077C280.168 49.5156 277.821 24.7013 292.218 11.0301C297.055 6.44014 303.165 3.30481 309.458 1.21459C309.501 1.20047 309.6 1.17222 309.741 1.12985C310.674 0.875637 311.622 0.692037 312.57 0.52256C307.733 -0.338949 302.754 -0.141225 297.988 1.12985C297.847 1.17222 297.748 1.20047 297.706 1.21459C291.412 3.30481 285.302 6.44014 280.465 11.0301C266.068 24.7013 268.402 49.5156 282.431 62.6077C286.363 66.2797 288.088 71.025 289.291 76.2506C289.658 77.8183 291.737 94.2434 291.016 94.2434C295.061 94.2434 299.615 94.2434 302.783 94.2434C303.49 94.2434 301.397 77.8324 301.043 76.2506Z" fill="#E5E5E5"/>
<path d="M306.672 94.2434V55.9557L313.418 52.0718C315.653 50.7866 315.2 47.4536 312.711 46.7898L300.435 43.5556C298.342 43.0048 298.101 40.1237 300.081 39.2481L306.672 36.2822V23.289" stroke="#00EBB2" stroke-width="2.2387" stroke-miterlimit="10" stroke-linecap="round"/>
<path d="M325.468 99.5113C325.468 100.669 324.52 101.616 323.36 101.616H288.88C287.721 101.616 286.773 100.669 286.773 99.5113C286.773 98.3532 287.721 97.407 288.88 97.407H323.36C324.534 97.407 325.468 98.3532 325.468 99.5113Z" fill="#2F2F35"/>
<path d="M325.468 105.838C325.468 106.997 324.52 107.943 323.36 107.943H288.88C287.721 107.943 286.773 106.997 286.773 105.838C286.773 104.68 287.721 103.734 288.88 103.734H323.36C324.534 103.734 325.468 104.68 325.468 105.838Z" fill="#2F2F35"/>
<path d="M325.468 112.166C325.468 113.324 324.52 114.27 323.36 114.27H288.88C287.721 114.27 286.773 113.324 286.773 112.166C286.773 111.008 287.721 110.061 288.88 110.061H323.36C324.534 110.061 325.468 110.993 325.468 112.166Z" fill="#2F2F35"/>
<path d="M306.12 129.029C312.923 129.029 318.439 123.521 318.439 116.727H293.816C293.816 123.521 299.332 129.029 306.12 129.029Z" fill="#2F2F35"/>
<path d="M451.989 137.107V127.207H447.605C446.77 122.504 444.847 118.196 442.103 114.524L445.582 111.05L438.567 104.045L434.961 107.646C431.27 105.132 426.985 103.438 422.36 102.774V97.6047H412.446V102.971C408.019 103.805 403.946 105.612 400.424 108.169L396.917 104.666L389.902 111.671L393.452 115.216C390.85 118.902 389.082 123.196 388.375 127.856H383.453V137.757H388.488C389.294 142.29 391.133 146.471 393.735 150.044L389.86 153.913L396.875 160.919L400.792 157.006C404.384 159.534 408.556 161.272 413.082 162.02V167.359H422.996V162.02C427.494 161.272 431.652 159.549 435.244 157.035L438.525 160.311L445.54 153.306L442.315 150.086C445.059 146.329 446.94 141.923 447.69 137.121H451.989V137.107ZM418.046 149.281C408.74 149.281 401.188 141.739 401.188 132.446C401.188 123.153 408.74 115.612 418.046 115.612C427.352 115.612 434.904 123.153 434.904 132.446C434.904 141.739 427.352 149.281 418.046 149.281Z" fill="#E8E8E8"/>
<path d="M491.504 174.646V168.94H488.972C488.491 166.229 487.388 163.743 485.804 161.625L487.813 159.619L483.768 155.58L481.689 157.656C479.553 156.201 477.092 155.227 474.419 154.846V151.866H468.706V154.959C466.146 155.439 463.798 156.484 461.776 157.953L459.753 155.933L455.708 159.972L457.759 162.02C456.26 164.153 455.242 166.624 454.832 169.308H451.989V175.013H454.888C455.355 177.626 456.416 180.041 457.915 182.103L455.68 184.335L459.725 188.374L461.988 186.114C464.067 187.569 466.471 188.572 469.073 189.009V192.088H474.787V189.009C477.389 188.572 479.779 187.583 481.858 186.128L483.754 188.021L487.798 183.982L485.946 182.131C487.53 179.956 488.619 177.414 489.043 174.646H491.504ZM471.93 181.665C466.556 181.665 462.2 177.315 462.2 171.949C462.2 166.582 466.556 162.232 471.93 162.232C477.305 162.232 481.66 166.582 481.66 171.949C481.66 177.315 477.305 181.665 471.93 181.665Z" fill="white"/>
<path d="M581.593 100.698V80.3745H572.598C570.901 70.7143 566.941 61.8592 561.298 54.3174L568.44 47.1853L554.043 32.808L546.646 40.1943C539.066 35.0253 530.255 31.5651 520.765 30.1952V19.5746H500.414V30.5906C491.32 32.2995 482.947 36.028 475.735 41.2536L468.536 34.0649L454.139 48.4422L461.436 55.7297C456.104 63.2997 452.47 72.1266 450.999 81.6739H440.887V101.997H451.211C452.88 111.318 456.642 119.877 461.988 127.235L454.04 135.172L468.437 149.549L476.484 141.513C483.867 146.697 492.437 150.27 501.715 151.809V162.783H522.066V151.809C531.302 150.27 539.858 146.725 547.212 141.57L553.944 148.292L568.341 133.915L561.723 127.306C567.351 119.594 571.212 110.527 572.754 100.684H581.593V100.698ZM511.898 125.696C492.777 125.696 477.276 110.217 477.276 91.1222C477.276 72.0278 492.777 56.5489 511.898 56.5489C531.019 56.5489 546.519 72.0278 546.519 91.1222C546.533 110.202 531.033 125.696 511.898 125.696Z" fill="white"/>
<path d="M511.247 111.488C522.471 111.488 531.57 102.401 531.57 91.1928C531.57 79.9842 522.471 70.8979 511.247 70.8979C500.023 70.8979 490.924 79.9842 490.924 91.1928C490.924 102.401 500.023 111.488 511.247 111.488Z" fill="#E8E8E8"/>
<path d="M472.878 233.342L475.862 239.372L482.537 240.333L477.715 245.036L478.846 251.659L472.878 248.538L466.924 251.659L468.055 245.036L463.232 240.333L469.908 239.372L472.878 233.342Z" fill="#E8E8E8"/>
<path d="M558.724 224.91L562.897 233.328L572.203 234.683L565.471 241.237L567.055 250.501L558.724 246.123L550.394 250.501L551.992 241.237L545.26 234.683L554.566 233.328L558.724 224.91Z" fill="white"/>
<path d="M532.673 351.157L534.993 355.86L540.197 356.608L536.435 360.266L537.326 365.435L532.673 363.006L528.021 365.435L528.912 360.266L525.15 356.608L530.354 355.86L532.673 351.157Z" fill="#E8E8E8"/>
<path d="M449.768 319.295L453.926 327.726L463.232 329.082L456.5 335.635L458.084 344.9L449.768 340.522L441.438 344.9L443.022 335.635L436.29 329.082L445.596 327.726L449.768 319.295Z" fill="white"/>
<path d="M529.599 339.204C553.4 329.673 564.958 302.678 555.414 278.909C545.87 255.141 518.837 243.599 495.035 253.13C471.234 262.661 459.676 289.656 469.22 313.424C478.764 337.193 505.797 348.735 529.599 339.204Z" fill="#CB7BFF"/>
<g opacity="0.67">
<path opacity="0.67" d="M499.806 340.818C516.211 345.394 532.999 340.564 544.454 329.576C536.69 331.653 528.303 331.751 520.002 329.449C495.308 322.571 480.868 296.995 487.756 272.336C490.075 264.045 494.502 256.927 500.301 251.377C484.97 255.487 472.128 267.336 467.56 283.705C460.673 308.364 475.112 333.941 499.806 340.818Z" fill="#666666"/>
</g>
<path opacity="0.52" d="M524.768 251.504C522.448 250.854 520.129 250.402 517.824 250.12C516.607 254.456 515.957 259.018 515.957 263.735C515.957 287.871 532.871 308.039 555.514 313.109C556.08 311.654 556.589 310.157 557.013 308.618C563.901 283.959 549.461 258.396 524.768 251.504Z" fill="#FFF6E7"/>
<path d="M466.019 292.348C448.001 285.343 436.8 279.002 437.747 275.626C439.317 270.019 473.882 274.765 514.981 286.204C556.066 297.658 588.099 311.471 586.543 317.078C585.61 320.439 572.811 320.086 553.873 316.795" stroke="white" stroke-width="2" stroke-miterlimit="10"/>
<path opacity="0.6" d="M318.354 208.316C314.875 204.672 298.809 205.562 294.622 208.556C290.436 211.536 285.26 207.553 285.26 207.553C285.26 207.553 287.805 227.043 297.734 234.33C297.734 234.33 307.096 241.124 316.855 233.102C316.855 233.102 326.486 224.331 327.632 207.553C327.632 207.553 321.833 211.959 318.354 208.316ZM317.59 213.753C316.487 219.332 306.248 219.077 306.248 219.077C306.248 219.077 297.309 219.671 295.075 213.753C295.075 213.753 293.166 209.417 298.285 208.655H314.366C314.38 208.655 318.693 208.174 317.59 213.753Z" fill="#2F2F35"/>
<path d="M25.4004 228.159L26.4894 223.47C27.0976 220.843 29.0917 218.781 31.6798 218.103L39.2603 216.097C41.9192 215.391 44.7477 216.267 46.5722 218.343L49.5704 221.761" fill="#02DFED"/>
<path d="M93.5545 210.081L94.8556 205.336C95.591 202.681 97.8114 200.548 100.654 199.799L108.984 197.596C111.898 196.819 114.967 197.624 116.918 199.672L120.115 203.034" fill="#02DFED"/>
<path d="M171.368 302.079C156.221 306.104 116.013 262.478 116.013 262.478L58.5087 277.745C58.5087 277.745 56.062 288.464 52.0596 300.991C51.6211 302.347 51.1544 303.745 50.6877 305.144C49.6836 308.152 48.5804 311.188 47.4207 314.168C46.954 315.369 46.4732 316.583 45.9782 317.755C44.6205 321.018 43.1779 324.125 41.6646 326.935C41.014 328.15 40.3635 329.308 39.6846 330.396C36.6722 335.254 33.4477 338.7 30.1383 339.576C29.7705 339.674 29.3887 339.759 29.0068 339.83C19.4746 341.609 10.1262 333.941 4.72369 320.453C4.15798 319.027 3.62055 317.529 3.1397 315.976C2.09313 312.572 1.25871 308.886 0.735424 304.932C0.537425 303.562 0.395998 302.135 0.282855 300.709C0.0141426 297.39 -0.070714 293.93 0.0707137 290.343C0.127285 289.029 0.212141 287.716 0.311141 286.388C1.81027 268.339 8.76852 247.451 24.1276 226.549L52.6677 218.979L57.8864 225.051L90.3299 216.436L91.8432 208.57L120.383 201C188.382 231.167 196.57 295.384 171.368 302.079Z" fill="white"/>
<g opacity="0.68">
<path opacity="0.35" d="M59.6259 277.448C59.6259 277.448 46.4166 335.24 31.2697 339.265C30.902 339.364 30.5201 339.449 30.1382 339.519L44.9033 281.36L59.6259 277.448Z" fill="#2F2F35"/>
<path opacity="0.35" d="M114.882 262.774C114.882 262.774 155.09 306.401 170.237 302.375C170.604 302.277 170.986 302.164 171.34 302.022L129.619 258.876L114.882 262.774Z" fill="#2F2F35"/>
</g>
<path opacity="0.5" d="M93.0312 239.895L67.2347 246.745C61.7191 248.213 56.062 244.937 54.5911 239.429L53.5728 235.587C52.2717 230.729 55.171 225.729 60.0502 224.444L88.1802 216.973C93.0453 215.674 98.0518 218.569 99.3388 223.441L100.357 227.283C101.828 232.791 98.5468 238.44 93.0312 239.895Z" fill="#9F9FA2"/>
<path d="M30.1948 253.651C31.199 254.315 32.5708 253.961 33.1224 252.874L34.9468 249.244C35.3711 248.411 35.4701 247.451 35.2296 246.547L34.3669 243.299C33.9992 241.9 32.5567 241.067 31.1707 241.448L26.2066 242.762C24.8064 243.129 23.972 244.57 24.3539 245.954L25.2166 249.202C25.457 250.106 26.0227 250.897 26.8006 251.405L30.1948 253.651Z" fill="#00EBB2"/>
<path d="M34.5225 258.1C33.5184 257.436 32.1465 257.789 31.595 258.876L29.7705 262.506C29.3463 263.339 29.2473 264.3 29.4877 265.203L30.3504 268.452C30.7181 269.85 32.1607 270.683 33.5467 270.302L38.5108 268.988C39.9109 268.621 40.7453 267.181 40.3635 265.797L39.5008 262.548C39.2603 261.644 38.6946 260.854 37.9168 260.345L34.5225 258.1Z" fill="#00EBB2"/>
<path d="M42.301 247.889L39.0482 248.75C38.1431 248.99 37.3511 249.555 36.8419 250.332L34.5932 253.721C33.9285 254.724 34.2821 256.094 35.3711 256.645L39.0058 258.467C39.8402 258.89 40.8019 258.989 41.707 258.749L44.9599 257.888C46.36 257.52 47.1944 256.08 46.8126 254.696L45.4973 249.739C45.1296 248.34 43.7012 247.507 42.301 247.889Z" fill="#00EBB2"/>
<path d="M29.3463 255.105L25.7116 253.284C24.8771 252.86 23.9154 252.761 23.0103 253.001L19.7575 253.863C18.3573 254.23 17.5229 255.67 17.9048 257.054L19.22 262.012C19.5877 263.41 21.0303 264.243 22.4163 263.862L25.6691 263C26.5743 262.76 27.3663 262.195 27.8754 261.418L30.1241 258.029C30.7888 257.026 30.4353 255.656 29.3463 255.105Z" fill="#00EBB2"/>
<path d="M130.51 220.419C131.245 223.187 129.604 226.012 126.832 226.746C124.06 227.481 121.232 225.842 120.496 223.074C119.761 220.306 121.402 217.482 124.174 216.747C126.931 216.013 129.774 217.665 130.51 220.419Z" fill="#00EBB2"/>
<path d="M135.177 237.988C135.912 240.756 134.272 243.581 131.5 244.315C128.728 245.05 125.899 243.411 125.164 240.643C124.428 237.875 126.069 235.051 128.841 234.316C131.613 233.582 134.441 235.22 135.177 237.988Z" fill="#00EBB2"/>
<path d="M137.963 233.201C135.191 233.935 132.362 232.297 131.627 229.529C130.891 226.76 132.532 223.936 135.304 223.201C138.076 222.467 140.904 224.105 141.64 226.873C142.375 229.641 140.735 232.466 137.963 233.201Z" fill="#00EBB2"/>
<path d="M120.369 237.875C117.597 238.61 114.769 236.971 114.033 234.203C113.298 231.435 114.938 228.611 117.71 227.876C120.482 227.142 123.311 228.78 124.046 231.548C124.782 234.316 123.141 237.141 120.369 237.875Z" fill="#00EBB2"/>
<path d="M72.4343 275.758C72.9018 267.581 66.6428 260.574 58.4546 260.107C50.2663 259.641 43.2495 265.891 42.782 274.068C42.3145 282.245 48.5734 289.252 56.7617 289.718C64.9499 290.185 71.9668 283.935 72.4343 275.758Z" fill="#4FB9C1"/>
<path d="M66.3862 272.59C67.6732 277.434 64.788 282.391 59.9371 283.676C55.0861 284.962 50.122 282.081 48.835 277.236C47.548 272.392 50.4331 267.435 55.2841 266.15C60.1209 264.864 65.0992 267.746 66.3862 272.59Z" fill="#02DFED"/>
<path d="M129.368 264.545C132.108 256.826 128.063 248.35 120.333 245.614C112.603 242.878 104.116 246.917 101.376 254.636C98.6356 262.355 102.681 270.831 110.41 273.567C118.14 276.303 126.628 272.264 129.368 264.545Z" fill="#4FB9C1"/>
<path d="M124.159 257.252C125.446 262.096 122.561 267.054 117.71 268.339C112.859 269.624 107.895 266.743 106.608 261.899C105.321 257.054 108.206 252.097 113.057 250.812C117.894 249.527 122.872 252.408 124.159 257.252Z" fill="#02DFED"/>
<path opacity="0.42" d="M63.8122 273.268C64.7173 276.686 62.6808 280.202 59.2582 281.106C55.8357 282.01 52.3141 279.976 51.409 276.558C50.5039 273.141 52.5404 269.624 55.963 268.72C59.3855 267.802 62.9071 269.85 63.8122 273.268Z" fill="white"/>
<path opacity="0.42" d="M121.585 257.93C122.491 261.348 120.454 264.864 117.031 265.768C113.609 266.672 110.087 264.639 109.182 261.221C108.277 257.803 110.314 254.286 113.736 253.382C117.159 252.479 120.68 254.512 121.585 257.93Z" fill="white"/>
<path d="M63.1616 258.933L59.8522 259.808C58.6501 260.133 57.4197 259.413 57.1085 258.213L57.052 258.001C56.7267 256.8 57.448 255.571 58.6501 255.261L61.9595 254.385C63.1616 254.06 64.3921 254.781 64.7032 255.981L64.7598 256.193C65.0709 257.379 64.3496 258.608 63.1616 258.933Z" fill="#02DFED"/>
<path d="M105.929 247.578L102.62 248.453C101.418 248.778 100.187 248.058 99.8763 246.858L99.8197 246.646C99.4944 245.445 100.216 244.216 101.418 243.906L104.727 243.03C105.929 242.705 107.16 243.426 107.471 244.626L107.528 244.838C107.839 246.024 107.117 247.253 105.929 247.578Z" fill="#02DFED"/>
<path d="M90.6693 248.835L73.7121 253.34C72.9626 253.538 72.1847 253.086 71.9726 252.337L71.9302 252.196C71.7322 251.448 72.1847 250.671 72.9343 250.459L89.8915 245.954C90.641 245.756 91.4189 246.208 91.631 246.956L91.6735 247.098C91.8715 247.846 91.4189 248.623 90.6693 248.835Z" fill="#02DFED"/>
<path d="M91.7442 252.874L74.787 257.379C74.0374 257.577 73.2596 257.125 73.0474 256.377L73.005 256.235C72.807 255.487 73.2596 254.71 74.0091 254.498L90.9663 249.993C91.7159 249.795 92.4937 250.247 92.7059 250.996L92.7483 251.137C92.9604 251.899 92.5079 252.676 91.7442 252.874Z" fill="#CB7BFF"/>
<path d="M92.819 256.927L75.8618 261.433C75.1123 261.63 74.3344 261.178 74.1223 260.43L74.0799 260.289C73.8819 259.54 74.3344 258.763 75.084 258.551L92.0412 254.046C92.7907 253.848 93.5686 254.3 93.7807 255.049L93.8232 255.19C94.0353 255.953 93.5827 256.715 92.819 256.927Z" fill="#00EBB2"/>
</g>
<defs>
<linearGradient id="paint0_linear_281_9" x1="565.5" y1="279.5" x2="36.7307" y2="212.6" gradientUnits="userSpaceOnUse">
<stop stop-color="#00EBB2"/>
<stop offset="0.432292" stop-color="#02DFED"/>
<stop offset="0.996036" stop-color="#CB7BFF"/>
</linearGradient>
<clipPath id="clip0_281_9">
<rect width="588" height="598" fill="white"/>
</clipPath>
</defs>
</svg>
