<svg width="125" height="125" viewBox="0 0 125 125" fill="none" xmlns="http://www.w3.org/2000/svg">
<path d="M62.2799 124.204C96.6345 124.204 124.484 96.4004 124.484 62.1022C124.484 27.8041 96.6345 0 62.2799 0C27.9253 0 0.0753174 27.8041 0.0753174 62.1022C0.0753174 96.4004 27.9253 124.204 62.2799 124.204Z" fill="#CB7BFF"/>
<path d="M62.2799 102.683L33.1907 113.268L53.7578 105.781C53.7578 105.781 55.687 114.859 51.124 123.283C54.5798 123.886 58.1363 124.204 61.7766 124.204C62.6322 124.204 63.471 124.171 64.3097 124.137C64.3097 108.009 64.3097 105.38 64.3097 105.38L62.2799 102.683Z" fill="white"/>
<path d="M64.3265 105.38C64.3265 105.38 64.3265 108.009 64.3265 124.138C77.982 123.769 88.0307 119.85 96.8548 113.737L66.3732 102.683L64.3265 105.38Z" fill="white"/>
<path d="M33.1907 113.251L29.3322 114.675L28.9128 114.809L33.1907 113.251Z" fill="white"/>
<path d="M53.7746 105.765L33.2075 113.251L28.9297 114.809C35.6064 118.962 43.1052 121.876 51.1576 123.267C55.7038 114.842 53.7746 105.765 53.7746 105.765Z" fill="white"/>
<path d="M89.3056 57.1615C89.3056 57.1615 97.5425 31.3526 85.5143 23.8662C77.8645 19.9471 73.6706 24.8375 73.6706 24.8375C73.6706 24.8375 66.608 17.1501 48.5069 21.4042C32.4189 25.1893 38.6427 39.5927 39.3306 45.9068C47.3326 52.7568 39.9848 63.3249 39.9848 63.3249L89.3056 57.1615Z" fill="#2F2F35"/>
<path d="M39.3306 45.9068C40.7398 49.3904 39.9849 63.3249 39.9849 63.3249L50.4697 62.0185C61.2398 52.4553 73.3854 40.3464 71.624 35.7909C68.5372 27.802 66.6583 19.7126 57.029 20.1313C34.3985 21.086 35.5393 33.4126 39.3306 45.9068Z" fill="#515159"/>
<path d="M64.4439 124.204H64.1923C57.3142 124.204 51.7446 118.644 51.7446 111.777V82.0828H76.9083V111.777C76.9083 118.644 71.322 124.204 64.4439 124.204Z" fill="#FF7E6E"/>
<path d="M76.707 104.978C76.7741 104.978 76.8412 104.978 76.9083 104.961V82.0828H65.1653L51.7446 86.9231C51.7446 86.9231 56.727 104.978 76.707 104.978Z" fill="#4C2A29"/>
<path d="M93.5835 64.246C93.5835 68.701 89.9599 72.3186 85.4976 72.3186C81.0352 72.3186 77.4116 68.701 77.4116 64.246C77.4116 59.791 81.0352 56.1734 85.4976 56.1734C89.9767 56.1734 93.5835 59.791 93.5835 64.246Z" fill="#C64F4F"/>
<path d="M87.0913 72.1512C88.2656 67.4784 88.9366 61.4993 89.3225 57.1615C88.1817 56.5586 86.9067 56.1734 85.5311 56.1734C81.0688 56.1734 77.4452 59.791 77.4452 64.246C77.4452 68.701 81.0688 72.3186 85.5311 72.3186C86.0512 72.3019 86.5712 72.2517 87.0913 72.1512Z" fill="#803D3D"/>
<path d="M35.0527 64.246C35.0527 68.701 38.6763 72.3186 43.1387 72.3186C47.601 72.3186 51.2246 68.701 51.2246 64.246C51.2246 59.791 47.601 56.1734 43.1387 56.1734C38.6763 56.1734 35.0527 59.791 35.0527 64.246Z" fill="#C64F4F"/>
<path d="M41.5617 72.1512C40.3874 67.4784 39.7164 61.4993 39.3306 57.1615C40.4713 56.5586 41.7463 56.1734 43.1219 56.1734C47.5843 56.1734 51.2078 59.791 51.2078 64.246C51.2078 68.701 47.5843 72.3186 43.1219 72.3186C42.6018 72.3019 42.065 72.2517 41.5617 72.1512Z" fill="#803D3D"/>
<path d="M78.5356 36.0253H64.3098H50.0839L43.0381 51.3834L44.2292 66.574C44.8666 74.6801 50.1007 88.6816 57.4988 92.115C59.6964 93.1366 62.0115 93.8233 64.3098 93.8233C66.6081 93.8233 68.9231 93.1366 71.1208 92.115C78.5021 88.6816 83.7529 74.6801 84.3904 66.574L85.5815 51.3834L78.5356 36.0253Z" fill="#FF7E6E"/>
<path d="M76.7406 56.8098C73.6706 56.8098 71.5065 56.2236 71.3723 56.1734C70.8858 56.0394 70.6174 55.537 70.7516 55.068C70.8858 54.5823 71.3723 54.3144 71.8588 54.4483C71.9091 54.4651 76.4889 55.7045 81.572 54.4483C82.0585 54.3311 82.545 54.6158 82.6624 55.1015C82.7798 55.5872 82.4947 56.0729 82.0082 56.1901C80.1125 56.6423 78.3007 56.8098 76.7406 56.8098Z" fill="#2F2F35"/>
<path d="M81.2365 49.6248C80.9345 49.6248 80.6158 49.5411 80.3306 49.3904C77.3613 47.6821 72.1272 48.0673 70.3658 48.352C69.376 48.5195 68.4534 47.8495 68.2856 46.8614C68.1178 45.8732 68.7889 44.9521 69.7786 44.7846C70.0974 44.7344 77.4452 43.5452 82.1424 46.2585C83.0147 46.7609 83.2999 47.8663 82.8134 48.7204C82.4611 49.3066 81.8572 49.6248 81.2365 49.6248Z" fill="#2F2F35"/>
<path d="M51.9124 56.8098C50.3355 56.8098 48.5405 56.6591 46.6448 56.1901C46.1583 56.0729 45.8564 55.5872 45.9906 55.1015C46.108 54.6158 46.5945 54.3311 47.081 54.4483C52.1976 55.7044 56.7439 54.4651 56.7942 54.4483C57.2639 54.3143 57.7672 54.5991 57.9014 55.068C58.0356 55.5537 57.7504 56.0394 57.2807 56.1734C57.1297 56.2069 54.9656 56.8098 51.9124 56.8098Z" fill="#2F2F35"/>
<path d="M47.4165 49.6249C46.7958 49.6249 46.1751 49.3066 45.8396 48.7205C45.3363 47.8496 45.6383 46.7442 46.5106 46.2585C51.2078 43.562 58.5556 44.7344 58.8744 44.7846C59.8641 44.9521 60.5184 45.8733 60.3674 46.8614C60.1996 47.8495 59.2602 48.5027 58.2872 48.352C56.5257 48.0673 51.2917 47.6821 48.3224 49.3904C48.0204 49.5579 47.7185 49.6249 47.4165 49.6249Z" fill="#2F2F35"/>
<g opacity="0.52">
<path opacity="0.52" d="M52.9861 68.5503C52.0634 53.1922 50.1006 36.0421 50.1006 36.0421L43.0548 51.4002L43.4239 56.2236C43.3232 56.2236 43.2226 56.1901 43.1219 56.1901C38.6596 56.1901 35.036 59.8077 35.036 64.2628C35.036 68.7178 38.6596 72.3354 43.1219 72.3354C43.8265 72.3354 44.4975 72.2181 45.1518 72.0507C47.0475 79.9055 51.5937 89.4018 57.4988 92.1652C59.6964 93.1869 62.0114 93.8735 64.3097 93.8735C64.3265 93.8233 53.9255 83.8916 52.9861 68.5503Z" fill="#FFF6E7"/>
</g>
<path d="M56.0561 68.2991C55.1837 68.2991 54.6805 69.304 55.2173 69.9906C57.633 73.0891 60.8204 74.9816 64.3433 74.9816C67.8495 74.9816 71.0536 73.0891 73.4693 69.9906C74.0062 69.304 73.4861 68.2991 72.6305 68.2991H56.0561Z" fill="white"/>
<path d="M67.2623 64.2627L66.4403 63.7938C66.3732 63.7603 64.6956 62.8559 62.3302 63.8273C62.0451 63.9445 61.7263 63.8106 61.6089 63.5258C61.4915 63.2411 61.6257 62.9229 61.9108 62.8057C63.7562 62.052 65.2828 62.253 66.1719 62.5042V54.9675C66.1719 54.6661 66.4235 54.4148 66.7255 54.4148C67.0275 54.4148 67.2791 54.6661 67.2791 54.9675V64.2627H67.2623Z" fill="#2F2F35"/>
<g opacity="0.6">
<path opacity="0.6" d="M75.5831 66.4233C72.2447 62.9396 56.8781 63.7938 52.8687 66.641C48.8592 69.5049 43.9104 65.6864 43.9104 65.6864C43.9104 65.6864 46.3429 84.3438 55.8547 91.3111C55.8547 91.3111 64.8298 97.8261 74.1571 90.1387C74.1571 90.1387 83.367 81.7311 84.4742 65.6864C84.4575 65.6864 78.9215 69.9069 75.5831 66.4233ZM74.8617 71.632C73.8048 76.9746 64.0078 76.7234 64.0078 76.7234C64.0078 76.7234 55.4521 77.2928 53.3048 71.632C53.3048 71.632 51.4763 67.4784 56.3916 66.7415H71.7917C71.7917 66.7415 75.9186 66.2893 74.8617 71.632Z" fill="#2F2F35"/>
</g>
</svg>
