<svg width="279" height="513" viewBox="0 0 279 513" fill="none" xmlns="http://www.w3.org/2000/svg">
<path d="M248.049 206.6C248.105 209.855 248.048 213.112 247.857 216.381C245.72 252.166 229.598 293.923 198.974 312.399C172.197 328.541 137.227 335.415 106.839 329.003C78.2637 322.976 54.7873 302.843 45.4072 274.144C34.8618 241.862 46.0176 205.686 31.8823 174.011C11.3174 127.901 25.5458 69.0643 62.0163 35.6275C94.352 5.98597 147.357 -2.18914 188.746 5.98847C209.666 10.1203 229.983 21.7459 240.883 40.7232C249.556 55.8212 251.608 74.2652 249.82 91.7937C248.381 105.882 244.09 118.921 240.618 132.527C237.838 143.429 239.607 152.286 242.039 163.329C245.18 177.533 247.791 191.997 248.049 206.6Z" fill="url(#paint0_linear_167_2)"/>
<g clip-path="url(#clip0_167_2)">
<path d="M208.517 107.942L205.867 116.424L199.111 132.141C196.436 138.289 193.737 144.45 191.037 150.599L164.028 141.327C163.954 141.302 163.818 141.253 163.757 141.24C156.089 138.783 147.891 143.006 145.426 150.685C142.973 158.364 147.189 166.575 154.856 169.044L194.242 181.687L194.526 181.773C201.799 184.107 209.614 180.168 212.067 172.896C214.964 161.747 217.812 150.636 220.623 139.475L224.789 122.696L227.661 111.634C219.045 105.065 213.929 106.893 208.517 107.942Z" fill="white"/>
<path d="M157.125 298.384L139.435 299.89C125.394 301.088 112.931 290.569 111.735 276.506L107.47 226.504C106.274 212.441 116.777 199.959 130.818 198.762L148.508 197.255C162.549 196.058 175.011 206.577 176.207 220.639L180.472 270.642C181.668 284.704 171.165 297.186 157.125 298.384Z" fill="#7EDDEB"/>
<path d="M164.459 329.324C161.402 308.101 156.619 287.087 150.172 266.617L115.311 272.21C120.599 293.384 126.898 316.027 133.925 338.892L164.459 329.324Z" fill="#7EDDEB"/>
<path d="M162.795 140.931C157.248 138.191 151.614 139.561 143.712 140.228C135.157 140.956 126.565 141.104 118.035 142.067C109.862 142.993 101.06 144.574 94.0827 148.771C87.9437 152.463 80.0789 157.722 79.5612 165.538C78.9201 175.427 84.3195 187.057 87.2411 196.329C93.565 216.38 105.103 246.023 109.184 265.086C109.171 265.135 129.055 264.53 130.337 264.432C142.788 263.432 155.473 262.111 167.553 258.839C173.84 257.135 180.214 252.838 180.214 252.838C180.435 243.307 182.297 227.948 182.346 218.405C182.432 202.194 183.419 184.884 179.647 168.686C177.723 160.451 174.679 152.117 168.897 145.771C166.814 143.462 164.817 141.932 162.795 140.931Z" fill="white"/>
<path d="M144.699 300.162C150.493 298.705 155.867 295.594 160.034 291.285L144.699 300.162Z" fill="#5D515D"/>
<path d="M115.237 119.066C116.284 122.14 117.073 125.289 117.628 128.486C118.442 133.277 118.577 138.598 115.717 142.524C118.195 145.092 121.684 146.981 125.222 147.376C128.76 147.759 132.433 146.87 135.404 144.907C136.218 144.376 136.97 143.759 137.734 143.141C138.658 142.388 139.595 141.648 140.52 140.894C135.047 133.931 130.091 126.079 130.042 117.214C127.786 117.115 124.544 116.634 122.3 116.535C121.326 116.498 120.34 116.449 119.379 116.634C117.825 116.918 116.79 119.116 115.237 119.066Z" fill="#FF7E6E"/>
<path d="M89.2012 59.8286C89.1026 59.5446 88.93 59.0384 88.3752 58.2729C88.0054 57.742 87.1179 56.8901 85.9714 56.4457C84.9236 56.0506 84.0977 56.0012 83.1608 56.1123C80.7693 56.458 78.9449 58.2853 78.5257 60.5446C78.5011 60.594 78.4641 60.6681 78.4148 60.7422L77.9833 61.5694C77.6752 62.162 77.33 62.7917 76.9972 63.4213C76.3068 64.6807 75.5918 65.9647 74.8769 67.2487C73.4346 69.8167 71.9553 72.3971 70.476 74.9651C67.5051 80.1136 64.4973 85.2496 61.4771 90.398L52.3795 105.806L43.2327 121.165C41.211 125.313 41.6425 130.449 44.7613 134.24L44.9585 134.474L81.1145 178.341C81.1638 178.403 81.2624 178.526 81.324 178.588C86.0454 184.045 94.2924 184.625 99.741 179.896C105.19 175.168 113.498 160.34 108.777 154.883L68.4174 123.807L71.6348 114.881L77.6628 97.954C79.6598 92.2994 81.6445 86.6448 83.6046 80.9654C84.5784 78.1258 85.5523 75.2738 86.5138 72.3971C86.9946 70.9526 87.463 69.5204 87.9315 68.0389C88.1657 67.2981 88.3999 66.5573 88.6341 65.7671C88.7574 65.3721 88.8683 64.9646 88.9916 64.5078C89.0532 64.2732 89.1272 64.0263 89.2012 63.693C89.2382 63.5201 89.2875 63.3349 89.3491 63.0016L89.3984 62.8658L89.4231 62.6806L89.4601 62.4583L89.4724 62.3349L89.4847 62.1497C89.497 62.0139 89.497 61.9151 89.497 61.6682C89.497 61.557 89.497 61.4459 89.4847 61.3348C89.4724 61.1496 89.4477 60.9397 89.4231 60.7422C89.4107 60.6311 89.3368 60.236 89.2012 59.8286ZM83.0005 67.0265C83.0129 67.0265 83.0129 67.0265 83.0252 67.0265C83.0252 67.0265 83.0129 67.0265 83.0005 67.0265ZM83.3334 67.0758C83.3704 67.0758 83.4197 67.0882 83.4567 67.0882C83.4197 67.0758 83.3827 67.0758 83.3334 67.0758ZM83.6539 67.1005C83.6786 67.1005 83.7155 67.1005 83.7402 67.1005C83.7155 67.1005 83.6909 67.1005 83.6539 67.1005Z" fill="white"/>
<path d="M89.2013 59.8286C89.1027 59.5446 88.9301 59.0384 88.3754 58.2729C88.0056 57.742 87.118 56.8901 85.9715 56.4457C84.9237 56.0506 84.0978 56.0012 83.1609 56.1123C80.7694 56.458 78.945 58.2853 78.5259 60.5446C78.5012 60.594 78.4642 60.6681 78.4149 60.7422L77.9835 61.5694C77.6753 62.162 77.3301 62.7917 76.9973 63.4213C76.3069 64.6807 75.592 65.9647 74.877 67.2487C73.4347 69.8167 71.9554 72.3971 70.4761 74.9651C69.7858 76.1627 69.0955 77.3603 68.3928 78.5579C73.3361 79.8419 78.1191 82.089 82.1378 85.2373C82.6309 83.8174 83.1363 82.3976 83.617 80.9654C84.5909 78.1258 85.5647 75.2738 86.5263 72.3971C87.007 70.9526 87.4755 69.5204 87.9439 68.0389C88.1781 67.2981 88.4124 66.5573 88.6466 65.7671C88.7698 65.3721 88.8808 64.9646 89.0041 64.5078C89.0657 64.2732 89.1397 64.0263 89.2136 63.693C89.2506 63.5201 89.2999 63.3349 89.3616 63.0016L89.3985 62.8658L89.4232 62.6806L89.4602 62.4583L89.4725 62.3349L89.4848 62.1497C89.4972 62.0139 89.4972 61.9151 89.4972 61.6682C89.4972 61.557 89.4972 61.4459 89.4848 61.3348C89.4725 61.1496 89.4479 60.9397 89.4232 60.7422C89.4109 60.6311 89.3369 60.236 89.2013 59.8286Z" fill="#FF7E6E"/>
<path d="M83.3335 67.0758C83.3705 67.0758 83.4198 67.0882 83.4568 67.0882C83.4198 67.0758 83.3828 67.0758 83.3335 67.0758Z" fill="#B3392C"/>
<path d="M78.9449 58.7174C79.0558 54.532 79.1668 50.3466 79.2901 46.1735C79.3517 43.766 79.5859 41.0128 81.4966 39.5436C83.0622 38.3336 85.2811 38.4077 87.0069 37.457C86.9576 36.2101 86.9207 34.9137 87.4384 33.7902C87.9561 32.6543 89.2012 31.7531 90.3969 32.0617C91.605 32.3704 92.2214 33.6667 92.6528 34.8273C93.1952 36.2841 93.6637 37.7534 94.0705 39.2473C95.2909 38.4448 97.4235 39.7164 97.8919 41.0992C98.3727 42.482 97.9782 43.9882 97.5838 45.3957C96.4497 49.47 95.3155 53.5319 94.1814 57.6062C93.9349 58.4705 93.6883 59.3594 93.1829 60.1002C92.7145 60.7916 92.0365 61.3101 91.3831 61.8287C89.4108 63.372 87.4261 64.9276 85.4537 66.4709C85.2688 66.619 85.0592 66.7672 84.825 66.7672C84.5785 66.7672 84.3812 66.5943 84.1963 66.4462C82.0021 64.5078 78.8709 61.6682 78.9449 58.7174Z" fill="#FF7E6E"/>
<path d="M96.2278 58.9643C97.7194 58.1248 99.211 57.0753 99.889 55.5073C100.592 53.9023 100.283 51.9516 99.3096 50.4947C98.3358 49.0379 96.7455 48.0625 95.069 47.581C93.8609 47.2477 92.5666 47.1365 91.4694 46.5316C90.6435 46.0624 89.8792 45.2969 88.93 45.3587C88.0178 45.4081 87.3028 46.2847 87.2042 47.1983C87.1056 48.1119 87.4754 49.0132 87.9931 49.7663C88.893 51.0997 90.2244 52.1368 91.7406 52.6553C89.7436 53.2109 88.1287 54.9888 87.7589 57.0383C87.574 58.0507 87.6973 59.1619 88.289 60.0138C90.1997 62.767 94.1815 60.1249 96.2278 58.9643Z" fill="#FF7E6E"/>
<path d="M219.254 85.0274C219.489 84.8669 219.908 84.5706 220.783 84.2743C221.387 84.0644 222.558 83.9039 223.704 84.2125C224.752 84.4965 225.43 84.941 226.096 85.5583C227.785 87.2003 228.155 89.6696 227.205 91.682C227.205 91.7314 227.193 91.8179 227.181 91.9043L227.045 92.7932C226.947 93.4352 226.86 94.1266 226.762 94.818C226.577 96.2008 226.404 97.6206 226.244 99.0404C225.911 101.88 225.603 104.744 225.295 107.609C225.159 108.942 225.011 110.276 224.876 111.609C220.277 109.782 215.248 108.819 210.305 108.992C210.724 107.596 211.143 106.201 211.574 104.794C212.425 102.004 213.288 99.2133 214.175 96.423C214.619 95.0279 215.075 93.6204 215.544 92.2006C215.778 91.4845 216.025 90.7684 216.283 90.0153C216.419 89.6326 216.555 89.2498 216.715 88.8177C216.801 88.5955 216.887 88.3732 217.011 88.0522C217.072 87.8917 217.146 87.7189 217.282 87.4226L217.344 87.2991L217.418 87.1386L217.516 86.9411L217.578 86.8299L217.664 86.6818C217.738 86.5707 217.787 86.4966 217.923 86.2867C217.985 86.2003 218.046 86.1139 218.12 86.0398C218.231 85.904 218.367 85.7435 218.502 85.62C218.626 85.5336 218.909 85.262 219.254 85.0274Z" fill="#FF7E6E"/>
<path d="M227.92 90.0153C230.213 86.6694 232.506 83.3236 234.799 79.9777C236.118 78.0517 237.511 75.7676 236.845 73.5206C236.303 71.681 234.528 70.4711 233.714 68.7302C234.454 67.7796 235.23 66.7919 235.464 65.6066C235.711 64.4214 235.243 63.0016 234.121 62.5571C232.999 62.1126 231.766 62.767 230.768 63.4337C229.523 64.2609 228.302 65.1498 227.131 66.0881C226.638 64.7671 224.234 64.5448 223.076 65.3597C221.917 66.1622 221.362 67.582 220.857 68.9031C219.427 72.7428 217.997 76.5825 216.567 80.4099C216.259 81.2247 215.95 82.0643 215.926 82.9408C215.901 83.7557 216.123 84.5459 216.345 85.3237C217.011 87.6695 217.689 90.0029 218.354 92.3487C218.416 92.571 218.49 92.8056 218.675 92.9414C218.86 93.0772 219.118 93.0648 219.353 93.0401C222.237 92.8056 226.305 92.3734 227.92 90.0153Z" fill="#FF7E6E"/>
<path d="M219.525 71.6687C221.757 73.2367 224.666 73.4095 227.39 73.1996C228.29 73.1255 229.326 73.0638 229.979 73.6811C230.078 73.7675 230.152 73.8787 230.176 74.0021C230.201 74.1256 230.152 74.2367 230.115 74.3602C229.523 75.817 228.056 76.7924 226.515 77.0887C224.974 77.385 223.372 77.0887 221.892 76.5825C222.607 79.1505 221.399 82.447 219.193 83.9409" stroke="#2D1A14" stroke-width="0.347" stroke-miterlimit="10" stroke-linecap="round" stroke-linejoin="round"/>
<path d="M224.69 73.3478C226.281 71.7675 227.513 69.8167 228.253 67.6932" stroke="#2D1A14" stroke-width="0.347" stroke-miterlimit="10" stroke-linecap="round" stroke-linejoin="round"/>
<path d="M234.885 77.8665C233.529 78.6814 231.877 79.0147 230.3 78.7802C229.313 78.632 228.389 78.274 227.452 77.9283C226.774 77.669 225.393 77.4097 224.715 77.1505C225.837 77.669 226.712 78.6814 227.07 79.8666C227.427 81.0519 227.267 82.3853 226.638 83.4471" stroke="#2D1A14" stroke-width="0.347" stroke-miterlimit="10" stroke-linecap="round" stroke-linejoin="round"/>
<path d="M88.0056 170.785C91.7531 177.798 96.9182 184.057 103.107 189.045" stroke="#2F2F35" stroke-width="1.0878" stroke-miterlimit="10" stroke-linecap="round" stroke-linejoin="round"/>
<path d="M177.576 162.254C178.069 170.995 174.777 179.884 168.7 186.181" stroke="#2F2F35" stroke-width="1.0878" stroke-miterlimit="10" stroke-linecap="round" stroke-linejoin="round"/>
<path d="M60.3308 90.5709C65.9767 93.855 72.4609 95.6452 78.982 95.744" stroke="#2F2F35" stroke-width="1.0878" stroke-miterlimit="10" stroke-linecap="round" stroke-linejoin="round"/>
<path d="M203.586 124.029C210.588 125.264 217.689 125.918 224.789 125.992" stroke="#2F2F35" stroke-width="1.0878" stroke-miterlimit="10" stroke-linecap="round" stroke-linejoin="round"/>
<path d="M84.7756 58.6063C86.2919 55.7666 89.4477 53.8776 92.6651 53.8776C90.7174 52.2109 88.9423 50.3342 87.389 48.2847C86.5015 47.1118 85.6632 45.6056 86.2426 44.2598C86.7973 42.9758 88.4862 42.5314 89.8298 42.9141C91.1735 43.3092 92.2213 44.3216 93.1952 45.3216C94.169 46.3217 95.1429 47.3835 96.4373 47.9144" stroke="#2D1A14" stroke-width="0.347" stroke-miterlimit="10" stroke-linecap="round" stroke-linejoin="round"/>
<path d="M135.663 101.596C135.663 101.596 137.007 84.6446 128.612 81.7803C123.385 80.4716 121.536 84.052 121.536 84.052C121.536 84.052 116.136 80.3605 105.72 85.5459C96.4498 90.1511 102.083 100.67 105.905 109.238C111.76 112.288 106.497 112.374 106.497 112.374L135.663 101.596Z" fill="#2F2F35"/>
<path d="M139.275 105.312C139.904 108.041 138.215 110.757 135.503 111.399C132.778 112.029 130.066 110.337 129.425 107.621C128.797 104.893 130.485 102.176 133.197 101.534C135.922 100.892 138.646 102.584 139.275 105.312Z" fill="#FF7E6E"/>
<path d="M113.93 111.226C114.559 113.955 112.87 116.671 110.158 117.313C107.433 117.943 104.721 116.251 104.08 113.535C103.452 110.806 105.14 108.09 107.852 107.448C110.577 106.819 113.289 108.51 113.93 111.226Z" fill="#FF7E6E"/>
<path d="M126.085 90.2005L117.418 92.2253L108.752 94.2501L106.657 104.633L109.541 113.757C111.082 118.622 116.272 126.437 121.265 127.486C122.744 127.795 124.26 127.881 125.653 127.56C127.058 127.239 128.365 126.486 129.561 125.548C133.567 122.4 134.775 113.091 133.999 108.041L132.556 98.5836L126.085 90.2005Z" fill="#FF7E6E"/>
<path d="M127.946 103.164C126.085 103.596 124.679 103.547 124.593 103.547C124.285 103.534 124.038 103.263 124.05 102.954C124.063 102.646 124.322 102.399 124.642 102.411C124.667 102.411 127.638 102.522 130.559 101.028C130.843 100.88 131.176 100.991 131.324 101.275C131.472 101.559 131.361 101.892 131.077 102.041C129.98 102.584 128.907 102.942 127.946 103.164Z" fill="#2F2F35"/>
<path d="M129.66 98.1392C129.475 98.1886 129.277 98.1762 129.08 98.1145C127.034 97.4972 123.903 98.4725 122.867 98.9046C122.3 99.1392 121.622 98.8676 121.388 98.2873C121.154 97.7071 121.425 97.0527 122.004 96.8058C122.189 96.7317 126.491 94.9662 129.746 95.9415C130.35 96.1267 130.683 96.7564 130.498 97.349C130.375 97.7564 130.042 98.0528 129.66 98.1392Z" fill="#2F2F35"/>
<path d="M112.82 106.695C111.859 106.917 110.737 107.078 109.529 107.066C109.221 107.066 108.962 106.806 108.974 106.498C108.974 106.189 109.233 105.93 109.554 105.942C112.833 105.991 115.446 104.572 115.471 104.559C115.742 104.411 116.087 104.51 116.235 104.781C116.383 105.053 116.284 105.399 116.013 105.547C115.927 105.584 114.682 106.263 112.82 106.695Z" fill="#2F2F35"/>
<path d="M109.061 102.954C108.678 103.041 108.259 102.93 107.976 102.621C107.544 102.164 107.569 101.448 108.025 101.016C110.503 98.6947 115.15 98.3737 115.347 98.3614C115.976 98.3244 116.506 98.7935 116.543 99.4232C116.58 100.053 116.112 100.584 115.483 100.633C114.361 100.707 111.119 101.226 109.566 102.683C109.418 102.818 109.245 102.905 109.061 102.954Z" fill="#2F2F35"/>
<path d="M116.987 113.128C116.457 113.251 116.297 113.942 116.716 114.276C118.626 115.819 120.845 116.523 122.99 116.029C125.135 115.523 126.812 113.918 127.835 111.683C128.057 111.189 127.613 110.646 127.083 110.769L116.987 113.128Z" fill="white"/>
<path d="M123.237 109.066L122.67 108.893C122.621 108.88 121.474 108.572 120.168 109.498C120.007 109.609 119.798 109.572 119.687 109.411C119.576 109.251 119.613 109.041 119.773 108.93C120.796 108.214 121.745 108.115 122.325 108.14L121.252 103.534C121.203 103.349 121.326 103.164 121.511 103.115C121.696 103.065 121.881 103.189 121.93 103.374L123.237 109.066Z" fill="#2F2F35"/>
<g opacity="0.6">
<path opacity="0.6" d="M128.624 109.201C126.097 107.547 116.852 110.263 114.818 112.572C112.784 114.893 109.221 113.263 109.221 113.263C109.221 113.263 113.363 124.313 120.143 127.227C120.143 127.227 126.528 129.931 131.127 123.906C131.127 123.906 135.552 117.461 133.925 107.485C133.925 107.498 131.151 110.856 128.624 109.201ZM128.92 112.486C129.031 115.893 123.028 117.14 123.028 117.14C123.028 117.14 117.887 118.708 115.791 115.547C115.791 115.547 114.09 113.263 116.975 112.128L126.356 109.93C126.344 109.942 128.797 109.078 128.92 112.486Z" fill="#2F2F35"/>
</g>
<path d="M217.257 406.204C212.314 411.377 211.131 419.785 214.459 426.131C216.715 430.428 220.635 433.564 223.729 437.292C229.769 444.577 232.592 454.454 231.335 463.837L180.657 428.675L203.34 395.883L217.257 406.204Z" fill="#ECECEC"/>
<path d="M223.729 437.292C220.635 433.564 216.702 430.428 214.459 426.131C212.536 422.452 212.117 418.094 213.078 414.057C211.069 414.797 209.084 415.588 207.05 416.23C205.078 416.847 203.007 417.341 200.924 417.242C198.828 417.143 196.917 416.304 195.426 414.822C194.328 413.723 193.54 412.378 192.935 410.933L180.657 428.675L231.335 463.837C232.605 454.441 229.782 444.577 223.729 437.292Z" fill="#2F2F35"/>
<path d="M228.327 465.726L178.993 431.49C177.588 430.514 177.243 428.564 178.204 427.168C179.178 425.761 181.126 425.415 182.519 426.378L231.853 460.615C233.258 461.59 233.603 463.541 232.642 464.936C231.68 466.356 229.732 466.701 228.327 465.726Z" fill="#ECECEC"/>
<path d="M204.092 422.353C203.931 421.452 204.535 420.588 205.423 420.427L218.453 418.057C219.353 417.896 220.216 418.489 220.376 419.39C220.536 420.292 219.945 421.156 219.045 421.316L206.015 423.687C205.127 423.86 204.252 423.255 204.092 422.353Z" fill="#ECECEC"/>
<path d="M206.656 429.341C206.495 428.44 207.087 427.576 207.987 427.415L221.017 425.045C221.917 424.884 222.78 425.489 222.94 426.378C223.1 427.28 222.508 428.144 221.609 428.304L208.579 430.675C207.679 430.835 206.816 430.243 206.656 429.341Z" fill="#ECECEC"/>
<path d="M119.527 452.923C114.583 458.096 113.4 466.504 116.728 472.85C118.984 477.146 122.904 480.282 125.998 484.011C132.039 491.295 134.862 501.172 133.604 510.555L82.9268 475.381L105.609 442.589L119.527 452.923Z" fill="#ECECEC"/>
<path d="M125.998 484.011C122.904 480.282 118.972 477.146 116.728 472.85C114.805 469.171 114.386 464.812 115.348 460.775C113.338 461.516 111.354 462.306 109.32 462.948C107.347 463.565 105.276 464.059 103.193 463.96C101.097 463.862 99.1865 463.022 97.6949 461.541C96.5977 460.442 95.8088 459.096 95.2047 457.651L82.9268 475.393L133.604 510.555C134.874 501.16 132.039 491.295 125.998 484.011Z" fill="#2F2F35"/>
<path d="M130.596 512.444L81.2625 478.208C79.8572 477.233 79.512 475.282 80.4736 473.887C81.4474 472.479 83.3951 472.134 84.7881 473.097L134.134 507.333C135.54 508.308 135.885 510.259 134.923 511.654C133.937 513.074 132.002 513.42 130.596 512.444Z" fill="#ECECEC"/>
<path d="M106.361 469.072C106.201 468.171 106.805 467.306 107.692 467.146L120.722 464.775C121.622 464.615 122.485 465.207 122.645 466.109C122.806 467.01 122.214 467.874 121.314 468.035L108.284 470.405C107.384 470.578 106.521 469.973 106.361 469.072Z" fill="#ECECEC"/>
<path d="M108.913 476.06C108.752 475.159 109.344 474.294 110.244 474.134L123.274 471.763C124.174 471.603 125.037 472.208 125.197 473.097C125.357 473.998 124.766 474.862 123.866 475.023L110.836 477.393C109.948 477.566 109.073 476.961 108.913 476.06Z" fill="#ECECEC"/>
<path d="M178.451 369.338L152.711 285.877C149.95 276.926 140.47 271.914 131.545 274.679C122.608 277.445 117.603 286.939 120.365 295.878L143.749 371.709L98.1631 441.256C105.707 449.935 114.213 457.664 123.237 464.8L176.441 383.648C179.203 379.425 179.942 374.178 178.451 369.338Z" fill="#7EDDEB"/>
<path d="M238.62 300.187L176.602 274.864C167.985 271.346 158.062 275.333 154.437 283.766C150.813 292.199 154.881 301.89 163.498 305.421L212.141 325.274L193.49 398.858C203.648 403.933 214.471 407.439 225.27 411.044L248.495 319.41C250.516 311.483 246.313 303.323 238.62 300.187Z" fill="#7EDDEB"/>
<path d="M141.272 307.965L157.729 367.733C158.567 370.77 158.012 374.017 156.237 376.61L114.3 437.601" stroke="#2F2F35" stroke-width="1.0878" stroke-miterlimit="10" stroke-linecap="round" stroke-linejoin="round"/>
<path d="M172.94 300.779L213.423 316.249C218.379 318.138 221.189 323.41 220.006 328.583L206.138 389.401" stroke="#2F2F35" stroke-width="1.0878" stroke-miterlimit="10" stroke-linecap="round" stroke-linejoin="round"/>
</g>
<path d="M269.493 162L272.43 167.926L279 168.87L274.253 173.491L275.367 180L269.493 176.933L263.633 180L264.747 173.491L260 168.87L266.57 167.926L269.493 162Z" fill="#E8E8E8"/>
<path d="M7.50002 39L9.81203 43.6112L15 44.3452L11.25 47.9317L12.1382 53L7.50002 50.6182L2.86184 53L3.75001 47.9317L0 44.3452L5.18797 43.6112L7.50002 39Z" fill="#E8E8E8"/>
<path d="M54.5071 373L58.674 381.232L68 382.556L61.2535 388.954L62.8409 398L54.5071 393.725L46.1591 398L47.7465 388.954L41 382.556L50.326 381.232L54.5071 373Z" fill="white"/>
<defs>
<linearGradient id="paint0_linear_167_2" x1="54.2573" y1="31.1577" x2="238.246" y2="243.598" gradientUnits="userSpaceOnUse">
<stop stop-color="#00EBB2"/>
<stop offset="0.432292" stop-color="#02DFED"/>
<stop offset="1" stop-color="#CB7BFF"/>
</linearGradient>
<clipPath id="clip0_167_2">
<rect width="207" height="481" fill="white" transform="translate(42 32)"/>
</clipPath>
</defs>
</svg>
