<svg width="348" height="387" viewBox="0 0 348 387" fill="none" xmlns="http://www.w3.org/2000/svg">
<path d="M147.139 258.105V298.7C147.139 320.25 164.769 337.881 186.32 337.881H208.944C230.494 337.881 248.125 320.25 248.125 298.7V258.105H147.139Z" fill="#7EDDEB"/>
<path d="M145.975 107.126C153.368 102.025 161.762 102.813 173.236 102.115C185.675 101.363 198.044 99.7699 210.519 99.3583C222.44 98.9645 235.435 99.3941 246.335 103.94C255.929 107.95 268.351 113.839 270.714 124.936C273.721 138.987 268.387 156.796 266.132 170.722C261.245 200.81 250.917 245.754 249.038 273.981C249.074 274.053 220.382 277.364 218.502 277.489C200.406 278.689 181.899 279.458 163.857 277.292C154.46 276.165 146.459 276.433 146.459 276.433C144.132 262.812 136.185 236.089 134.108 222.396C130.582 199.163 125.535 174.534 127.557 150.514C128.578 138.289 131.227 125.706 138.189 115.378C140.749 111.601 143.291 108.97 145.975 107.126Z" fill="white"/>
<path d="M181.988 564.5C183.438 541.786 197.972 310.978 196.647 288.247L147.192 283.861C147.156 307.023 147.21 537.598 148.177 562.621L181.988 564.5Z" fill="#7EDDEB"/>
<path d="M252.939 563.122C252.993 534.448 249.521 299.791 248.357 273.498L199.135 279.995C198.741 305.555 218.323 537.258 221.419 562.621L252.939 563.122Z" fill="#7EDDEB"/>
<path d="M185.049 339.312C190.741 340.422 196.629 340.368 202.339 339.402C207.44 338.543 212.721 336.896 216.712 333.495C218.001 332.403 216.139 330.578 214.869 331.652C211.235 334.748 206.241 336.108 201.641 336.896C196.415 337.773 190.938 337.827 185.747 336.806C184.1 336.484 183.402 338.99 185.049 339.312Z" fill="#2F2F35"/>
<path d="M151.576 308.705C154.243 307.613 148.641 296.266 148.641 296.266C148.641 296.266 156.875 310.603 159.058 310.119C162.477 309.368 152.847 293.241 152.847 293.241C152.847 293.241 163.766 310.549 166.737 308.097C169.69 305.645 156.928 289.75 156.928 289.75C156.928 289.75 169.851 303.962 172.017 301.438C174.183 298.915 156.803 281.212 156.803 281.212C156.803 281.212 169.279 282.537 169.708 280.013C170.442 275.753 139.87 269.435 139.87 269.435L132.228 280.371C132.21 280.371 148.892 309.797 151.576 308.705Z" fill="#FF7E6E"/>
<path d="M162.996 283.772L146.314 306.951L155.442 316.259C162.638 323.597 174.648 322.917 180.966 314.809L187.106 306.933L162.996 283.772Z" fill="#7EDDEB"/>
<path d="M155.585 321.897C155.245 321.897 154.923 321.735 154.708 321.431L145.437 307.524C145.204 307.166 145.204 306.682 145.454 306.342L162.136 283.163C162.476 282.698 163.121 282.59 163.586 282.93C164.051 283.27 164.159 283.915 163.819 284.38L147.549 306.969L156.427 320.268C156.749 320.751 156.623 321.395 156.14 321.718C155.979 321.843 155.782 321.897 155.585 321.897Z" fill="#2F2F35"/>
<path d="M222.886 99.5193C213.758 95.4383 210.017 70.7376 211.037 60.7858L191.348 76.6264C192.118 83.428 188.431 88.6009 185.137 94.597C183.419 97.7294 181.325 101.005 177.996 102.258C183.473 108.487 192.279 111.1 200.548 110.652C208.818 110.205 218.125 106.303 222.886 99.5193Z" fill="#FF7E6E"/>
<path d="M245.833 320.16C245.6 320.16 245.35 320.071 245.153 319.91C240.427 315.883 235.04 311.104 230.905 305.304C227.791 300.919 224.068 294.01 224.086 285.955C224.086 285.383 224.551 284.917 225.124 284.917C225.696 284.917 226.162 285.383 226.162 285.955C226.144 293.455 229.652 299.952 232.588 304.087C236.579 309.707 241.859 314.379 246.495 318.317C246.943 318.693 246.978 319.355 246.62 319.785C246.424 320.035 246.137 320.16 245.833 320.16Z" fill="#2F2F35"/>
<path d="M162.603 252.717C162.298 252.717 162.012 252.592 161.815 252.341C161.439 251.894 161.493 251.249 161.94 250.873C170.818 243.32 178.676 234.603 185.263 224.974C185.585 224.508 186.229 224.383 186.713 224.705C187.196 225.027 187.303 225.672 186.981 226.155C180.287 235.946 172.322 244.788 163.283 252.466C163.086 252.628 162.835 252.717 162.603 252.717Z" fill="#2F2F35"/>
<path d="M220.238 148.294C220.041 148.294 219.844 148.24 219.665 148.115C219.182 147.793 219.057 147.149 219.379 146.665C224.999 138.307 231.765 130.789 239.48 124.327C239.927 123.952 240.572 124.023 240.947 124.453C241.323 124.9 241.252 125.545 240.822 125.92C233.251 132.257 226.628 139.631 221.115 147.811C220.901 148.133 220.578 148.294 220.238 148.294Z" fill="#2F2F35"/>
<path d="M155.085 106.07C147.586 103.171 136.632 107.681 132.211 112.084C132.121 112.174 116.459 126.779 116.406 126.905L51.5933 197.874L51.4322 198.286C48.9085 204.944 50.6984 212.194 55.4058 216.937L75.1305 233.762L94.8016 250.659C101.353 256.297 107.868 261.971 114.347 267.645C112.844 266.32 111.322 264.996 109.819 263.689C116.012 259.626 121.543 254.328 125.588 248.117C121.578 242.98 117.569 237.843 113.542 232.724L97.3611 212.301L88.7875 201.562L179.16 136.194C183.115 126.493 164.84 109.847 155.085 106.07Z" fill="white"/>
<path d="M125.625 248.135C126.967 249.871 128.309 251.571 129.652 253.308C128.309 251.571 126.967 249.853 125.625 248.135Z" fill="#FF7E6E"/>
<path d="M109.836 263.707C111.339 265.032 112.861 266.338 114.364 267.663C117.604 270.509 120.826 273.355 124.012 276.201C125.605 277.633 127.18 279.047 128.719 280.478C129.489 281.177 130.241 281.892 130.939 282.573L131.905 283.503C131.995 283.593 132.084 283.682 132.156 283.736C133.803 286.636 137.15 288.3 140.604 287.656C141.947 287.37 143.074 286.922 144.327 285.884C145.706 284.738 146.511 283.163 146.78 282.25C147.173 280.926 147.191 280.156 147.191 279.727C147.191 279.1 147.12 278.527 147.084 278.348C147.03 278.062 146.976 277.776 146.905 277.507C146.869 277.346 146.815 277.203 146.762 277.06C146.636 276.702 146.583 276.594 146.511 276.397L146.404 276.165L146.332 275.986L146.189 275.682L146.064 275.449L145.974 275.27C145.723 274.822 145.58 274.608 145.437 274.393C145.169 273.963 144.972 273.659 144.757 273.373C144.363 272.8 144.023 272.299 143.665 271.815C142.985 270.849 142.305 269.936 141.642 269.023C140.318 267.215 138.993 265.461 137.669 263.707C135.02 260.199 132.353 256.744 129.686 253.308C128.344 251.572 126.983 249.871 125.641 248.153C121.56 254.346 116.047 259.644 109.836 263.707ZM136.291 272.281C136.255 272.299 136.219 272.317 136.165 272.334C136.219 272.317 136.255 272.299 136.291 272.281ZM135.915 272.442C135.861 272.46 135.807 272.496 135.736 272.513C135.807 272.496 135.861 272.46 135.915 272.442ZM135.342 272.71C135.324 272.71 135.324 272.728 135.306 272.728C135.324 272.728 135.342 272.728 135.342 272.71Z" fill="#FF7E6E"/>
<path d="M112.145 268.325C112.163 268.325 112.163 268.307 112.181 268.307C112.181 268.325 112.163 268.325 112.145 268.325Z" fill="#B3392C"/>
<path d="M93.1548 250.981C99.3836 243.839 107.474 238.344 116.406 235.176" stroke="#2F2F35" stroke-width="1.0878" stroke-miterlimit="10" stroke-linecap="round" stroke-linejoin="round"/>
<path d="M220.919 45.5358C220.919 45.5358 227.309 21.7301 216.068 15.4296C208.962 12.1899 205.364 16.8078 205.364 16.8078C205.364 16.8078 198.634 10.1136 182.382 14.7495C167.938 18.8662 173.2 35.3512 176.404 48.5786C183.957 54.4674 176.422 53.2145 176.422 53.2145L220.919 45.5358Z" fill="#2F2F35"/>
<path d="M225.106 51.8005C225.285 55.8457 222.17 59.2823 218.107 59.4792C214.062 59.6761 210.626 56.5438 210.429 52.4807C210.232 48.4355 213.364 44.9989 217.427 44.802C221.472 44.623 224.909 47.7375 225.106 51.8005Z" fill="#FF7E6E"/>
<path d="M187.339 53.5545C187.518 57.5997 184.404 61.0363 180.341 61.2332C176.296 61.4122 172.859 58.2977 172.662 54.2347C172.483 50.1895 175.598 46.7529 179.661 46.556C183.724 46.3591 187.16 49.4914 187.339 53.5545Z" fill="#FF7E6E"/>
<path d="M210.249 26.7779L197.344 27.3686L184.439 27.9771L178.693 42.2247L180.412 55.9891C181.325 63.3277 186.676 75.8391 193.532 78.6493C195.572 79.4905 197.702 80.0096 199.778 79.9022C201.855 79.8127 203.949 79.0967 205.882 78.0586C212.433 74.622 216.603 61.681 216.836 54.2708L217.266 40.4169L210.249 26.7779Z" fill="#FF7E6E"/>
<path d="M209.497 45.7505C206.723 45.8758 204.718 45.4284 204.593 45.4105C204.146 45.3031 203.877 44.8735 203.985 44.426C204.092 43.9785 204.522 43.7101 204.969 43.8175C205.005 43.8175 209.211 44.7661 213.775 43.4058C214.205 43.2805 214.67 43.5311 214.796 43.9606C214.921 44.3902 214.67 44.8556 214.241 44.9809C212.558 45.4642 210.929 45.6789 209.497 45.7505Z" fill="#2F2F35"/>
<path d="M213.275 39.0385C212.988 39.0564 212.72 39.0027 212.451 38.8595C209.695 37.4455 204.952 38.0003 203.376 38.3404C202.499 38.5373 201.622 37.9645 201.425 37.0696C201.229 36.1746 201.801 35.3155 202.696 35.1186C202.983 35.0649 209.587 33.6688 213.973 35.9419C214.778 36.3536 215.1 37.356 214.689 38.1614C214.384 38.6805 213.83 39.0027 213.275 39.0385Z" fill="#2F2F35"/>
<path d="M182.2 41.0334C182.486 41.0105 182.744 40.9193 182.99 40.7395C185.518 38.9491 190.292 38.8262 191.899 38.9396C192.795 39.0103 193.582 38.319 193.65 37.4052C193.718 36.4913 193.03 35.722 192.116 35.6539C191.825 35.6414 185.089 35.1953 181.07 38.067C180.331 38.5887 180.154 39.6266 180.676 40.3656C181.051 40.8363 181.645 41.0766 182.2 41.0334Z" fill="#2F2F35"/>
<path d="M186.962 46.7889C185.53 46.8604 183.883 46.7889 182.165 46.4488C181.718 46.3593 181.431 45.9297 181.521 45.4822C181.61 45.0348 182.04 44.7484 182.487 44.8379C187.159 45.7686 191.258 44.4441 191.294 44.4262C191.723 44.283 192.189 44.5157 192.332 44.9453C192.475 45.3748 192.242 45.8402 191.813 45.9834C191.687 46.0371 189.736 46.6636 186.962 46.7889Z" fill="#2F2F35"/>
<path d="M191.204 57.0627C190.417 57.0985 190.005 58.0292 190.506 58.6378C192.833 61.3406 195.804 62.9336 198.99 62.7904C202.176 62.6472 205.004 60.7857 207.063 57.8681C207.51 57.2238 207.009 56.3288 206.222 56.3646L191.204 57.0627Z" fill="white"/>
<path d="M201.21 52.928L200.44 52.5342C200.386 52.4984 198.811 51.7645 196.699 52.7311C196.449 52.8564 196.144 52.7311 196.037 52.4805C195.912 52.2299 196.037 51.9256 196.288 51.8182C197.934 51.0665 199.33 51.1739 200.136 51.3707L199.814 44.5154C199.796 44.229 200.011 43.9963 200.297 43.9963C200.583 43.9784 200.816 44.1932 200.816 44.4796L201.21 52.928Z" fill="#2F2F35"/>
<g opacity="0.6">
<path opacity="0.6" d="M208.854 54.539C205.686 51.5141 191.761 52.9281 188.253 55.7024C184.726 58.4589 180.073 55.2192 180.073 55.2192C180.073 55.2192 183.08 72.08 191.993 78.0225C191.993 78.0225 200.406 83.5533 208.55 76.1968C208.55 76.1968 216.569 68.178 216.873 53.5366C216.891 53.5008 212.023 57.5639 208.854 54.539ZM208.407 59.3001C207.673 64.2045 198.777 64.3835 198.777 64.3835C198.777 64.3835 191.027 65.2605 188.861 60.1951C188.861 60.1951 187.035 56.49 191.457 55.6308L205.436 54.9865C205.418 54.9865 209.141 54.3958 208.407 59.3001Z" fill="#2F2F35"/>
</g>
<path d="M148.802 173.764C151.362 168.591 148.05 162.631 145.795 157.315C142.43 149.386 141.374 140.472 142.824 131.97C140.909 131.236 139.029 133.134 138.027 134.923C135.646 139.148 134.483 144.052 134.733 148.903C132.263 149.511 129.578 148.491 127.126 147.811C124.674 147.131 122.097 146.432 119.609 146.969C117.121 147.506 114.776 149.726 115.062 152.25C115.438 155.704 119.752 156.957 123.206 157.387C120.557 157.118 117.837 159.356 117.192 161.933C116.548 164.511 118.052 167.464 120.539 168.466C116.351 172.225 117.568 178.096 122.347 181.067C124.262 182.266 126.554 182.696 128.773 183.125C138.492 184.951 148.193 186.777 157.913 188.603C157.787 182.034 154.852 176.395 148.802 173.764Z" fill="#FF7E6E"/>
<path d="M217.641 206.466L138.08 183.842C133.176 182.016 130.688 176.575 132.513 171.67C134.214 167.106 139.064 164.618 143.682 165.782L230.206 193.149" fill="#FF7E6E"/>
<path d="M165.753 169.254L178.408 171.312L203.216 170.757C212.935 170.507 222.69 170.238 232.427 169.934L234.682 128.551C234.682 128.444 234.7 128.229 234.718 128.14C235.595 116.487 245.744 107.753 257.396 108.612C269.048 109.489 277.783 119.638 276.924 131.29L272.449 191.18L272.413 191.61C271.59 202.653 266.811 213.411 255.714 212.766L251.848 213.411C235.291 211.245 221.169 208.775 204.648 206.484L178.014 199.396L160.688 195.154C156.517 179.975 161.404 175.966 165.753 169.254Z" fill="white"/>
<path d="M171.106 199.449C173.97 190.804 176.118 181.908 177.514 172.923" stroke="#2F2F35" stroke-width="1.0878" stroke-miterlimit="10" stroke-linecap="round" stroke-linejoin="round"/>
<path d="M334.51 0L338.678 8.4087L348 9.74778L341.265 16.3054L342.845 25.5412L334.51 21.1891L326.195 25.5412L327.775 16.3054L321.04 9.74778L330.363 8.4087L334.51 0Z" fill="#E8E8E8"/>
<path d="M10.6422 140.807L13.9228 147.35L21.2843 148.392L15.9632 153.481L17.2235 160.672L10.6422 157.293L4.06082 160.672L5.32109 153.481L0 148.392L7.36149 147.35L10.6422 140.807Z" fill="#E8E8E8"/>
</svg>
