<svg width="348" height="387" viewBox="0 0 348 387" fill="none" xmlns="http://www.w3.org/2000/svg">
<path d="M147.139 258.105V298.7C147.139 320.25 164.769 337.881 186.32 337.881H208.944C230.494 337.881 248.125 320.25 248.125 298.7V258.105H147.139Z" fill="#7EDDEB"/>
<path d="M145.975 107.126C153.368 102.025 161.762 102.813 173.236 102.115C185.675 101.363 198.044 99.7699 210.519 99.3582C222.44 98.9644 235.435 99.394 246.335 103.94C255.929 107.95 268.351 113.839 270.714 124.936C273.721 138.987 268.387 156.796 266.132 170.722C261.245 200.81 250.917 245.754 249.038 273.981C249.074 274.053 220.382 277.364 218.502 277.489C200.406 278.689 181.899 279.458 163.857 277.292C154.46 276.165 146.459 276.433 146.459 276.433C144.132 262.812 136.185 236.089 134.108 222.396C130.582 199.163 125.535 174.534 127.557 150.514C128.578 138.289 131.227 125.706 138.189 115.378C140.749 111.601 143.291 108.97 145.975 107.126Z" fill="white"/>
<path d="M181.988 564.5C183.438 541.786 197.972 310.978 196.647 288.247L147.192 283.861C147.156 307.023 147.21 537.598 148.177 562.621L181.988 564.5Z" fill="#7EDDEB"/>
<path d="M252.939 563.122C252.993 534.447 249.521 299.791 248.357 273.498L199.135 279.995C198.741 305.555 218.323 537.258 221.419 562.62L252.939 563.122Z" fill="#7EDDEB"/>
<path d="M185.049 339.312C190.741 340.422 196.629 340.368 202.339 339.402C207.44 338.543 212.721 336.896 216.712 333.495C218.001 332.403 216.139 330.578 214.869 331.652C211.235 334.748 206.241 336.108 201.641 336.896C196.415 337.773 190.938 337.827 185.747 336.806C184.1 336.484 183.402 338.99 185.049 339.312Z" fill="#2F2F35"/>
<path d="M151.576 308.705C154.243 307.613 148.641 296.265 148.641 296.265C148.641 296.265 156.875 310.603 159.058 310.119C162.477 309.368 152.847 293.241 152.847 293.241C152.847 293.241 163.766 310.549 166.737 308.097C169.69 305.645 156.928 289.75 156.928 289.75C156.928 289.75 169.851 303.962 172.017 301.438C174.183 298.915 156.803 281.212 156.803 281.212C156.803 281.212 169.279 282.537 169.708 280.013C170.442 275.753 139.87 269.435 139.87 269.435L132.228 280.371C132.21 280.371 148.892 309.797 151.576 308.705Z" fill="#FF7E6E"/>
<path d="M162.996 283.772L146.314 306.951L155.442 316.259C162.638 323.597 174.648 322.917 180.966 314.809L187.106 306.933L162.996 283.772Z" fill="#7EDDEB"/>
<path d="M155.585 321.897C155.245 321.897 154.923 321.735 154.708 321.431L145.437 307.524C145.204 307.166 145.204 306.682 145.454 306.342L162.136 283.163C162.476 282.698 163.121 282.59 163.586 282.93C164.051 283.27 164.159 283.915 163.819 284.38L147.549 306.969L156.427 320.268C156.749 320.751 156.623 321.395 156.14 321.718C155.979 321.843 155.782 321.897 155.585 321.897Z" fill="#2F2F35"/>
<path d="M222.886 99.5193C213.758 95.4383 210.017 70.7376 211.037 60.7858L191.348 76.6264C192.118 83.428 188.431 88.6009 185.137 94.597C183.419 97.7294 181.325 101.005 177.996 102.258C183.473 108.487 192.279 111.1 200.548 110.652C208.818 110.205 218.125 106.303 222.886 99.5193Z" fill="#FF7E6E"/>
<path d="M245.833 320.16C245.6 320.16 245.35 320.071 245.153 319.91C240.427 315.883 235.04 311.104 230.905 305.304C227.791 300.919 224.068 294.01 224.086 285.955C224.086 285.383 224.551 284.917 225.124 284.917C225.696 284.917 226.162 285.383 226.162 285.955C226.144 293.455 229.652 299.952 232.588 304.087C236.579 309.707 241.859 314.379 246.495 318.317C246.943 318.693 246.978 319.355 246.62 319.785C246.424 320.035 246.137 320.16 245.833 320.16Z" fill="#2F2F35"/>
<path d="M162.603 252.717C162.298 252.717 162.012 252.592 161.815 252.341C161.439 251.894 161.493 251.249 161.94 250.873C170.818 243.32 178.676 234.603 185.263 224.974C185.585 224.508 186.229 224.383 186.713 224.705C187.196 225.027 187.303 225.672 186.981 226.155C180.287 235.946 172.322 244.788 163.283 252.466C163.086 252.628 162.835 252.717 162.603 252.717Z" fill="#2F2F35"/>
<path d="M220.238 148.294C220.041 148.294 219.844 148.24 219.665 148.115C219.182 147.793 219.057 147.149 219.379 146.665C224.999 138.307 231.765 130.789 239.48 124.327C239.927 123.952 240.572 124.023 240.947 124.453C241.323 124.9 241.252 125.545 240.822 125.92C233.251 132.257 226.628 139.631 221.115 147.811C220.901 148.133 220.578 148.294 220.238 148.294Z" fill="#2F2F35"/>
<path d="M155.085 106.07C147.586 103.171 136.632 107.681 132.211 112.084C132.121 112.174 116.459 126.779 116.406 126.905L51.5933 197.874L51.4322 198.286C48.9085 204.944 50.6984 212.194 55.4058 216.937L75.1305 233.762L94.8016 250.659C101.353 256.297 107.868 261.971 114.347 267.645C112.844 266.32 111.322 264.996 109.819 263.689C116.012 259.626 121.543 254.328 125.588 248.117C121.578 242.98 117.569 237.843 113.542 232.724L97.3611 212.301L88.7875 201.561L179.16 136.194C183.115 126.493 164.84 109.847 155.085 106.07Z" fill="white"/>
<path d="M125.625 248.135C126.967 249.871 128.309 251.571 129.652 253.308C128.309 251.571 126.967 249.853 125.625 248.135Z" fill="#FF7E6E"/>
<path d="M109.836 263.707C111.339 265.031 112.861 266.338 114.364 267.663C117.604 270.509 120.826 273.355 124.012 276.2C125.605 277.632 127.18 279.046 128.719 280.478C129.489 281.176 130.241 281.892 130.939 282.573L131.905 283.503C131.995 283.593 132.084 283.682 132.156 283.736C133.803 286.636 137.15 288.3 140.604 287.656C141.947 287.369 143.074 286.922 144.327 285.884C145.706 284.738 146.511 283.163 146.78 282.25C147.173 280.926 147.191 280.156 147.191 279.727C147.191 279.1 147.12 278.527 147.084 278.348C147.03 278.062 146.976 277.776 146.905 277.507C146.869 277.346 146.815 277.203 146.762 277.06C146.636 276.702 146.583 276.594 146.511 276.397L146.404 276.165L146.332 275.986L146.189 275.681L146.064 275.449L145.974 275.27C145.723 274.822 145.58 274.607 145.437 274.393C145.169 273.963 144.972 273.659 144.757 273.372C144.363 272.8 144.023 272.298 143.665 271.815C142.985 270.849 142.305 269.936 141.642 269.023C140.318 267.215 138.993 265.461 137.669 263.707C135.02 260.199 132.353 256.744 129.686 253.308C128.344 251.571 126.983 249.871 125.641 248.153C121.56 254.346 116.047 259.644 109.836 263.707ZM136.291 272.281C136.255 272.298 136.219 272.316 136.165 272.334C136.219 272.316 136.255 272.298 136.291 272.281ZM135.915 272.442C135.861 272.46 135.807 272.495 135.736 272.513C135.807 272.495 135.861 272.46 135.915 272.442ZM135.342 272.71C135.324 272.71 135.324 272.728 135.306 272.728C135.324 272.728 135.342 272.728 135.342 272.71Z" fill="#FF7E6E"/>
<path d="M112.145 268.325C112.163 268.325 112.163 268.307 112.181 268.307C112.181 268.325 112.163 268.325 112.145 268.325Z" fill="#B3392C"/>
<path d="M93.1548 250.981C99.3836 243.839 107.474 238.344 116.406 235.176" stroke="#2F2F35" stroke-width="1.0878" stroke-miterlimit="10" stroke-linecap="round" stroke-linejoin="round"/>
<path d="M220.919 45.5358C220.919 45.5358 227.309 21.73 216.068 15.4296C208.962 12.1899 205.364 16.8078 205.364 16.8078C205.364 16.8078 198.634 10.1136 182.382 14.7494C167.938 18.8662 173.2 35.3512 176.404 48.5786C183.957 54.4674 176.422 53.2144 176.422 53.2144L220.919 45.5358Z" fill="#2F2F35"/>
<path d="M225.106 51.8005C225.285 55.8457 222.17 59.2823 218.107 59.4792C214.062 59.6761 210.626 56.5438 210.429 52.4807C210.232 48.4355 213.364 44.9989 217.427 44.802C221.472 44.623 224.909 47.7375 225.106 51.8005Z" fill="#FF7E6E"/>
<path d="M187.339 53.5544C187.518 57.5996 184.404 61.0362 180.341 61.2331C176.296 61.4121 172.859 58.2977 172.662 54.2346C172.483 50.1894 175.598 46.7528 179.661 46.5559C183.724 46.359 187.16 49.4914 187.339 53.5544Z" fill="#FF7E6E"/>
<path d="M210.249 26.7778L197.344 27.3685L184.439 27.9771L178.693 42.2247L180.412 55.989C181.325 63.3276 186.676 75.8391 193.532 78.6492C195.572 79.4905 197.702 80.0095 199.778 79.9021C201.855 79.8126 203.949 79.0967 205.882 78.0585C212.433 74.6219 216.603 61.6809 216.836 54.2707L217.266 40.4169L210.249 26.7778Z" fill="#FF7E6E"/>
<path d="M209.497 45.7505C206.723 45.8758 204.718 45.4283 204.593 45.4104C204.146 45.303 203.877 44.8734 203.985 44.426C204.092 43.9785 204.522 43.71 204.969 43.8174C205.005 43.8174 209.211 44.766 213.775 43.4057C214.205 43.2804 214.67 43.531 214.796 43.9606C214.921 44.3902 214.67 44.8555 214.241 44.9808C212.558 45.4641 210.929 45.6789 209.497 45.7505Z" fill="#2F2F35"/>
<path d="M199.33 59.0221C202.105 58.8968 204.109 59.3443 204.235 59.3622C204.682 59.4696 204.95 59.8992 204.843 60.3466C204.736 60.7941 204.306 61.0626 203.859 60.9552C203.823 60.9552 199.617 60.0065 195.052 61.3669C194.623 61.4922 194.157 61.2416 194.032 60.812C193.907 60.3824 194.157 59.917 194.587 59.7918C196.269 59.3085 197.898 59.0937 199.33 59.0221Z" fill="#2F2F35"/>
<path d="M213.275 39.0384C212.988 39.0563 212.72 39.0026 212.451 38.8594C209.695 37.4454 204.952 38.0003 203.376 38.3403C202.499 38.5372 201.622 37.9645 201.425 37.0695C201.229 36.1746 201.801 35.3154 202.696 35.1185C202.983 35.0648 209.587 33.6687 213.973 35.9419C214.778 36.3536 215.1 37.3559 214.689 38.1614C214.384 38.6804 213.83 39.0026 213.275 39.0384Z" fill="#2F2F35"/>
<path d="M186.962 46.7888C185.53 46.8604 183.883 46.7888 182.165 46.4487C181.718 46.3592 181.431 45.9297 181.521 45.4822C181.61 45.0347 182.04 44.7483 182.487 44.8378C187.159 45.7686 191.258 44.4441 191.294 44.4262C191.723 44.283 192.189 44.5156 192.332 44.9452C192.475 45.3748 192.242 45.8402 191.813 45.9834C191.687 46.0371 189.736 46.6635 186.962 46.7888Z" fill="#2F2F35"/>
<path d="M192.482 35.4438C193.054 35.408 193.609 35.6943 193.949 36.1955C194.433 36.9652 194.218 37.9675 193.448 38.4687C189.296 41.1177 182.583 40.366 182.297 40.3302C181.402 40.2228 180.758 39.3994 180.865 38.5045C180.973 37.6095 181.796 36.9652 182.691 37.0726C184.302 37.2695 189.063 37.3768 191.694 35.7122C191.927 35.5332 192.195 35.4438 192.482 35.4438Z" fill="#2F2F35"/>
<path d="M201.21 52.9279L200.44 52.5341C200.386 52.4983 198.811 51.7645 196.699 52.731C196.449 52.8563 196.144 52.731 196.037 52.4804C195.912 52.2298 196.037 51.9255 196.288 51.8182C197.934 51.0664 199.33 51.1738 200.136 51.3707L199.814 44.5154C199.796 44.229 200.011 43.9963 200.297 43.9963C200.583 43.9784 200.816 44.1932 200.816 44.4796L201.21 52.9279Z" fill="#2F2F35"/>
<g opacity="0.6">
<path opacity="0.6" d="M208.854 54.5389C205.686 51.514 191.761 52.928 188.253 55.7024C184.726 58.4588 180.073 55.2191 180.073 55.2191C180.073 55.2191 183.08 72.08 191.993 78.0224C191.993 78.0224 200.406 83.5532 208.55 76.1967C208.55 76.1967 216.569 68.178 216.873 53.5366C216.891 53.5008 212.023 57.5639 208.854 54.5389ZM208.407 59.3001C207.673 64.2044 198.777 64.3834 198.777 64.3834C198.777 64.3834 191.027 65.2604 188.861 60.195C188.861 60.195 187.035 56.4899 191.457 55.6308L205.436 54.9864C205.418 54.9864 209.141 54.3957 208.407 59.3001Z" fill="#2F2F35"/>
</g>
<path d="M170.934 185.697C172.332 191.297 167.825 196.414 164.488 201.127C159.51 208.156 156.577 216.639 156.181 225.255C154.153 225.564 152.721 223.309 152.124 221.347C150.699 216.712 150.608 211.672 151.887 206.987C149.604 205.865 146.763 206.29 144.222 206.431C141.681 206.573 139.014 206.705 136.698 205.65C134.382 204.595 132.564 201.926 133.382 199.522C134.486 196.227 138.968 195.923 142.435 196.24C139.789 195.937 137.608 193.171 137.528 190.515C137.449 187.86 139.547 185.295 142.192 184.846C138.901 180.281 141.342 174.804 146.645 172.921C148.772 172.157 151.102 172.226 153.362 172.28C163.247 172.569 173.114 172.854 182.999 173.143C181.476 179.534 177.406 184.417 170.934 185.697Z" fill="#FF7E6E"/>
<path d="M173.753 169.254L186.408 171.312L211.216 170.757C220.935 170.507 230.69 170.238 240.427 169.934L242.682 128.551C242.682 128.444 242.7 128.229 242.718 128.14C243.595 116.487 253.744 107.753 265.396 108.612C277.048 109.489 285.783 119.638 284.924 131.29L280.449 191.18L280.413 191.61C279.59 202.653 274.811 213.411 263.714 212.766L259.848 213.411C243.291 211.245 229.169 208.775 212.648 206.484L186.014 199.396L168.688 195.154C164.517 179.975 169.404 175.966 173.753 169.254Z" fill="white"/>
<path d="M179.106 199.449C181.97 190.804 184.118 181.908 185.514 172.923" stroke="#2F2F35" stroke-width="1.0878" stroke-miterlimit="10" stroke-linecap="round" stroke-linejoin="round"/>
<path d="M334.51 0L338.678 8.4087L348 9.74778L341.265 16.3054L342.845 25.5412L334.51 21.1891L326.195 25.5412L327.775 16.3054L321.04 9.74778L330.363 8.4087L334.51 0Z" fill="#E8E8E8"/>
<path d="M10.6422 140.807L13.9228 147.35L21.2843 148.392L15.9632 153.481L17.2235 160.672L10.6422 157.293L4.06082 160.672L5.32109 153.481L0 148.392L7.36149 147.35L10.6422 140.807Z" fill="#E8E8E8"/>
</svg>
