<svg width="84" height="70" viewBox="0 0 84 70" fill="none" xmlns="http://www.w3.org/2000/svg">
<path d="M52.9329 62.066L45.0277 64.0316C43.8769 64.3169 42.7181 63.6194 42.4324 62.4702L41.6704 59.4108L53.7345 56.4148L54.4964 59.4742C54.7822 60.6155 54.0837 61.7806 52.9329 62.066Z" fill="#4FB9C1"/>
<path d="M82.3234 52.65L14.0106 69.6114C12.828 69.9046 11.6216 69.1834 11.3279 68.0024L0.0654512 22.7617C-0.228214 21.5807 0.494042 20.376 1.67664 20.0828L69.9894 3.11352C71.172 2.82027 72.3784 3.54152 72.6721 4.72247L83.9346 49.9553C84.2282 51.1521 83.506 52.3489 82.3234 52.65Z" fill="#4FB9C1"/>
<path d="M80.2912 44.8272L78.3943 50.2961L17.7802 65.3473L12.399 61.6934L1.23975 16.8728L69.1319 0.0065918L80.2912 44.8272Z" fill="#02DFED"/>
<path d="M34.3116 8.65484L1.23169 16.8691L12.3914 61.6859L45.4713 53.4717L34.3116 8.65484Z" fill="white"/>
<path d="M32.272 12.4919L5.0918 19.2411L5.48249 20.8102L32.6627 14.0609L32.272 12.4919Z" fill="#AFAFAF"/>
<path d="M33.5215 17.5042L6.34131 24.2562L6.73217 25.8253L33.9124 19.0732L33.5215 17.5042Z" fill="#AFAFAF"/>
<path d="M34.7708 22.5174L7.59058 29.2667L7.98127 30.8357L35.1615 24.0865L34.7708 22.5174Z" fill="#AFAFAF"/>
<path d="M36.0171 27.535L8.83691 34.2842L9.22761 35.8532L36.4078 29.104L36.0171 27.535Z" fill="#AFAFAF"/>
<path d="M37.2681 32.5469L10.0879 39.2989L10.4787 40.8679L37.659 34.1159L37.2681 32.5469Z" fill="#AFAFAF"/>
<path d="M38.5176 37.5682L11.3374 44.3174L11.7281 45.8864L38.9083 39.1372L38.5176 37.5682Z" fill="#AFAFAF"/>
<path d="M39.762 42.578L12.5818 49.3273L12.9725 50.8963L40.1527 44.147L39.762 42.578Z" fill="#AFAFAF"/>
<path d="M41.0144 47.5897L13.8342 54.3417L14.2251 55.9107L41.4053 49.1587L41.0144 47.5897Z" fill="#AFAFAF"/>
<path d="M69.1314 -2.49033e-06L36.0515 8.21762L47.2158 53.0345L80.2958 44.8169L69.1314 -2.49033e-06Z" fill="white"/>
<path d="M66.8384 3.90208L39.6582 10.6541L40.0491 12.2231L67.2293 5.47109L66.8384 3.90208Z" fill="#AFAFAF"/>
<path d="M68.083 8.92816L40.9028 15.6774L41.2935 17.2464L68.4737 10.4972L68.083 8.92816Z" fill="#AFAFAF"/>
<path d="M69.3355 13.9361L42.1553 20.6853L42.546 22.2543L69.7262 15.5051L69.3355 13.9361Z" fill="#AFAFAF"/>
<path d="M70.585 18.9448L43.4048 25.6968L43.7956 27.2658L70.9758 20.5138L70.585 18.9448Z" fill="#AFAFAF"/>
<path d="M71.8357 23.9694L44.6555 30.7186L45.0462 32.2876L72.2264 25.5384L71.8357 23.9694Z" fill="#AFAFAF"/>
<path d="M73.0804 28.9791L45.9001 35.7284L46.2908 37.2974L73.4711 30.5482L73.0804 28.9791Z" fill="#AFAFAF"/>
<path d="M74.3313 33.9875L47.1511 40.7396L47.542 42.3086L74.7222 35.5565L74.3313 33.9875Z" fill="#AFAFAF"/>
<path d="M75.5806 39.0124L48.4004 45.7616L48.7911 47.3306L75.9713 40.5814L75.5806 39.0124Z" fill="#AFAFAF"/>
<path d="M50.8616 59.4425L45.6312 60.7423C44.4882 61.0277 43.3215 60.3302 43.0358 59.181L42.5596 57.2629L51.9489 54.9327L52.4251 56.8508C52.7109 58 52.0124 59.1572 50.8616 59.4425Z" fill="#CB7BFF"/>
</svg>
