<svg width="42" height="75" viewBox="0 0 42 75" fill="none" xmlns="http://www.w3.org/2000/svg">
<path d="M36.1504 6.42099C33.339 3.75301 29.7877 1.93058 26.1295 0.715627C26.1048 0.707418 26.0473 0.690999 25.9651 0.666372C22.6522 -0.220217 19.1584 -0.220217 15.8455 0.666372C15.7633 0.690999 15.7058 0.707418 15.6811 0.715627C12.023 1.93058 8.47166 3.75301 5.66022 6.42099C-2.70835 14.3674 -1.35195 28.7909 6.80288 36.4008C9.08821 38.5352 10.0911 41.2935 10.7899 44.3309C11.0036 45.2421 12.212 54.7893 11.7928 54.7893C15.8784 54.7893 20.9094 54.7893 20.9094 54.7893C20.9094 54.7893 25.9322 54.7893 30.0178 54.7893C29.5986 54.7893 30.807 45.2421 31.0207 44.3309C31.7195 41.2935 32.7224 38.5352 35.0077 36.4008C43.1544 28.7909 44.519 14.3674 36.1504 6.42099Z" fill="white"/>
<path opacity="0.52" d="M17.629 44.3224C16.9303 41.285 15.9273 38.5267 13.642 36.3924C5.4954 28.7825 4.13078 14.359 12.4994 6.41252C15.3108 3.74455 18.8621 1.92212 22.5203 0.707161C22.5449 0.698952 22.6025 0.682534 22.6847 0.657906C23.2272 0.510142 23.778 0.403423 24.3288 0.304913C21.5173 -0.195846 18.6237 -0.0809175 15.8534 0.657906C15.7712 0.682534 15.7136 0.698952 15.6889 0.707161C12.0308 1.92212 8.47948 3.74455 5.66804 6.41252C-2.70054 14.359 -1.34414 28.7825 6.8107 36.3924C9.09603 38.5267 10.0989 41.285 10.7977 44.3224C11.0114 45.2336 12.2199 54.7809 11.8006 54.7809C14.1517 54.7809 16.7987 54.7809 18.6401 54.7809C19.0512 54.7809 17.8345 45.2418 17.629 44.3224Z" fill="#E5E5E5"/>
<path d="M20.9013 54.7809V32.5258L24.8226 30.2683C26.1214 29.5213 25.8584 27.5839 24.4115 27.1981L17.2761 25.3182C16.0594 24.998 15.9197 23.3234 17.0705 22.8144L20.9013 21.0905V13.5381" stroke="#00EBB2" stroke-width="2.2387" stroke-miterlimit="10" stroke-linecap="round"/>
<path d="M31.8265 57.8429C31.8265 58.516 31.2757 59.066 30.6016 59.066H10.5598C9.88573 59.066 9.33496 58.516 9.33496 57.8429C9.33496 57.1697 9.88573 56.6197 10.5598 56.6197H30.6016C31.2839 56.6197 31.8265 57.1697 31.8265 57.8429Z" fill="#02DFED"/>
<path d="M31.8265 61.5206C31.8265 62.1937 31.2757 62.7437 30.6016 62.7437H10.5598C9.88573 62.7437 9.33496 62.1937 9.33496 61.5206C9.33496 60.8474 9.88573 60.2974 10.5598 60.2974H30.6016C31.2839 60.2974 31.8265 60.8474 31.8265 61.5206Z" fill="#02DFED"/>
<path d="M31.8265 65.1983C31.8265 65.8714 31.2757 66.4214 30.6016 66.4214H10.5598C9.88573 66.4214 9.33496 65.8714 9.33496 65.1983C9.33496 64.5251 9.88573 63.9751 10.5598 63.9751H30.6016C31.2839 63.9751 31.8265 64.5169 31.8265 65.1983Z" fill="#02DFED"/>
<path d="M20.5806 75C24.5347 75 27.7408 71.7984 27.7408 67.8498H13.4287C13.4287 71.7984 16.6347 75 20.5806 75Z" fill="#02DFED"/>
</svg>
