<svg width="135" height="135" viewBox="0 0 135 135" fill="none" xmlns="http://www.w3.org/2000/svg">
<path d="M67.5 135C104.779 135 135 104.779 135 67.5C135 30.2208 104.779 0 67.5 0C30.2208 0 0 30.2208 0 67.5C0 104.779 30.2208 135 67.5 135Z" fill="url(#paint0_linear_188_660)"/>
<path d="M127.922 92.9171C128.58 82.6474 120.199 81.7269 120.199 81.7269C123.069 69.2335 115.345 67.5 115.345 67.5C114.688 57.8281 106.953 56.3576 106.953 56.3576C107.61 47.5704 97.4602 44.9283 97.4602 44.9283C97.9025 32.3512 87.8481 33.2359 87.8481 33.2359C83.317 30.6177 78.499 33.0207 78.499 33.0207C78.0447 27.3419 67.9424 28.2147 67.9424 28.2147C61.1637 21.8783 53.7513 26.6844 53.7513 26.6844C43.3741 23.1815 39.1778 31.9328 39.1778 31.9328C34.9814 32.8055 34.3239 41.9394 34.3239 41.9394C26.3736 41.8916 29.2428 53.1296 29.2428 53.1296C20.1926 59.466 26.5888 70.1899 26.5888 70.1899C19.9655 73.6929 20.623 84.6201 20.623 84.6201C15.7572 91.3988 22.1772 98.3448 22.1772 98.3448C19.5231 107.479 27.9158 112.082 27.9158 112.082C27.9158 112.082 92.2715 116.122 116.541 113.851C121.658 108.435 125.89 102.183 128.998 95.3082C128.437 93.8377 127.922 92.9171 127.922 92.9171Z" fill="#2F2F35"/>
<path d="M60.2311 84.6559C57.0868 84.6559 54.5284 79.814 54.5284 73.8483C54.5284 69.7117 55.7359 66.0056 57.6846 64.1764L58.0672 64.5829C56.2619 66.2805 55.0903 69.915 55.0903 73.8483C55.0903 79.5032 57.3977 84.094 60.243 84.094C62.8613 84.094 65.1089 80.0292 65.3719 74.8286L65.9338 74.8525C65.6349 80.4476 63.196 84.6559 60.2311 84.6559Z" fill="#83E9B2"/>
<path d="M57.1227 47.9533C57.1586 47.8217 57.2065 47.7021 57.2544 47.5704C57.2185 47.7021 57.1706 47.8217 57.1227 47.9533Z" fill="#AC4E3E"/>
<path d="M57.1108 48.0128C57.1227 47.9889 57.1227 47.9769 57.1347 47.953C57.1227 47.9769 57.1108 47.9889 57.1108 48.0128Z" fill="#332B33"/>
<path d="M116.11 105.279C113.361 96.7428 105.339 90.3706 94.7582 86.4134C93.3116 85.8754 91.7932 85.3494 90.251 85.457C88.6849 85.5765 87.2622 86.3417 85.8514 87.071C86.5448 87.872 87.2861 88.4936 88.111 88.8523C84.9309 93.3834 78.7141 95.9777 73.1907 96.2885C67.6673 96.5874 61.7733 94.8419 58.1269 90.6815C59.1073 90.3109 59.9202 89.6772 60.6376 88.9001C58.8562 88.4817 57.0749 88.0991 55.2577 87.9317C51.1211 87.5492 46.9606 88.2545 42.9556 89.3425C41.1384 89.8326 39.3331 90.4185 37.5876 91.1477C29.6612 92.9171 20.4197 102.29 15.7332 110.802C16.2473 111.412 16.7733 112.022 17.3113 112.62C18.5308 113.971 19.81 115.274 21.137 116.517C21.4479 116.816 21.7587 117.127 22.0815 117.414C27.2343 122.1 33.1163 125.986 39.5363 128.915C48.0605 132.8 57.5292 134.988 67.5119 134.988C68.4803 134.988 69.4367 134.952 70.3931 134.916C71.7321 134.857 73.0711 134.773 74.3982 134.641C91.2433 132.932 106.247 125.029 117.127 113.241C117.88 112.416 118.621 111.591 119.338 110.731C118.525 108.77 117.438 106.929 116.11 105.279Z" fill="white"/>
<path d="M85.8635 87.0709C85.2897 86.4014 84.7636 85.6124 84.2734 84.7038C81.3205 79.2401 79.9815 70.1062 80.101 64.6785C80.0173 64.6546 79.9217 64.6426 79.826 64.6187C79.6348 64.559 79.4435 64.4633 79.2642 64.3677L79.3 64.8339C79.312 64.9176 79.3 65.0013 79.312 65.097C79.5033 68.301 78.3795 71.2898 76.4068 73.5614C74.4461 75.809 71.6486 77.3273 68.4445 77.5903C67.8707 77.6381 67.3088 77.6262 66.7469 77.5903C66.0296 80.34 64.4036 82.8268 62.8973 85.5765C62.2517 86.7481 61.5343 87.9317 60.6257 88.912C59.9204 89.6772 59.1074 90.3228 58.1151 90.6934C61.7735 94.8539 67.6555 96.5993 73.1789 96.3005C78.7022 96.0016 84.919 93.3953 88.0992 88.8642C87.2982 88.4936 86.5569 87.8719 85.8635 87.0709Z" fill="#FF7E6E"/>
<path d="M79.9216 66.6152C79.9216 66.5315 79.9216 66.4598 79.9096 66.3761L79.8738 65.9338C79.7303 65.862 79.5869 65.7784 79.4434 65.6947C78.3674 65.0013 77.6023 63.8416 77.4947 62.4667C77.4229 61.5222 77.662 60.6375 78.1283 59.8963C76.9686 59.3225 75.9405 58.4975 75.1992 57.4216C73.657 55.162 74.5536 52.0297 74.4102 49.4593C74.2309 46.052 70.3334 44.6174 67.6673 46.2792C65.4676 47.6421 63.1721 48.7061 60.5539 48.8854C59.0595 48.9811 57.8879 48.5865 57.0988 48.0246C56.6804 49.3397 56.501 50.7505 56.6206 52.1971L57.8281 67.3326L57.8998 68.1575C58.2704 72.7483 61.4386 76.4784 65.5991 77.7935C66.4359 78.0565 67.3087 78.2119 68.2053 78.2717C68.7314 78.3076 69.2574 78.3195 69.7835 78.2717C72.7603 78.0326 75.3666 76.6099 77.2077 74.5177C79.0489 72.4016 80.1009 69.6041 79.9216 66.6152Z" fill="#FF7E6E"/>
<path d="M85.9838 61.7976C85.7925 59.4542 83.7479 57.7085 81.4045 57.8998C80.6154 57.9596 79.9099 58.2466 79.3002 58.677C78.8339 59.0118 78.4393 59.4183 78.1404 59.9085C77.6741 60.6498 77.435 61.5346 77.5067 62.4791C77.6143 63.8541 78.3795 65.0139 79.4556 65.7074C79.5991 65.7911 79.7425 65.8748 79.886 65.9465C80.0534 66.0302 80.2328 66.1139 80.4121 66.1737C80.4958 66.1976 80.5795 66.2095 80.6632 66.2335C81.1175 66.353 81.5958 66.4128 82.086 66.3769C82.7556 66.3291 83.3653 66.1019 83.9034 65.7911C85.2425 64.978 86.1153 63.4715 85.9838 61.7976Z" fill="#FF7E6E"/>
<path d="M62.9454 58.1391C62.8856 57.9836 62.6943 57.8999 62.5269 57.9478C62.515 57.9478 60.8052 58.3901 58.8802 58.0314C58.7009 57.9956 58.5215 58.0912 58.4737 58.2586C58.4378 58.4141 58.5454 58.5695 58.7367 58.6054C59.4541 58.7369 60.1237 58.7727 60.7215 58.7608C61.8693 58.7369 62.6824 58.5217 62.7302 58.5097C62.8976 58.4499 62.9932 58.2945 62.9454 58.1391Z" fill="#2F2F35"/>
<path d="M71.5532 57.4814C69.6521 57.9357 67.9304 57.577 67.9065 57.5651C67.7271 57.5292 67.5358 57.6248 67.5 57.7803C67.4521 57.9357 67.5597 58.1031 67.751 58.139C67.7989 58.1509 68.6239 58.3183 69.7717 58.2944C70.3576 58.2824 71.0391 58.2107 71.7445 58.0433C71.9238 57.9955 72.0315 57.8401 71.9836 57.6846C71.9119 57.5292 71.7325 57.4335 71.5532 57.4814Z" fill="#2F2F35"/>
<path d="M67.2369 54.8274C67.3087 55.0426 67.5358 55.1742 67.751 55.1024C67.775 55.0905 69.8554 54.4687 72.2108 54.9829C72.426 55.0307 72.6532 54.8872 72.701 54.672C72.7488 54.4448 72.6054 54.2296 72.3782 54.1818C71.5054 53.9905 70.6684 53.9426 69.951 53.9546C68.5402 53.9905 67.5597 54.2894 67.5 54.3133C67.2847 54.3731 67.1652 54.6122 67.2369 54.8274Z" fill="#2F2F35"/>
<path d="M58.2346 55.2699C60.5661 54.6242 62.6705 55.1383 62.6944 55.1503C62.9215 55.2101 63.1487 55.0666 63.1965 54.8514C63.2563 54.6242 63.1129 54.397 62.8976 54.3492C62.8379 54.3372 61.8335 54.0862 60.4227 54.122C59.7053 54.1459 58.8683 54.2296 58.0075 54.4688C57.7803 54.5286 57.6607 54.7557 57.7205 54.9829C57.7922 55.1981 58.0194 55.3296 58.2346 55.2699Z" fill="#2F2F35"/>
<path d="M64.9177 64.4399C64.9536 64.416 65.8144 63.9377 67.0579 64.404C67.2014 64.4638 67.3688 64.3801 67.4285 64.2366C67.4883 64.0812 67.4046 63.9257 67.2611 63.866C66.2927 63.5073 65.5036 63.6268 65.0492 63.7703L64.9416 59.8486C64.9416 59.6932 64.8101 59.5616 64.6427 59.5616C64.4873 59.5616 64.3557 59.6932 64.3677 59.8606L64.4992 64.667L64.9177 64.4399Z" fill="#2F2F35"/>
<path d="M82.7431 85.2179C79.6945 85.2179 77.2078 80.5194 77.2078 74.745C77.2078 68.9706 79.6945 64.2721 82.7431 64.2721C85.7917 64.2721 88.2784 68.9706 88.2784 74.745C88.2784 80.5194 85.7917 85.2179 82.7431 85.2179ZM82.7431 64.834C79.9934 64.834 77.7697 69.2814 77.7697 74.745C77.7697 80.2086 80.0053 84.656 82.7431 84.656C85.4809 84.656 87.7165 80.2086 87.7165 74.745C87.7165 69.2814 85.4928 64.834 82.7431 64.834Z" fill="#83E9B2"/>
<path d="M62.2755 66.6871C62.5625 68.9588 64.4396 70.6925 66.6994 70.6805C68.9592 70.6566 70.7885 68.8751 71.0396 66.6034L62.2755 66.6871Z" fill="white"/>
<defs>
<linearGradient id="paint0_linear_188_660" x1="124.321" y1="20.0391" x2="11.7401" y2="85.1982" gradientUnits="userSpaceOnUse">
<stop stop-color="#00EBB2"/>
<stop offset="0.432292" stop-color="#02DFED"/>
<stop offset="1" stop-color="#CB7BFF"/>
</linearGradient>
</defs>
</svg>
