<svg width="46" height="36" viewBox="0 0 46 36" fill="none" xmlns="http://www.w3.org/2000/svg">
<path d="M22.758 26.5106H22.6747C20.0062 26.5106 17.3192 24.4344 15.3573 22.9184C15.0381 22.672 2.21722 13.2748 0.0213013 11.5576V30.7659C0.0213013 31.8945 0.469628 32.9769 1.26766 33.7749C2.06568 34.5729 3.14804 35.0212 4.27662 35.0212H41.156C42.2846 35.0212 43.367 34.5729 44.165 33.7749C44.963 32.9769 45.4114 31.8945 45.4114 30.7659V11.5603C43.2429 13.2597 30.3936 22.672 30.0745 22.9184C28.1135 24.4344 25.4264 26.5106 22.758 26.5106ZM41.156 0.978699H4.27662C3.14804 0.978699 2.06568 1.42703 1.26766 2.22505C0.469628 3.02308 0.0213013 4.10544 0.0213013 5.23402L0.0213013 6.91841C0.0217345 7.24119 0.0953545 7.55966 0.236623 7.84987C0.377892 8.14009 0.583132 8.39449 0.836904 8.59394C3.54967 10.7127 4.44506 11.4663 16.2092 20.0035C17.6986 21.0851 20.6596 23.7092 22.7163 23.6737C24.7731 23.7092 27.7341 21.0851 29.2234 20.0035C40.9876 11.4663 41.883 10.7216 44.5958 8.59394C44.8503 8.39516 45.056 8.14089 45.1974 7.85053C45.3387 7.56016 45.4119 7.24135 45.4114 6.91841V5.23402C45.4114 4.10544 44.963 3.02308 44.165 2.22505C43.367 1.42703 42.2846 0.978699 41.156 0.978699Z" fill="white" fill-opacity="0.75"/>
</svg>
