<svg width="81" height="70" viewBox="0 0 81 70" fill="none" xmlns="http://www.w3.org/2000/svg">
<path d="M27.8095 47.6905V43.6734H26.0305C25.6919 41.765 24.9115 40.0172 23.7982 38.5272L25.2099 37.1175L22.3635 34.2751L20.9001 35.7364C19.4024 34.7163 17.6636 34.0287 15.787 33.7593V31.6619H11.7642V33.8395C9.96803 34.1777 8.3153 34.9112 6.88638 35.9484L5.46319 34.5272L2.61682 37.3696L4.05723 38.808C3.00132 40.3037 2.28397 42.0458 1.99704 43.937H0V47.9542H2.04296C2.37006 49.7937 3.11608 51.49 4.17199 52.9398L2.59961 54.51L5.44597 57.3524L7.03559 55.765C8.4932 56.7908 10.1861 57.4957 12.0225 57.7994V59.9656H16.0453V57.7994C17.8701 57.4957 19.5573 56.7966 21.0149 55.7765L22.3463 57.106L25.1927 54.2636L23.8842 52.957C24.9975 51.4327 25.7608 49.6447 26.0649 47.6963H27.8095V47.6905ZM14.0367 52.6304C10.2607 52.6304 7.19627 49.5702 7.19627 45.7994C7.19627 42.0287 10.2607 38.9685 14.0367 38.9685C17.8128 38.9685 20.8772 42.0287 20.8772 45.7994C20.8772 49.5702 17.8128 52.6304 14.0367 52.6304Z" fill="#E8E8E8"/>
<path d="M43.8434 62.9226V60.6075H42.8161C42.621 59.5072 42.1734 58.4986 41.5307 57.639L42.3456 56.8252L40.7043 55.1863L39.8607 56.0287C38.9942 55.4384 37.9957 55.043 36.9111 54.8883V53.6791H34.5927V54.9341C33.554 55.129 32.6013 55.553 31.7807 56.149L30.9601 55.3295L29.3188 56.9685L30.1509 57.7994C29.5427 58.6648 29.1295 59.6676 28.963 60.7565H27.8096V63.0716H28.986C29.1754 64.1318 29.6058 65.1118 30.2141 65.9484L29.3074 66.8539L30.9486 68.4929L31.8668 67.5759C32.7104 68.1662 33.686 68.5731 34.7419 68.7507V70H37.0603V68.7507C38.1162 68.5731 39.086 68.1719 39.9296 67.5817L40.6986 68.3496L42.3398 66.7106L41.5881 65.9599C42.2308 65.0774 42.6727 64.0459 42.8448 62.9226H43.8434ZM35.9011 65.7708C33.7204 65.7708 31.9529 64.0057 31.9529 61.8281C31.9529 59.6504 33.7204 57.8854 35.9011 57.8854C38.0818 57.8854 39.8493 59.6504 39.8493 61.8281C39.8493 64.0057 38.0818 65.7708 35.9011 65.7708Z" fill="white"/>
<path d="M80.3985 32.9169V24.6705H76.7487C76.06 20.7507 74.4532 17.1576 72.1635 14.0974L75.0615 11.2034L69.2196 5.36963L66.2183 8.36676C63.1423 6.26934 59.5672 4.86533 55.7165 4.30946V0H47.4586V4.46991C43.7687 5.16332 40.3714 6.67622 37.4447 8.79656L34.5237 5.87966L28.6818 11.7135L31.6429 14.6705C29.4795 17.7421 28.0047 21.3238 27.4078 25.1977H23.3047V33.4441H27.4939C28.1711 37.2264 29.6975 40.6991 31.8668 43.6848L28.6416 46.9054L34.4836 52.7393L37.7489 49.4785C40.7444 51.5817 44.222 53.0315 47.9866 53.6562V58.1089H56.2445V53.6562C59.9918 53.0315 63.4637 51.5931 66.4478 49.5014L69.1794 52.2292L75.0213 46.3954L72.3357 43.7135C74.6196 40.5845 76.1863 36.9054 76.8118 32.9112H80.3985V32.9169ZM52.1184 43.0602C44.3598 43.0602 38.0702 36.7794 38.0702 29.0315C38.0702 21.2837 44.3598 15.0029 52.1184 15.0029C59.8771 15.0029 66.1666 21.2837 66.1666 29.0315C66.1724 36.7736 59.8828 43.0602 52.1184 43.0602Z" fill="white"/>
<path d="M51.8543 37.2951C56.4087 37.2951 60.1008 33.6082 60.1008 29.0602C60.1008 24.5121 56.4087 20.8252 51.8543 20.8252C47.3 20.8252 43.6079 24.5121 43.6079 29.0602C43.6079 33.6082 47.3 37.2951 51.8543 37.2951Z" fill="#E8E8E8"/>
</svg>
