<svg width="40" height="40" viewBox="0 0 40 40" fill="none" xmlns="http://www.w3.org/2000/svg">
<path d="M20 40C31.0457 40 40 31.0457 40 20C40 8.9543 31.0457 0 20 0C8.9543 0 0 8.9543 0 20C0 31.0457 8.9543 40 20 40Z" fill="url(#paint0_linear_15_194)"/>
<path d="M19.7081 16.8978H23.7227V7.26279H31.2044V16.8613H33.9417V23.0657H31.2044V23.4672C31.2044 26.4599 30.3285 28.7591 28.6132 30.3285C26.8979 31.9343 24.3796 32.7007 21.0584 32.7007C20.511 32.7007 20.1095 32.7007 19.8176 32.6642V26.3139C21.2409 26.4234 22.2628 26.2044 22.8468 25.6934C23.4307 25.219 23.7227 24.3066 23.7227 23.0292V23.1022H19.7081V16.8978Z" fill="white"/>
<path d="M20.292 23.1022H16.2774V32.7007H8.79564V23.1022H6.05841V16.8978H8.75914V16.4599C8.75914 13.4672 9.63505 11.1679 11.3504 9.59855C13.0657 8.02921 15.584 7.26279 18.9416 7.26279C19.4891 7.26279 19.8905 7.26279 20.1825 7.29928V13.6496C18.7226 13.5767 17.7372 13.7956 17.1533 14.2701C16.5694 14.781 16.2774 15.6569 16.2774 16.9708V16.8978H20.292V23.1022Z" fill="white"/>
<defs>
<linearGradient id="paint0_linear_15_194" x1="36.8358" y1="5.9375" x2="3.47854" y2="25.2439" gradientUnits="userSpaceOnUse">
<stop stop-color="#00EBB2"/>
<stop offset="0.432292" stop-color="#02DFED"/>
<stop offset="1" stop-color="#CB7BFF"/>
</linearGradient>
</defs>
</svg>
