<svg width="135" height="135" viewBox="0 0 135 135" fill="none" xmlns="http://www.w3.org/2000/svg">
<g clip-path="url(#clip0_286_539)">
<path d="M67.506 135.012C104.789 135.012 135.012 104.789 135.012 67.506C135.012 30.2235 104.789 0 67.506 0C30.2235 0 0 30.2235 0 67.506C0 104.789 30.2235 135.012 67.506 135.012Z" fill="url(#paint0_linear_286_539)"/>
<path d="M67.506 135.012C104.789 135.012 135.012 104.789 135.012 67.506C135.012 30.2235 104.789 0 67.506 0C30.2235 0 0 30.2235 0 67.506C0 104.789 30.2235 135.012 67.506 135.012Z" fill="url(#paint1_linear_286_539)"/>
<path d="M75.2896 55.8126C75.2896 55.8126 75.4689 55.693 75.732 55.5735C75.3015 55.4898 74.8711 55.4061 74.4287 55.3344C74.4526 55.4778 74.4765 55.6213 74.5124 55.7648C74.7635 55.7767 75.0146 55.8246 75.2896 55.8126Z" fill="#2F2F35"/>
<path d="M94.9221 76.4016C92.3873 72.0495 90.546 67.3386 89.3026 62.4604C86.8276 52.7279 80.5863 35.2237 68.2712 37.878C68.2712 37.878 57.7376 36.7182 55.4061 47.5747C53.0746 58.4311 54.342 66.3941 54.5213 90.821C54.5213 90.821 71.4875 109.437 86.433 96.9547L100.099 93.4036L108.6 97.1699C108.612 97.1699 101.104 87.0309 94.9221 76.4016ZM77.2146 74.5125C75.3853 76.6049 72.7668 78.0277 69.7897 78.2668C69.2516 78.3146 68.7256 78.3027 68.2114 78.2668C67.3147 78.207 66.4419 78.0516 65.6049 77.7885C61.4441 76.4733 58.2756 72.7429 57.905 68.1517L57.8332 67.3267L56.8528 55.1072C56.8528 54.9279 56.793 54.3779 56.793 54.3779C59.3876 52.6083 64.7202 48.6388 65.1506 45.6018C65.1506 45.6018 67.231 52.5485 71.8581 54.9876C72.707 55.0833 73.556 55.1909 74.4049 55.3344C74.4049 55.3702 74.4886 55.7648 74.4886 55.7648C74.632 56.3507 74.8353 56.9246 75.194 57.4387C75.9353 58.5267 76.9635 59.3517 78.1233 59.9137C77.657 60.655 77.4179 61.5398 77.4896 62.4843C77.5972 63.8593 78.3624 65.0191 79.4385 65.7126C79.582 65.8082 79.7255 65.8799 79.8689 65.9517L79.9048 66.3941C79.9168 66.4778 79.9048 66.5495 79.9168 66.6332C80.1081 69.6103 79.0559 72.4082 77.2146 74.5125Z" fill="#2F2F35"/>
<path d="M60.2365 84.6635C57.0919 84.6635 54.5333 79.8211 54.5333 73.8549C54.5333 69.718 55.7409 66.0115 57.6898 64.1821L58.0724 64.5886C56.2669 66.2865 55.0952 69.9212 55.0952 73.8549C55.0952 79.5103 57.4028 84.1015 60.2484 84.1015C62.8669 84.1015 65.1147 80.0363 65.3777 74.8353L65.9397 74.8592C65.6408 80.4548 63.2017 84.6635 60.2365 84.6635Z" fill="#83E9B2"/>
<path d="M79.9287 66.6212C79.9287 66.5375 79.9287 66.4658 79.9168 66.3821L79.8809 65.9397C79.7374 65.8679 79.5939 65.7842 79.4505 65.7006C78.3744 65.0071 77.6092 63.8473 77.5016 62.4723C77.4298 61.5278 77.669 60.643 78.1353 59.9017C76.9755 59.3278 75.9472 58.5028 75.2059 57.4267C74.8592 56.9126 74.644 56.3506 74.5005 55.7528C74.4646 55.6093 74.4407 55.4659 74.4168 55.3224C73.5679 55.1789 72.719 55.0713 71.8701 54.9756C67.243 52.5365 65.1625 45.5898 65.1625 45.5898C64.7321 48.6268 59.3876 52.5963 56.805 54.3659L56.8648 55.0952L57.8452 67.3147L57.9169 68.1397C58.2876 72.7309 61.456 76.4613 65.6169 77.7765C66.4538 78.0396 67.3267 78.195 68.2234 78.2548C68.7495 78.2907 69.2755 78.3026 69.8016 78.2548C72.7788 78.0157 75.3853 76.5929 77.2266 74.5005C79.0559 72.4081 80.1081 69.6103 79.9287 66.6212Z" fill="#F9BBB7"/>
<path d="M57.1278 47.9572C57.1637 47.8257 57.2115 47.7061 57.2593 47.5746C57.2235 47.7061 57.1756 47.8257 57.1278 47.9572Z" fill="#AC4E3E"/>
<path d="M57.1158 48.0171C57.1278 47.9931 57.1278 47.9812 57.1398 47.9573C57.1278 47.9812 57.1158 47.9931 57.1158 48.0171Z" fill="#332B33"/>
<path d="M116.121 105.288C113.371 96.7514 105.348 90.3786 94.7667 86.4211C93.3199 85.883 91.8015 85.3569 90.2591 85.4646C88.6928 85.5841 87.27 86.3493 85.8591 87.0787C86.5526 87.8797 87.2939 88.5015 88.1189 88.8602C84.9385 93.3917 78.7211 95.9862 73.1973 96.2971C67.6734 96.596 61.7789 94.8503 58.1322 90.6895C59.1126 90.3189 59.9256 89.6852 60.643 88.908C58.8615 88.4895 57.08 88.1069 55.2626 87.9395C51.1257 87.5569 46.9649 88.2624 42.9595 89.3504C41.1421 89.8406 39.3367 90.4265 37.591 91.1558C29.6639 92.9254 20.4216 102.299 15.7347 110.812C16.2488 111.422 16.7749 112.032 17.3129 112.63C18.5325 113.981 19.8118 115.284 21.139 116.527C21.4499 116.826 21.7607 117.137 22.0835 117.424C27.2368 122.111 33.1193 125.997 39.5399 128.926C48.0649 132.812 57.5343 135 67.518 135C68.4864 135 69.4429 134.964 70.3995 134.928C71.7386 134.868 73.0777 134.785 74.4049 134.653C91.2515 132.944 106.257 125.04 117.137 113.251C117.89 112.426 118.632 111.601 119.349 110.74C118.536 108.78 117.448 106.938 116.121 105.288Z" fill="white"/>
<path d="M85.871 87.0787C85.2971 86.4091 84.771 85.62 84.2808 84.7113C81.3276 79.2472 79.9885 70.1125 80.108 64.6843C80.0243 64.6604 79.9287 64.6484 79.833 64.6245C79.6417 64.5647 79.4504 64.4691 79.2711 64.3734L79.307 64.8397C79.3189 64.9234 79.307 65.0071 79.3189 65.1028C79.5102 68.3071 78.3863 71.2962 76.4135 73.5679C74.4527 75.8157 71.6548 77.3342 68.4505 77.5972C67.8766 77.645 67.3147 77.6331 66.7527 77.5972C66.0353 80.3472 64.4093 82.8341 62.9027 85.5841C62.2571 86.7558 61.5397 87.9395 60.631 88.92C59.9256 89.6852 59.1126 90.3308 58.1202 90.7015C61.7788 94.8623 67.6614 96.6079 73.1853 96.309C78.7091 96.0101 84.9265 93.4036 88.1069 88.8721C87.3058 88.5015 86.5645 87.8797 85.871 87.0787Z" fill="#F9BBB7"/>
<path d="M85.9906 61.8028C85.7993 59.4593 83.7548 57.7137 81.4113 57.905C80.6222 57.9647 79.9168 58.2517 79.307 58.6821C78.8407 59.0169 78.4461 59.4234 78.1472 59.9136C77.6809 60.6549 77.4418 61.5397 77.5135 62.4843C77.6211 63.8593 78.3863 65.019 79.4624 65.7125C79.6059 65.8082 79.7494 65.8799 79.8929 65.9516C80.0602 66.0353 80.2396 66.119 80.4189 66.1788C80.5026 66.2027 80.5863 66.2147 80.67 66.2386C81.1244 66.3582 81.6026 66.4179 82.0928 66.3821C82.7624 66.3342 83.3722 66.1071 83.9102 65.7962C85.2493 64.9832 86.1221 63.4767 85.9906 61.8028Z" fill="#F9BBB7"/>
<path d="M62.9506 58.1441C62.8908 57.9886 62.6995 57.9049 62.5321 57.9528C62.5202 57.9528 60.8104 58.3951 58.8854 58.0365C58.7061 58.0006 58.5267 58.0962 58.4789 58.2636C58.443 58.4191 58.5506 58.5745 58.7419 58.6104C59.4593 58.7419 60.1289 58.7778 60.7267 58.7658C61.8745 58.7419 62.6876 58.5267 62.7354 58.5147C62.9028 58.4549 62.9984 58.2995 62.9506 58.1441Z" fill="#2F2F35"/>
<path d="M71.5592 57.4865C69.6582 57.9408 67.9364 57.5821 67.9125 57.5702C67.7332 57.5343 67.5419 57.63 67.506 57.7854C67.4582 57.9408 67.5658 58.1082 67.7571 58.1441C67.8049 58.1561 68.6299 58.3234 69.7777 58.2995C70.3636 58.2876 71.0451 58.2158 71.7505 58.0484C71.9299 58.0006 72.0375 57.8452 71.9897 57.6898C71.9179 57.5343 71.7386 57.4387 71.5592 57.4865Z" fill="#2F2F35"/>
<path d="M67.2429 54.8322C67.3146 55.0474 67.5418 55.1789 67.757 55.1072C67.7809 55.0952 69.8614 54.4735 72.2168 54.9876C72.432 55.0354 72.6592 54.892 72.707 54.6767C72.7548 54.4496 72.6113 54.2344 72.3842 54.1865C71.5113 53.9952 70.6744 53.9474 69.957 53.9594C68.5461 53.9952 67.5657 54.2941 67.5059 54.3181C67.2907 54.3778 67.1712 54.617 67.2429 54.8322Z" fill="#2F2F35"/>
<path d="M58.2397 55.2746C60.5713 54.629 62.6756 55.1431 62.6995 55.155C62.9267 55.2148 63.1538 55.0714 63.2017 54.8561C63.2615 54.629 63.118 54.4018 62.9028 54.354C62.843 54.342 61.8386 54.0909 60.4278 54.1268C59.7104 54.1507 58.8734 54.2344 58.0126 54.4735C57.7854 54.5333 57.6658 54.7605 57.7256 54.9877C57.7974 55.2029 58.0245 55.3344 58.2397 55.2746Z" fill="#2F2F35"/>
<path d="M64.9234 64.4451C64.9592 64.4212 65.8201 63.9429 67.0636 64.4092C67.2071 64.469 67.3744 64.3853 67.4342 64.2419C67.494 64.0864 67.4103 63.931 67.2668 63.8712C66.2984 63.5125 65.5092 63.6321 65.0549 63.7756L64.9473 59.8539C64.9473 59.6984 64.8158 59.5669 64.6484 59.5669C64.4929 59.5669 64.3614 59.6984 64.3734 59.8658L64.5049 64.6723L64.9234 64.4451Z" fill="#2F2F35"/>
<path d="M82.7504 85.2254C79.7015 85.2254 77.2146 80.5265 77.2146 74.7515C77.2146 68.9766 79.7015 64.2777 82.7504 64.2777C85.7993 64.2777 88.2862 68.9766 88.2862 74.7515C88.2862 80.5265 85.7993 85.2254 82.7504 85.2254ZM82.7504 64.8277C80.0004 64.8277 77.7766 69.2755 77.7766 74.7396C77.7766 80.2037 80.0124 84.6515 82.7504 84.6515C85.5004 84.6515 87.7243 80.2037 87.7243 74.7396C87.7243 69.2875 85.5004 64.8277 82.7504 64.8277Z" fill="#83E9B2"/>
<path d="M62.281 66.6929C62.568 68.9647 64.4451 70.6983 66.7049 70.6864C68.9646 70.6625 70.794 68.881 71.0451 66.6093L62.281 66.6929Z" fill="white"/>
</g>
<defs>
<linearGradient id="paint0_linear_286_539" x1="122.8" y1="106.222" x2="12.2027" y2="28.7808" gradientUnits="userSpaceOnUse">
<stop stop-color="#B67AFA"/>
<stop offset="0.5168" stop-color="#7EDDEB"/>
<stop offset="1" stop-color="#83E9B2"/>
</linearGradient>
<linearGradient id="paint1_linear_286_539" x1="124.332" y1="20.0408" x2="11.7411" y2="85.2058" gradientUnits="userSpaceOnUse">
<stop stop-color="#00EBB2"/>
<stop offset="0.432292" stop-color="#02DFED"/>
<stop offset="1" stop-color="#CB7BFF"/>
</linearGradient>
<clipPath id="clip0_286_539">
<rect width="135" height="135" fill="white"/>
</clipPath>
</defs>
</svg>
