<svg width="135" height="135" viewBox="0 0 135 135" fill="none" xmlns="http://www.w3.org/2000/svg">
<path d="M67.5 135C104.779 135 135 104.779 135 67.5C135 30.2208 104.779 0 67.5 0C30.2208 0 0 30.2208 0 67.5C0 104.779 30.2208 135 67.5 135Z" fill="url(#paint0_linear_188_828)"/>
<path d="M57.5771 88.0513C57.6249 87.9437 57.6847 87.8361 57.7325 87.7405C57.6847 87.8361 57.6369 87.9437 57.5771 88.0513Z" fill="#D57160"/>
<path d="M78.0685 90.4543C77.7577 90.1315 77.4827 89.7848 77.2197 89.4261C77.4827 89.7848 77.7577 90.1196 78.0685 90.4543Z" fill="#D57160"/>
<path d="M74.8884 83.3887C74.9601 83.8071 75.0438 84.2136 75.1275 84.6201C74.6373 82.4801 74.5178 80.1847 74.5895 77.9968C74.6134 77.3512 74.6373 76.7176 74.6851 76.072C73.2266 77.2556 71.505 78.0566 69.6758 78.4153C67.751 78.7978 65.7067 78.6783 63.746 77.9849C63.5666 77.9251 63.3993 77.8534 63.2199 77.7816C62.6222 77.5425 62.0722 77.2317 61.5462 76.9089C61.1397 79.1685 60.4463 81.4041 59.5855 83.58C59.6094 83.5083 59.6453 83.4485 59.6692 83.3767H74.8884V83.3887Z" fill="#D57160"/>
<path d="M76.335 87.9795C76.5502 88.3979 76.7893 88.8044 77.0643 89.1989C76.7893 88.8044 76.5502 88.3979 76.335 87.9795Z" fill="#D57160"/>
<path d="M56.5609 89.988C56.513 90.0717 56.4772 90.1435 56.4294 90.2271C56.4772 90.1435 56.513 90.0717 56.5609 89.988Z" fill="#D57160"/>
<path d="M58.6291 85.8634C58.665 85.7797 58.7008 85.708 58.7367 85.6243C58.7008 85.696 58.665 85.7797 58.6291 85.8634Z" fill="#D57160"/>
<path d="M75.2112 84.9309C75.3307 85.4091 75.4622 85.8873 75.6296 86.3536C75.4622 85.8873 75.3307 85.4091 75.2112 84.9309Z" fill="#D57160"/>
<path d="M75.6536 86.4135C75.809 86.8558 76.0003 87.2982 76.2035 87.7166C76.0003 87.2982 75.809 86.8558 75.6536 86.4135Z" fill="#D57160"/>
<path d="M77.0524 89.199C77.1002 89.2707 77.16 89.3544 77.2197 89.4261C77.16 89.3424 77.1121 89.2707 77.0524 89.199Z" fill="white"/>
<path d="M56.5609 89.988C56.9076 89.3424 57.2543 88.6969 57.5771 88.0513C57.2543 88.6969 56.9076 89.3424 56.5609 89.988Z" fill="white"/>
<path d="M57.7325 87.7286C58.0433 87.1069 58.3422 86.4852 58.6291 85.8516C58.3422 86.4852 58.0433 87.1188 57.7325 87.7286Z" fill="white"/>
<path d="M75.1395 84.6201C75.1634 84.7277 75.1873 84.8234 75.2112 84.931C75.1873 84.8234 75.1634 84.7277 75.1395 84.6201Z" fill="white"/>
<path d="M58.7367 85.6245C59.0356 84.955 59.3225 84.2855 59.5856 83.604C59.3225 84.2735 59.0356 84.955 58.7367 85.6245Z" fill="white"/>
<path d="M75.6297 86.3536C75.6416 86.3775 75.6416 86.3895 75.6536 86.4134C75.6416 86.3895 75.6297 86.3656 75.6297 86.3536Z" fill="white"/>
<path d="M76.2035 87.7166C76.2394 87.8002 76.2872 87.8839 76.323 87.9676C76.2872 87.8959 76.2513 87.8002 76.2035 87.7166Z" fill="white"/>
<path d="M42.4774 130.182C42.86 130.337 43.2426 130.493 43.6252 130.636C43.3143 130.481 43.0035 130.337 42.7046 130.182C42.6329 130.182 42.5492 130.182 42.4774 130.182Z" fill="white"/>
<path d="M78.1761 90.5739C78.1403 90.538 78.1164 90.4902 78.0685 90.4543C78.0685 90.4543 78.0685 90.4543 78.0566 90.4543C78.1044 90.4902 78.1283 90.538 78.1761 90.5739Z" fill="white"/>
<path d="M56.4293 90.2272C56.3935 90.2869 56.3695 90.3348 56.3337 90.3945C56.3695 90.3348 56.4054 90.275 56.4293 90.2272Z" fill="white"/>
<path d="M55.2577 92.3193C55.6283 91.6857 55.9869 91.0401 56.3456 90.3945C55.9869 91.0401 55.6163 91.6738 55.2577 92.3193Z" fill="white"/>
<path d="M109.667 98.2133C107.252 96.4439 104.478 94.8897 101.597 94.1724C94.3398 91.0401 85.5048 90.526 78.0685 90.4543C78.1044 90.4902 78.1283 90.538 78.1761 90.5739C78.1402 90.538 78.1044 90.4902 78.0685 90.4543C77.7577 90.1315 77.4827 89.7848 77.2197 89.4261C77.1599 89.3544 77.1121 89.2707 77.0523 89.199C76.7893 88.8045 76.5382 88.398 76.323 87.9795C76.2752 87.8958 76.2393 87.8122 76.2035 87.7285C76.0002 87.2981 75.809 86.8677 75.6535 86.4253C75.6416 86.4014 75.6416 86.3895 75.6296 86.3656C75.4622 85.8993 75.3307 85.433 75.2112 84.9429C75.1873 84.8353 75.1634 84.7396 75.1395 84.632C75.0438 84.2256 74.9601 83.8191 74.9003 83.4006H59.6812C59.6572 83.4724 59.6214 83.5321 59.5975 83.6039C59.3345 84.2853 59.0475 84.9548 58.7486 85.6243C58.7128 85.708 58.6769 85.7797 58.641 85.8634C58.3541 86.4971 58.0552 87.1188 57.7444 87.7404C57.6966 87.848 57.6368 87.9556 57.589 88.0513C57.2542 88.7088 56.9195 89.3544 56.5728 89.988C56.5249 90.0717 56.4891 90.1435 56.4413 90.2271C56.4173 90.2869 56.3815 90.3347 56.3456 90.3945C56.3815 90.3347 56.4054 90.2869 56.4293 90.2271C52.1134 90.5021 47.8812 91.1597 44.0675 92.5465C31.0481 91.0162 17.8972 91.076 4.90167 92.7378C7.06559 98.0818 9.8751 103.103 13.2585 107.67C18.196 114.329 24.3411 120.032 31.3469 124.479C34.8499 126.703 38.568 128.616 42.4774 130.182C42.5491 130.182 42.6328 130.182 42.7045 130.182C43.0034 130.337 43.3262 130.481 43.6251 130.636C51.0494 133.446 59.0834 134.988 67.5 134.988C81.4519 134.988 94.4235 130.756 105.183 123.499C106.223 122.806 107.228 122.076 108.22 121.323C109.535 120.331 110.802 119.279 112.034 118.203C113.253 117.139 114.437 116.027 115.572 114.879C117.593 112.823 119.482 110.647 121.227 108.351C118.059 104.55 114.114 101.477 109.667 98.2133Z" fill="white"/>
<path d="M55.3772 65.874C55.3533 66.0055 55.3413 66.1489 55.3294 66.2804C55.3174 66.3522 55.3174 66.4239 55.3055 66.4956C55.3055 66.5435 55.2935 66.5793 55.2935 66.6271C55.2816 66.7587 55.2696 66.8902 55.2696 67.0217C55.2696 67.0575 55.2696 67.1054 55.2696 67.1412C55.2577 67.3325 55.2577 67.5238 55.2577 67.7151C55.2577 67.9183 55.2696 68.1216 55.2816 68.3248C55.2816 68.3965 55.2935 68.4683 55.2935 68.54C55.2935 68.5878 55.3055 68.6237 55.3055 68.6715C55.3174 68.8389 55.3413 69.0182 55.3533 69.1856C55.4011 69.604 55.4729 70.0105 55.5685 70.417C55.5924 70.5126 55.6163 70.6083 55.6402 70.7039C55.8554 71.5767 56.1663 72.4255 56.5608 73.2265C56.6445 73.3939 56.7401 73.5732 56.8238 73.7406C56.8716 73.8362 56.9195 73.9199 56.9792 74.0156C57.0629 74.159 57.1586 74.3144 57.2423 74.4579C57.4694 74.8166 57.7085 75.1513 57.9715 75.4861C58.0911 75.6415 58.2226 75.7969 58.3421 75.9404C58.8682 76.5501 59.442 77.112 60.0757 77.6141C60.5539 77.9967 61.056 78.3434 61.582 78.6423C61.7016 78.714 61.8212 78.7738 61.9288 78.8455C62.0124 78.8933 62.0961 78.9412 62.1798 78.977C62.2276 79.0009 62.2755 79.0249 62.3233 79.0488C62.3711 79.0727 62.407 79.0966 62.4548 79.1085C62.5983 79.1803 62.7298 79.2401 62.8732 79.2998C63.7101 79.6705 64.6068 79.9454 65.5393 80.1248C65.7425 80.1606 65.9458 80.1965 66.149 80.2324C68.4564 80.5551 70.7159 80.2324 72.7484 79.3955C76.5741 77.8174 79.5749 74.3981 80.4118 70.0583L80.9856 67.1054L82.6594 58.4258L83.1854 55.7119L83.9027 51.9699C83.9386 51.7666 83.9744 51.5634 84.0103 51.3482C84.0223 51.2525 84.0342 51.1449 84.0462 51.0373C84.0581 50.9537 84.0701 50.8819 84.0701 50.7982C84.082 50.7146 84.082 50.6309 84.094 50.5591C84.094 50.5352 84.094 50.5233 84.094 50.4994C84.094 50.4515 84.106 50.4037 84.106 50.3439C84.106 50.2842 84.1179 50.2244 84.1179 50.1646C84.1179 50.1287 84.1179 50.0929 84.1179 50.057C84.1179 49.9733 84.1299 49.8777 84.1299 49.794C84.1299 49.7223 84.1299 49.6505 84.1299 49.5668C84.1299 49.519 84.1299 49.4832 84.1299 49.4353C84.1299 49.268 84.1179 49.0886 84.1179 48.9212C84.1179 48.8256 84.106 48.73 84.094 48.6343C84.082 48.5506 84.082 48.455 84.0701 48.3713C84.0581 48.2876 84.0462 48.192 84.0462 48.1083C84.0462 48.1083 84.0462 48.1083 84.0462 48.0963C84.0342 48.0126 84.0223 47.929 84.0103 47.8333C83.9984 47.7496 83.9864 47.654 83.9744 47.5703C83.9625 47.4866 83.9505 47.391 83.9266 47.3073C83.8908 47.1279 83.8549 46.9606 83.819 46.7812C83.8071 46.7454 83.8071 46.7095 83.7951 46.6856C83.7593 46.5421 83.7234 46.3987 83.6875 46.2552C83.6756 46.2193 83.6636 46.1835 83.6636 46.1596C83.6277 46.0161 83.5799 45.8726 83.5321 45.7172C83.5201 45.6933 83.5201 45.6694 83.5082 45.6455C82.1214 41.3894 78.5228 37.9701 73.8363 37.0615C68.564 36.0453 63.3873 38.4842 60.6734 42.7881C59.8605 44.0793 59.2627 45.5379 58.9638 47.1279L55.4848 65.2164C55.437 65.4555 55.4131 65.6588 55.3772 65.874Z" fill="#D57160"/>
<path d="M88.6968 64.0808C88.1828 66.7349 85.6243 68.4684 82.9702 67.9544C80.3161 67.4403 78.5826 64.8818 79.0967 62.2277C79.6108 59.5736 82.1692 57.8401 84.8233 58.3542C87.4774 58.8683 89.2109 61.4267 88.6968 64.0808Z" fill="#D57160"/>
<path opacity="0.6" d="M55.3772 65.874C55.3533 66.0055 55.3413 66.149 55.3294 66.2805C55.3174 66.3522 55.3174 66.424 55.3055 66.4957C55.3055 66.5435 55.2935 66.5794 55.2935 66.6272C55.2816 66.7587 55.2696 66.8902 55.2696 67.0217C55.2696 67.0576 55.2696 67.1054 55.2696 67.1413C55.2577 67.3326 55.2577 67.5239 55.2577 67.7151C55.2577 67.9184 55.2696 68.1216 55.2816 68.3249C55.2816 68.3966 55.2935 68.4683 55.2935 68.5401C55.2935 68.5879 55.3055 68.6237 55.3055 68.6716C55.3174 68.8389 55.3413 69.0183 55.3533 69.1856C55.4011 69.6041 55.4729 70.0106 55.5685 70.4171C55.5924 70.5127 55.6163 70.6083 55.6402 70.704C55.8554 71.5767 56.1663 72.4256 56.5608 73.2266C56.6445 73.3939 56.7401 73.5733 56.8238 73.7406C56.8716 73.8363 56.9195 73.92 56.9792 74.0156C57.0629 74.1591 57.1586 74.3145 57.2423 74.458C57.4694 74.8166 57.7085 75.1514 57.9715 75.4861C58.0911 75.6415 58.2226 75.797 58.3421 75.9404C58.8682 76.5502 59.442 77.1121 60.0757 77.6142C60.5539 77.9967 61.056 78.3435 61.582 78.6423C61.7016 78.7141 61.8092 78.7738 61.9288 78.8456C62.0124 78.8934 62.0961 78.9412 62.1798 78.9771C62.2276 79.001 62.2755 79.0249 62.3233 79.0488C62.3711 79.0727 62.407 79.0966 62.4548 79.1086C62.5983 79.1803 62.7298 79.2401 62.8732 79.2999C63.7101 79.6705 64.6068 79.9455 65.5393 80.1248C65.7425 80.1607 65.9458 80.1965 66.149 80.2324C68.4564 80.5552 70.7159 80.2324 72.7484 79.3955C76.5741 77.8174 79.5749 74.3982 80.4118 70.0584L80.9856 67.1054L82.6594 58.4258L83.1854 55.7119L83.9027 51.9699C83.9386 51.7667 83.9744 51.5634 84.0103 51.3482C84.0223 51.2526 84.0342 51.145 84.0462 51.0374C84.0581 50.9537 84.0701 50.882 84.0701 50.7983C84.082 50.7146 84.082 50.6309 84.094 50.5592C84.094 50.5353 84.094 50.5233 84.094 50.4994C84.094 50.4516 84.106 50.4038 84.106 50.344C84.106 50.2842 84.1179 50.2244 84.1179 50.1647C84.1179 50.1288 84.1179 50.0929 84.1179 50.0571C84.1179 49.9734 84.1299 49.8777 84.1299 49.794C84.1299 49.7223 84.1299 49.6506 84.1299 49.5669C84.1299 49.5191 84.1299 49.4832 84.1299 49.4354C84.1299 49.268 84.1179 49.0887 84.1179 48.9213C84.1179 48.8257 84.106 48.73 84.094 48.6344C84.082 48.5507 84.082 48.455 84.0701 48.3714C84.0581 48.2877 84.0462 48.192 84.0462 48.1083C84.0462 48.1083 84.0462 48.1083 84.0462 48.0964C84.0342 48.0127 84.0223 47.929 84.0103 47.8334C83.9984 47.7497 83.9864 47.654 83.9744 47.5703C83.9625 47.4867 83.9505 47.391 83.9266 47.3073C83.6636 45.8368 83.1256 44.4261 82.3844 43.1588L81.4877 47.8214L81.428 56.6325C81.3921 56.8118 80.9976 59.1073 80.9258 59.2507C79.8259 59.9083 76.0361 66.7707 73.9439 68.0499C74.0276 68.2531 72.3419 64.7263 70.716 63.1601C69.2574 61.7614 65.7664 60.9364 62.945 61.0799C59.9322 61.2353 56.6803 62.4309 55.6044 65.5034C55.5685 65.6349 55.4848 65.7664 55.3772 65.874Z" fill="#2F2F35"/>
<path d="M69.7596 67.5358C69.114 69.616 67.0935 70.9431 64.9655 70.5605C62.8494 70.1779 61.4267 68.2053 61.5582 66.0414L69.7596 67.5358Z" fill="white"/>
<path d="M60.6735 42.8122C62.4668 44.5935 64.9655 45.813 67.4522 46.3868C71.6963 47.3672 76.1437 46.9846 80.4596 47.5704C80.8063 47.6182 81.177 47.678 81.4878 47.8215C81.6552 47.8932 81.0335 47.5106 81.4878 47.8215L81.2606 57.5651L81.9301 62.1679C82.0975 61.4147 82.4801 59.6932 82.7072 58.9519C82.9942 57.9955 83.1615 56.7043 83.4006 55.7001L83.9028 51.9461C83.9386 51.7428 83.9745 51.5396 84.0104 51.3244C84.0223 51.2288 84.0343 51.1212 84.0462 51.0136C84.0582 50.9299 84.0701 50.8581 84.0701 50.7745C84.0821 50.6908 84.0821 50.6071 84.094 50.5353C84.094 50.5114 84.094 50.4995 84.094 50.4756C84.094 50.4277 84.106 50.3799 84.106 50.3201C84.106 50.2604 84.118 50.2006 84.118 50.1408C84.118 50.1049 84.118 50.0691 84.118 50.0332C84.118 49.9495 84.1299 49.8539 84.1299 49.7702C84.1299 49.6985 84.1299 49.6267 84.1299 49.543C84.1299 49.4952 84.1299 49.4594 84.1299 49.4115C84.1299 49.2442 84.118 49.0648 84.118 48.8975C84.118 48.8018 84.106 48.7062 84.094 48.6105C84.0821 48.5268 84.0821 48.4312 84.0701 48.3475C84.0582 48.2638 84.0462 48.1682 84.0462 48.0845C84.0462 48.0845 84.0462 48.0845 84.0462 48.0725C84.0343 47.9888 84.0223 47.9052 84.0104 47.8095C83.9984 47.7258 83.9865 47.6302 83.9745 47.5465C83.9625 47.4628 83.9506 47.3672 83.9267 47.2835C83.8908 47.1042 83.8549 46.9368 83.8191 46.7574C83.8071 46.7216 83.8071 46.6857 83.7952 46.6618C83.7593 46.5183 83.7234 46.3749 83.6876 46.2314C83.6756 46.1955 83.6637 46.1597 83.6637 46.1358C83.6278 45.9923 83.58 45.8488 83.5322 45.6934C83.5202 45.6695 83.5202 45.6456 83.5082 45.6217C82.1214 41.3656 78.5229 37.9463 73.8363 37.0377C68.564 36.0693 63.3874 38.5082 60.6735 42.8122Z" fill="#2F2F35"/>
<path d="M61.3071 55.3533C62.6701 55.6522 63.6863 55.5925 63.746 55.5925C63.9732 55.5805 64.1406 55.3892 64.1286 55.1621C64.1167 54.9349 63.9134 54.7675 63.6982 54.7795C63.6743 54.7795 61.5223 54.8871 59.3943 53.847C59.191 53.7513 58.94 53.835 58.8443 54.0383C58.7487 54.2415 58.8324 54.4926 59.0356 54.5882C59.8127 54.9708 60.6018 55.2099 61.3071 55.3533Z" fill="#2F2F35"/>
<path d="M59.992 51.7428C60.1235 51.7667 60.279 51.7667 60.4105 51.7189C61.8929 51.2407 64.1764 51.9102 64.9296 52.2091C65.36 52.3764 65.8263 52.1732 65.9936 51.7428C66.161 51.3244 65.9578 50.8462 65.5274 50.6788C65.3959 50.631 62.2397 49.3996 59.9084 50.1528C59.478 50.2962 59.2389 50.7505 59.3823 51.1809C59.478 51.4798 59.7171 51.683 59.992 51.7428Z" fill="#2F2F35"/>
<path d="M72.3181 57.7325C73.0115 57.888 73.8364 57.9836 74.7091 57.9597C74.9363 57.9477 75.1156 57.7684 75.1037 57.5412C75.0917 57.3141 74.9004 57.1348 74.6852 57.1467C72.2942 57.2184 70.3933 56.2262 70.3813 56.2142C70.1781 56.1066 69.927 56.1903 69.8314 56.3816C69.7238 56.5848 69.8074 56.8359 69.9987 56.9315C70.0585 56.9793 70.9671 57.4456 72.3181 57.7325Z" fill="#2F2F35"/>
<path d="M75.008 54.9828C75.283 55.0425 75.5819 54.9588 75.7851 54.7317C76.084 54.3969 76.0601 53.8709 75.7253 53.572C73.8961 51.9222 70.5247 51.7429 70.3813 51.7309C69.927 51.707 69.5444 52.0537 69.5205 52.508C69.4966 52.9623 69.8433 53.3449 70.2976 53.3688C71.1105 53.4047 73.4658 53.7394 74.6135 54.7795C74.733 54.8871 74.8645 54.9469 75.008 54.9828Z" fill="#2F2F35"/>
<path d="M64.7861 59.5855L65.2046 59.4539C65.2404 59.442 66.0654 59.2029 67.0337 59.8604C67.1533 59.9441 67.3087 59.9082 67.3805 59.7887C67.4641 59.6691 67.4283 59.5137 67.3087 59.442C66.5675 58.9279 65.8621 58.8801 65.4437 58.904L66.173 55.5565C66.1969 55.425 66.1132 55.2815 65.9817 55.2576C65.8502 55.2337 65.7067 55.3174 65.6828 55.4489L64.7861 59.5855Z" fill="#2F2F35"/>
<path d="M73.2302 63.6056C73.4135 63.476 73.4199 63.1699 73.2445 62.922C73.0691 62.674 72.7784 62.5781 72.5951 62.7077C72.4119 62.8373 72.4054 63.1434 72.5808 63.3914C72.7562 63.6393 73.0469 63.7353 73.2302 63.6056Z" fill="#2F2F35"/>
<defs>
<linearGradient id="paint0_linear_188_828" x1="124.321" y1="20.0391" x2="11.7401" y2="85.1982" gradientUnits="userSpaceOnUse">
<stop stop-color="#00EBB2"/>
<stop offset="0.432292" stop-color="#02DFED"/>
<stop offset="1" stop-color="#CB7BFF"/>
</linearGradient>
</defs>
</svg>
