<svg width="135" height="135" viewBox="0 0 135 135" fill="none" xmlns="http://www.w3.org/2000/svg">
<g clip-path="url(#clip0_16_305)">
<path d="M67.506 135.012C104.789 135.012 135.012 104.789 135.012 67.506C135.012 30.2235 104.789 0 67.506 0C30.2235 0 0 30.2235 0 67.506C0 104.789 30.2235 135.012 67.506 135.012Z" fill="url(#paint0_linear_16_305)"/>
<path d="M57.5822 88.059C57.63 87.9514 57.6898 87.8438 57.7376 87.7482C57.6898 87.8438 57.6419 87.9514 57.5822 88.059Z" fill="#D57160"/>
<path d="M78.0754 90.4623C77.7646 90.1394 77.4896 89.7927 77.2265 89.434C77.4776 89.7927 77.7646 90.1275 78.0754 90.4623Z" fill="#D57160"/>
<path d="M74.895 83.3961C74.9668 83.8145 75.0505 84.2211 75.1342 84.6276C74.644 82.4874 74.5244 80.1917 74.5961 78.0037C74.6201 77.3581 74.644 76.7244 74.6918 76.0787C73.2331 77.2624 71.5114 78.0635 69.682 78.4222C67.7571 78.8048 65.7125 78.6852 63.7517 77.9918C63.5723 77.932 63.4049 77.8602 63.2256 77.7885C62.6278 77.5494 62.0778 77.2385 61.5517 76.9157C61.1452 79.1755 60.4517 81.4113 59.5908 83.5874C59.6147 83.5156 59.6506 83.4558 59.6745 83.3841H74.895V83.3961Z" fill="#D57160"/>
<path d="M76.3418 87.9873C76.557 88.4058 76.7961 88.8123 77.0711 89.2069C76.7961 88.8123 76.557 88.4058 76.3418 87.9873Z" fill="#D57160"/>
<path d="M56.5658 89.996C56.518 90.0797 56.4822 90.1514 56.4343 90.2351C56.4822 90.1514 56.518 90.0797 56.5658 89.996Z" fill="#D57160"/>
<path d="M58.6343 85.871C58.6702 85.7873 58.706 85.7156 58.7419 85.6319C58.706 85.7036 58.6702 85.7873 58.6343 85.871Z" fill="#D57160"/>
<path d="M75.2179 84.9384C75.3374 85.4167 75.4689 85.8949 75.6363 86.3612C75.4689 85.8949 75.3374 85.4167 75.2179 84.9384Z" fill="#D57160"/>
<path d="M75.6602 86.421C75.8157 86.8634 76.007 87.3058 76.2102 87.7243C76.007 87.3058 75.8157 86.8634 75.6602 86.421Z" fill="#D57160"/>
<path d="M77.0591 89.2068C77.107 89.2786 77.1667 89.3623 77.2265 89.434C77.1667 89.3503 77.1189 89.2786 77.0591 89.2068Z" fill="white"/>
<path d="M56.5659 89.996C56.9126 89.3504 57.2593 88.7047 57.5821 88.0591C57.2593 88.7047 56.9126 89.3504 56.5659 89.996Z" fill="white"/>
<path d="M57.7376 87.7362C58.0484 87.1145 58.3474 86.4928 58.6343 85.8591C58.3474 86.4928 58.0484 87.1265 57.7376 87.7362Z" fill="white"/>
<path d="M75.1461 84.6276C75.17 84.7352 75.1939 84.8308 75.2179 84.9384C75.1939 84.8308 75.17 84.7352 75.1461 84.6276Z" fill="white"/>
<path d="M58.7419 85.6319C59.0408 84.9623 59.3278 84.2928 59.5908 83.6113C59.3278 84.2808 59.0408 84.9623 58.7419 85.6319Z" fill="white"/>
<path d="M75.6364 86.3613C75.6482 86.385 75.6482 86.3969 75.6601 86.4206C75.6482 86.3969 75.6364 86.3731 75.6364 86.3613Z" fill="white"/>
<path d="M76.2103 87.7243C76.2461 87.808 76.294 87.8917 76.3298 87.9754C76.294 87.9036 76.2581 87.808 76.2103 87.7243Z" fill="white"/>
<path d="M42.4812 130.193C42.8638 130.349 43.2464 130.504 43.629 130.648C43.3181 130.492 43.0073 130.349 42.7083 130.193C42.6366 130.193 42.5529 130.193 42.4812 130.193Z" fill="white"/>
<path d="M78.1822 90.581C78.1465 90.5454 78.1228 90.4979 78.0753 90.4623C78.0753 90.4623 78.0753 90.4623 78.0635 90.4623C78.1109 90.4979 78.1347 90.5454 78.1822 90.581Z" fill="white"/>
<path d="M56.4343 90.2351C56.3985 90.2949 56.3746 90.3427 56.3387 90.4025C56.3746 90.3427 56.4104 90.2829 56.4343 90.2351Z" fill="white"/>
<path d="M55.2626 92.3275C55.6333 91.6938 55.9919 91.0482 56.3506 90.4025C55.9919 91.0482 55.6213 91.6819 55.2626 92.3275Z" fill="white"/>
<path d="M82.0091 51.9267C81.9732 51.9148 81.9254 51.9028 81.8895 51.8909C78.3385 51.867 74.8113 51.305 71.3918 50.3126C68.6897 49.5235 66.0473 48.4713 63.5006 47.2518C63.4169 47.4311 63.3332 47.5985 63.2495 47.7779L57.0202 63.0103C56.9484 63.1897 56.8767 63.369 56.8169 63.5364C56.9245 63.4647 57.0202 63.369 57.0919 63.2495C58.5745 60.7506 61.6234 60.2723 64.3016 60.6669C66.8005 61.0375 69.7896 62.281 70.794 64.7918C70.8657 64.9832 70.9733 65.1386 71.1049 65.2582C71.3679 64.8636 71.6548 64.481 71.9657 64.1103C72.7309 63.1777 73.6157 62.3408 74.644 61.7071C75.9711 60.8821 77.5733 60.4636 79.1157 60.5593C79.2233 60.5712 79.3309 60.5473 79.4385 60.5593C79.5341 60.4517 79.6059 60.3321 79.6657 60.1886L79.8928 59.6147L82.033 54.3778L82.87 52.3333C82.6189 52.1539 82.308 52.0343 82.0091 51.9267ZM63.9071 51.03C65.9636 50.6474 68.4984 52.0224 68.606 52.0702C68.9407 52.2615 69.0723 52.68 68.881 53.0148C68.7016 53.3495 68.2712 53.4811 67.9364 53.2898C67.3266 52.955 65.4734 52.1539 64.1701 52.393C64.0506 52.4169 63.919 52.405 63.8114 52.3691C63.5843 52.2854 63.4049 52.0941 63.3571 51.843C63.2734 51.4604 63.5245 51.1017 63.9071 51.03ZM66.5495 56.0278C66.4897 56.0278 65.6288 55.968 64.5169 55.5734C63.943 55.3702 63.3093 55.0832 62.6756 54.6767C62.5082 54.5691 62.4723 54.3539 62.5799 54.1985C62.6875 54.0311 62.9027 53.9952 63.0582 54.1028C64.756 55.2148 66.5734 55.3463 66.5973 55.3463C66.7886 55.3582 66.9321 55.5256 66.9201 55.7169C66.9082 55.8963 66.7527 56.0397 66.5495 56.0278ZM69.1799 59.9615C69.0962 60.0451 68.9647 60.0571 68.881 59.9854C68.1397 59.3278 67.4103 59.4473 67.3864 59.4473L67.0277 59.5071L68.2234 56.1115C68.2592 56.0039 68.3907 55.9441 68.4984 55.98C68.606 56.0158 68.6657 56.1474 68.6299 56.255L67.6614 59.0049C68.0201 59.0288 68.594 59.1484 69.1799 59.6625C69.2516 59.7462 69.2516 59.8778 69.1799 59.9615ZM75.5766 59.1962C74.8233 59.1245 74.1537 58.9452 73.5798 58.7539C72.4679 58.3593 71.7505 57.8691 71.7027 57.8332C71.5472 57.7256 71.5114 57.5104 71.619 57.343C71.7266 57.1876 71.9418 57.1517 72.1092 57.2593C72.1212 57.2713 73.6277 58.3115 75.6483 58.5028C75.8396 58.5147 75.9831 58.6941 75.9592 58.8854C75.9352 59.0767 75.7679 59.2202 75.5766 59.1962ZM76.82 56.5778C76.6287 56.7452 76.3657 56.793 76.1266 56.7093C76.0189 56.6734 75.9113 56.6017 75.8276 56.506C75.1222 55.693 73.7114 55.1908 72.8385 54.9637C72.6353 54.9158 72.4559 54.868 72.3364 54.8441C71.9538 54.7843 71.7027 54.4137 71.7744 54.0311C71.8462 53.6485 72.2048 53.3974 72.5875 53.4691C72.6353 53.4811 73.2451 53.5887 74.0103 53.8517C74.9548 54.1745 76.1505 54.7126 76.9037 55.5854C77.1429 55.8843 77.107 56.3267 76.82 56.5778Z" fill="#D57160"/>
<path d="M80.6222 70.2081C82.858 71.1168 85.4047 70.0527 86.3254 67.8168C87.2341 65.581 86.1699 63.0343 83.9341 62.1136C83.3124 61.8625 82.6667 61.7669 82.033 61.8147L79.0559 69.0842C79.4744 69.5625 80.0004 69.957 80.6222 70.2081Z" fill="#D57160"/>
<path d="M63.3332 66.9201C64.9114 67.5418 66.681 66.8364 67.494 65.3299L61.3962 62.9027C60.9658 64.5527 61.7669 66.2983 63.3332 66.9201Z" fill="white"/>
<path d="M85.0939 52.3093C85.0939 52.1539 85.0939 51.9865 85.0939 51.8311C85.0939 51.7952 85.0939 51.7713 85.0939 51.7354H85.0819C85.0819 51.9267 85.0939 52.118 85.0939 52.3093Z" fill="#2F2F35"/>
<path d="M85.07 51.7354C84.4004 51.8311 83.7189 51.8789 83.0374 51.8908C82.9058 51.8908 82.7743 51.9028 82.6428 51.9028C82.3917 51.9028 82.1406 51.8789 81.8776 51.8789C81.9135 51.8908 81.9613 51.9028 81.9972 51.9148C82.2961 52.0224 82.595 52.1419 82.8461 52.3213L82.0091 54.3658L79.8689 59.6027L79.6417 60.1767C79.582 60.3201 79.4983 60.4516 79.4146 60.5473C79.307 60.5353 79.1993 60.5473 79.0917 60.5473C77.5494 60.4516 75.9472 60.8821 74.62 61.6951C73.5918 62.3288 72.707 63.1658 71.9418 64.0984C71.6429 64.469 71.3559 64.8516 71.0809 65.2462C70.9614 65.1266 70.8538 64.9831 70.7701 64.7799C69.7777 62.269 66.7766 61.0256 64.2777 60.6549C61.6114 60.2603 58.5506 60.7386 57.068 63.2375C56.9963 63.3571 56.9006 63.4527 56.793 63.5244C56.7571 63.644 56.7093 63.7636 56.6734 63.8712C56.6495 63.931 56.6376 63.9907 56.6137 64.0505C56.6017 64.0864 56.5897 64.1223 56.5778 64.1581C56.5419 64.2777 56.518 64.3853 56.4821 64.5049C56.4702 64.5407 56.4702 64.5766 56.4582 64.6125C56.4224 64.7799 56.3865 64.9473 56.3506 65.1147C56.3148 65.294 56.2908 65.4733 56.255 65.6527C56.243 65.7125 56.243 65.7842 56.2311 65.844C56.2311 65.8799 56.2191 65.9157 56.2191 65.9636C56.1952 66.119 56.1832 66.2744 56.1713 66.4299C56.1474 66.8005 56.1354 67.1712 56.1474 67.5418C56.1474 67.6255 56.1474 67.7212 56.1593 67.8048C56.1952 68.6059 56.3267 69.3951 56.53 70.1722C56.5778 70.3396 56.6256 70.507 56.6734 70.6624C56.6974 70.7461 56.7332 70.8418 56.7571 70.9255C56.805 71.069 56.8647 71.2124 56.9126 71.3559C57.0441 71.7026 57.1995 72.0494 57.3669 72.3842C57.4506 72.5396 57.5343 72.695 57.618 72.8505C57.9647 73.4722 58.3832 74.07 58.8376 74.62C59.1843 75.0385 59.5669 75.4211 59.9734 75.7917C60.0691 75.8754 60.1528 75.9472 60.2484 76.0309C60.3202 76.0907 60.3799 76.1385 60.4517 76.1863C60.4875 76.2102 60.5234 76.2461 60.5593 76.27C60.5952 76.2939 60.631 76.3178 60.6669 76.3537C60.7745 76.4374 60.8821 76.5211 61.0017 76.5928C61.1691 76.7124 61.3484 76.808 61.5158 76.9156C62.0419 77.2385 62.5919 77.5493 63.1897 77.7885C63.369 77.8602 63.5364 77.92 63.7158 77.9917C65.6766 78.6852 67.7212 78.8048 69.6462 78.4221C71.4755 78.0635 73.2092 77.2504 74.6559 76.0787C76.0787 74.9189 77.2505 73.4005 77.9918 71.595L79.008 69.1081L79.02 69.0961L81.9972 61.8266L82.0091 61.8147L82.9417 59.531L84.233 56.3745C84.3047 56.2071 84.3645 56.0278 84.4363 55.8484C84.4721 55.7647 84.496 55.6691 84.52 55.5854C84.5439 55.5136 84.5678 55.4539 84.5797 55.3821C84.6036 55.3104 84.6276 55.2386 84.6395 55.1669C84.6395 55.1549 84.6515 55.131 84.6515 55.1191C84.6634 55.0713 84.6754 55.0354 84.6873 54.9876C84.6993 54.9397 84.7113 54.88 84.7232 54.8321C84.7352 54.7963 84.7352 54.7723 84.7471 54.7365C84.771 54.6647 84.783 54.581 84.795 54.5093C84.8069 54.4495 84.8189 54.3778 84.8308 54.318C84.8428 54.2821 84.8428 54.2463 84.8547 54.1984C84.8786 54.043 84.9145 53.8995 84.9265 53.7441C84.9384 53.6604 84.9504 53.5767 84.9623 53.493C84.9743 53.4093 84.9863 53.3376 84.9863 53.2539C84.9982 53.1821 84.9982 53.0984 85.0102 53.0267C85.0102 53.0267 85.0102 53.0267 85.0102 53.0147C85.0221 52.9311 85.0221 52.8593 85.0221 52.7756C85.0221 52.6919 85.0341 52.6202 85.0341 52.5365C85.0341 52.4528 85.0341 52.3811 85.046 52.2974C85.0939 52.118 85.0819 51.9267 85.07 51.7354ZM63.3332 66.9201C61.7549 66.2983 60.9658 64.5527 61.4082 62.9027L67.506 65.3299C66.681 66.8364 64.9114 67.5538 63.3332 66.9201Z" fill="#2F2F35"/>
<path d="M84.4721 48.3996L84.4602 48.4355C84.5558 48.6985 84.6515 48.9615 84.7232 49.2365C84.6395 48.9615 84.5678 48.6746 84.4721 48.3996Z" fill="#2F2F35"/>
<path d="M84.7471 49.3322C84.8547 49.7626 84.9265 50.1931 84.9863 50.6355C84.9265 50.1931 84.8547 49.7626 84.7471 49.3322Z" fill="#2F2F35"/>
<path d="M85.058 51.2572C85.046 51.1256 85.0341 50.9822 85.0221 50.8507C85.0221 50.8267 85.0221 50.8028 85.0102 50.7909C85.0102 50.743 84.9863 50.6952 84.9863 50.6354C85.0102 50.8507 85.046 51.0659 85.058 51.2811C85.058 51.2691 85.058 51.2691 85.058 51.2572Z" fill="#2F2F35"/>
<path d="M84.7232 49.2366C84.7351 49.2722 84.747 49.2959 84.747 49.3315C84.7351 49.2959 84.7232 49.2722 84.7232 49.2366Z" fill="#2F2F35"/>
<path d="M85.0819 51.7354C85.0819 51.6039 85.0699 51.4724 85.058 51.3528V51.3409C85.0699 51.4604 85.0699 51.6039 85.0819 51.7354Z" fill="#2F2F35"/>
<path d="M84.9743 37.9736C82.0809 36.8377 78.8048 36.9573 75.8276 37.8301C74.1777 38.3084 72.2168 38.954 70.9016 37.854C66.2984 34.016 77.0592 26.4954 73.2092 21.0074C71.8222 19.0346 69.4549 17.9227 67.0755 17.5281C63.6321 16.9662 58.5984 18.9868 55.5854 16.9781C53.0507 15.2923 53.3257 11.526 54.1387 8.59665C54.88 5.9782 55.8246 3.41952 56.7691 0.872803C47.0366 2.42714 38.0095 6.06189 30.1422 11.3108C30.2139 11.4901 30.2737 11.6695 30.3454 11.8368C36.0845 25.9096 46.6898 37.9497 59.9376 45.4105C61.1093 46.0681 62.3049 46.6779 63.5125 47.2637C66.0592 48.4833 68.7016 49.5474 71.4038 50.3246C74.8233 51.317 78.3385 51.867 81.9015 51.9028C82.1526 51.9028 82.4037 51.9267 82.6667 51.9267C82.7982 51.9267 82.9298 51.9148 83.0613 51.9148C83.7428 51.8909 84.4243 51.855 85.0939 51.7593C85.0939 51.6278 85.0939 51.4843 85.0819 51.3528V51.3648C85.0939 51.4963 85.0939 51.6278 85.1058 51.7474C86.4569 51.5561 87.7721 51.1615 88.8841 50.3844C94.121 46.7376 89.3982 39.7073 84.9743 37.9736ZM84.4602 48.4355L84.4721 48.3996C84.5678 48.6746 84.6515 48.9496 84.7232 49.2365C84.6515 48.9615 84.5439 48.6985 84.4602 48.4355ZM84.9863 50.6354C84.9982 50.6833 85.0102 50.7311 85.0102 50.7909C85.0102 50.8148 85.0102 50.8387 85.0221 50.8507C85.0341 50.9822 85.0461 51.1257 85.058 51.2572C85.058 51.2691 85.058 51.2811 85.058 51.2811C85.0461 51.0659 85.0102 50.8507 84.9863 50.6354Z" fill="#2F2F35"/>
<path d="M109.676 98.222C107.261 96.4525 104.487 94.8981 101.606 94.1808C94.3482 91.0482 85.5124 90.5341 78.0755 90.4623C78.1113 90.4982 78.1352 90.546 78.1831 90.5819C78.1472 90.546 78.1113 90.4982 78.0755 90.4623C77.7646 90.1395 77.4896 89.7928 77.2265 89.4341C77.1668 89.3623 77.1189 89.2786 77.0592 89.2069C76.7961 88.8123 76.545 88.4058 76.3298 87.9873C76.282 87.9036 76.2461 87.8199 76.2103 87.7362C76.007 87.3058 75.8157 86.8754 75.6603 86.433C75.6483 86.4091 75.6483 86.3971 75.6363 86.3732C75.4689 85.9069 75.3374 85.4406 75.2179 84.9504C75.194 84.8428 75.17 84.7471 75.1461 84.6395C75.0505 84.233 74.9668 83.8265 74.907 83.408H59.6865C59.6626 83.4798 59.6267 83.5395 59.6028 83.6113C59.3397 84.2928 59.0528 84.9624 58.7539 85.6319C58.718 85.7156 58.6821 85.7873 58.6463 85.871C58.3593 86.5047 58.0604 87.1265 57.7495 87.7482C57.7017 87.8558 57.6419 87.9634 57.5941 88.0591C57.2593 88.7167 56.9245 89.3623 56.5778 89.996C56.53 90.0797 56.4941 90.1514 56.4463 90.2351C56.4224 90.2949 56.3865 90.3427 56.3506 90.4025C56.3865 90.3427 56.4104 90.2949 56.4343 90.2351C52.1181 90.5101 47.8855 91.1677 44.0714 92.5547C31.0508 91.0243 17.8988 91.084 4.90213 92.746C7.06624 98.0905 9.876 103.112 13.2597 107.68C18.1977 114.339 24.3433 120.043 31.3497 124.49C34.853 126.714 38.5714 128.627 42.4812 130.194C42.5529 130.194 42.6366 130.194 42.7083 130.194C43.0073 130.349 43.3301 130.492 43.629 130.648C51.0539 133.458 59.0886 135 67.506 135C81.4591 135 94.4318 130.767 105.193 123.51C106.221 122.816 107.237 122.087 108.23 121.334C109.545 120.341 110.812 119.289 112.044 118.213C113.263 117.149 114.447 116.037 115.583 114.889C117.603 112.845 119.493 110.657 121.238 108.361C118.07 104.559 114.124 101.486 109.676 98.222Z" fill="white"/>
<path d="M64.5169 55.5735C65.6288 55.968 66.5017 56.0278 66.5495 56.0278C66.7408 56.0398 66.9082 55.8963 66.9201 55.705C66.9321 55.5137 66.7886 55.3463 66.5973 55.3343C66.5734 55.3343 64.756 55.2028 63.0582 54.0909C62.9028 53.9833 62.6756 54.0311 62.5799 54.1865C62.4723 54.3539 62.5202 54.5691 62.6756 54.6648C63.3093 55.0833 63.943 55.3702 64.5169 55.5735Z" fill="#2F2F35"/>
<path d="M63.7995 52.3811C63.9071 52.417 64.0386 52.4289 64.1582 52.405C65.4614 52.1659 67.3147 52.967 67.9245 53.3017C68.2712 53.4811 68.6897 53.3615 68.869 53.0267C69.0603 52.692 68.9288 52.2615 68.594 52.0822C68.4864 52.0224 65.9636 50.6474 63.8951 51.042C63.5125 51.1137 63.2614 51.4724 63.3332 51.855C63.393 52.1061 63.5723 52.2974 63.7995 52.3811Z" fill="#2F2F35"/>
<path d="M75.6363 58.5028C73.6157 58.3115 72.1092 57.2713 72.0972 57.2593C71.9418 57.1517 71.7266 57.1876 71.607 57.343C71.4994 57.4984 71.5353 57.7136 71.6907 57.8332C71.7385 57.8691 72.4559 58.3593 73.5679 58.7539C74.1418 58.9571 74.8233 59.1245 75.5646 59.1962C75.7559 59.2202 75.9233 59.0767 75.9472 58.8854C75.9711 58.6941 75.8276 58.5147 75.6363 58.5028Z" fill="#2F2F35"/>
<path d="M73.9983 53.8517C73.2331 53.6006 72.6353 53.4811 72.5755 53.4691C72.1929 53.3974 71.8342 53.6604 71.7625 54.0311C71.6907 54.4137 71.9418 54.7724 72.3244 54.8441C72.456 54.868 72.6353 54.9039 72.8266 54.9637C73.1853 54.5571 73.5679 54.1745 73.9983 53.8517Z" fill="#2F2F35"/>
<path d="M76.1265 56.7093C76.3537 56.793 76.6168 56.7451 76.82 56.5778C77.1189 56.3267 77.1428 55.8843 76.8918 55.5973C76.1385 54.7126 74.9429 54.1745 73.9983 53.8636C73.5679 54.1865 73.1853 54.5571 72.8385 54.9756C73.7113 55.2028 75.1342 55.7049 75.8276 56.518C75.9113 56.6017 76.0189 56.6734 76.1265 56.7093Z" fill="#2F2F35"/>
<path d="M68.6179 56.255C68.6538 56.1474 68.594 56.0158 68.4864 55.98C68.3788 55.9441 68.2473 56.0039 68.2114 56.1115L67.0158 59.5071L67.3745 59.4473C67.3984 59.4473 68.1277 59.3278 68.869 59.9854C68.9527 60.0691 69.0962 60.0571 69.1679 59.9615C69.2516 59.8778 69.2397 59.7343 69.144 59.6626C68.5701 59.1484 67.9842 59.0289 67.6256 59.0049L68.6179 56.255Z" fill="#2F2F35"/>
</g>
<defs>
<linearGradient id="paint0_linear_16_305" x1="49.6192" y1="2.98911" x2="85.877" y2="108.739" gradientUnits="userSpaceOnUse">
<stop stop-color="#00EBB2"/>
<stop offset="0.432292" stop-color="#02DFED"/>
<stop offset="1" stop-color="#CB7BFF"/>
</linearGradient>
<clipPath id="clip0_16_305">
<rect width="135" height="135" fill="white"/>
</clipPath>
</defs>
</svg>
