<svg width="25" height="25" viewBox="0 0 25 25" fill="none" xmlns="http://www.w3.org/2000/svg">
<path fill-rule="evenodd" clip-rule="evenodd" d="M12.5 25C19.4036 25 25 19.4036 25 12.5C25 5.59644 19.4036 0 12.5 0C5.59644 0 0 5.59644 0 12.5C0 19.4036 5.59644 25 12.5 25ZM12.6825 10.5612H14.8266V4.53926H19.5027V10.5383H21.2135V14.4161H19.5027V14.667C19.5027 16.5374 18.9553 17.9745 17.8832 18.9553C16.8111 19.959 15.2372 20.438 13.1615 20.438C12.8193 20.438 12.5684 20.438 12.386 20.4152V16.4462C13.2756 16.5146 13.9142 16.3778 14.2792 16.0584C14.6372 15.7676 14.8196 15.2134 14.8264 14.4389H12.6825V10.5612ZM12.3175 10.5612H10.1735C10.1802 9.76528 10.3626 9.23221 10.7208 8.91882C11.0858 8.62229 11.7016 8.48542 12.614 8.53104V4.56207C12.4316 4.53926 12.1807 4.53926 11.8385 4.53926C9.73996 4.53926 8.16606 5.01827 7.09398 5.99911C6.0219 6.97995 5.47445 8.41699 5.47445 10.2874V10.5612H3.7865V14.4389H5.49726V20.438H10.1734V14.4389H12.3175V10.5612Z" fill="#AFAFAF"/>
</svg>
