<svg width="136" height="136" viewBox="0 0 136 136" fill="none" xmlns="http://www.w3.org/2000/svg">
<path d="M67.506 135.012C104.789 135.012 135.012 104.789 135.012 67.506C135.012 30.2235 104.789 0 67.506 0C30.2235 0 0 30.2235 0 67.506C0 104.789 30.2235 135.012 67.506 135.012Z" fill="url(#paint0_linear_16_455)"/>
<path d="M58.1799 87.5927C54.8082 87.5927 52.0582 82.3917 52.0582 76.007C52.0582 71.5711 53.3495 67.6016 55.4419 65.6407L55.8484 66.0712C53.9115 67.9005 52.656 71.7983 52.656 76.007C52.656 82.0689 55.131 86.9949 58.1799 86.9949C60.9897 86.9949 63.4049 82.6308 63.6799 77.0591L64.2777 77.083C63.9788 83.0732 61.3603 87.5927 58.1799 87.5927Z" fill="#2F2F35"/>
<path d="M60.4995 38.2845C60.5951 38.2366 60.6908 38.1769 60.7864 38.129C60.6908 38.1769 60.5951 38.2366 60.4995 38.2845Z" fill="#AC4E3E"/>
<path d="M58.7299 39.4682C58.8017 39.4084 58.8734 39.3606 58.9451 39.3008C58.8854 39.3486 58.8017 39.4084 58.7299 39.4682Z" fill="#AC4E3E"/>
<path d="M59.5669 38.8465C59.6625 38.7747 59.7702 38.7149 59.8778 38.6432C59.7702 38.7149 59.6745 38.7867 59.5669 38.8465Z" fill="#AC4E3E"/>
<path d="M61.7191 37.6986C61.7669 37.6747 61.8147 37.6627 61.8625 37.6508C61.8147 37.6627 61.7669 37.6866 61.7191 37.6986Z" fill="#AC4E3E"/>
<path d="M77.9439 47.73L78.6494 56.5778L77.9439 47.73C77.657 44.0833 75.7081 40.9388 72.9103 38.9779C75.7081 40.9388 77.657 44.0833 77.9439 47.73Z" fill="#AC4E3E"/>
<path d="M57.7375 40.3768C57.8212 40.2931 57.9049 40.1975 57.9886 40.1138C57.9049 40.1975 57.8212 40.2812 57.7375 40.3768Z" fill="#AC4E3E"/>
<path d="M72.9102 38.978C72.4798 38.679 72.0254 38.416 71.5591 38.1769C72.0254 38.416 72.4798 38.679 72.9102 38.978Z" fill="#AC4E3E"/>
<path d="M57.0201 41.1779C57.1038 41.0703 57.1995 40.9627 57.2951 40.8551C57.1995 40.9627 57.1038 41.0584 57.0201 41.1779Z" fill="#AC4E3E"/>
<path d="M56.3984 41.991C56.4702 41.8834 56.5539 41.7877 56.6256 41.6801C56.5419 41.7877 56.4702 41.8834 56.3984 41.991Z" fill="#AC4E3E"/>
<path d="M55.705 43.1507C55.7647 43.0312 55.8245 42.9116 55.8963 42.7921C55.8245 42.9116 55.7647 43.0312 55.705 43.1507Z" fill="#AC4E3E"/>
<path d="M55.2386 44.1192C55.2984 43.9757 55.3582 43.8442 55.418 43.7007C55.3582 43.8442 55.2984 43.9757 55.2386 44.1192Z" fill="#AC4E3E"/>
<path d="M54.8799 45.0877C54.9278 44.9562 54.9756 44.8127 55.0234 44.6812C54.9756 44.8127 54.9158 44.9442 54.8799 45.0877Z" fill="#AC4E3E"/>
<path d="M57.2952 40.8551C57.4386 40.6877 57.5941 40.5323 57.7495 40.3768C57.5821 40.5323 57.4386 40.6877 57.2952 40.8551Z" fill="#332B33"/>
<path d="M55.0234 44.6812C55.0952 44.4898 55.1669 44.3105 55.2387 44.1192C55.155 44.2985 55.0832 44.4898 55.0234 44.6812Z" fill="#332B33"/>
<path d="M58.9571 39.3008C59.1604 39.1454 59.3636 39.0019 59.5669 38.8584C59.3636 38.9899 59.1484 39.1454 58.9571 39.3008Z" fill="#332B33"/>
<path d="M57.9886 40.1138C58.2278 39.8866 58.4669 39.6714 58.7299 39.4681C58.4789 39.6714 58.2278 39.8866 57.9886 40.1138Z" fill="#332B33"/>
<path d="M55.8843 42.7921C56.0397 42.5171 56.2071 42.254 56.3864 41.991C56.2191 42.254 56.0517 42.5171 55.8843 42.7921Z" fill="#332B33"/>
<path d="M60.7864 38.129C61.0973 37.9736 61.4082 37.8301 61.719 37.6986C61.3962 37.8301 61.0853 37.9736 60.7864 38.129Z" fill="#332B33"/>
<path d="M59.8777 38.6551C60.081 38.5236 60.2843 38.404 60.4995 38.2845C60.2843 38.404 60.081 38.5236 59.8777 38.6551Z" fill="#332B33"/>
<path d="M55.418 43.7008C55.5017 43.5094 55.5973 43.3301 55.693 43.1508C55.5973 43.3301 55.5136 43.5094 55.418 43.7008Z" fill="#332B33"/>
<path d="M56.6256 41.6801C56.7571 41.5127 56.8886 41.3333 57.0202 41.166C56.8767 41.3333 56.7452 41.5127 56.6256 41.6801Z" fill="#332B33"/>
<path d="M54.8561 45.1474C54.868 45.1235 54.868 45.0996 54.88 45.0876C54.868 45.1116 54.8561 45.1235 54.8561 45.1474Z" fill="#332B33"/>
<path d="M62.6157 37.3758C62.3527 37.4595 62.1016 37.5432 61.8625 37.6388C62.1136 37.5551 62.3647 37.4595 62.6157 37.3758C62.6157 37.3758 62.6277 37.3877 62.6157 37.3758Z" fill="#332B33"/>
<path d="M62.7234 37.3519C62.831 37.316 62.9386 37.2921 63.0462 37.2562C62.9386 37.2921 62.831 37.316 62.7234 37.3519Z" fill="#2D201B"/>
<path d="M63.7994 37.0769C63.907 37.053 64.0147 37.029 64.1223 37.0171C64.0147 37.041 63.907 37.0649 63.7994 37.0769Z" fill="#2D201B"/>
<path d="M71.5592 38.1768C71.344 38.0692 71.1407 37.9497 70.9255 37.854C71.1407 37.9497 71.3559 38.0692 71.5592 38.1768Z" fill="#2D201B"/>
<path d="M66.406 36.8377C66.0114 36.8258 65.6049 36.8377 65.1984 36.8736C65.6049 36.8497 66.0114 36.8377 66.406 36.8377Z" fill="#2D201B"/>
<path d="M66.4059 36.8378C66.8005 36.8497 67.1951 36.8736 67.5896 36.9215C67.1951 36.8736 66.8005 36.8497 66.4059 36.8378Z" fill="#2D201B"/>
<path d="M67.5896 36.9334C68.3668 37.0291 69.132 37.2084 69.8613 37.4475C69.132 37.1965 68.3668 37.0291 67.5896 36.9334Z" fill="#2D201B"/>
<path d="M64.1223 37.0171C64.481 36.9573 64.8397 36.9095 65.1984 36.8736C64.8277 36.9095 64.4691 36.9573 64.1223 37.0171Z" fill="#2D201B"/>
<path d="M62.7234 37.3519C62.6875 37.3638 62.6517 37.3758 62.6158 37.3758H62.6277C62.6636 37.3758 62.6875 37.3638 62.7234 37.3519Z" fill="#2D201B"/>
<path d="M63.0462 37.2562C63.2973 37.1845 63.5484 37.1247 63.7995 37.0768C63.5484 37.1366 63.2853 37.1964 63.0462 37.2562Z" fill="#2D201B"/>
<path d="M87.4851 19.6564C87.4851 9.29014 79.0917 0.896729 68.7255 0.896729C58.3593 0.896729 49.9539 9.29014 49.9539 19.6564C49.9539 27.8824 55.2506 34.841 62.6158 37.3758C62.6516 37.3638 62.6875 37.3519 62.7234 37.3519C62.6875 37.3638 62.6636 37.3758 62.6277 37.3877C62.3647 37.4714 62.1136 37.5551 61.8625 37.6508C61.8147 37.6747 61.7669 37.6866 61.719 37.6986C61.3962 37.8301 61.0854 37.9736 60.7864 38.129C60.6908 38.1769 60.5951 38.2366 60.4995 38.2845C60.2843 38.404 60.081 38.5236 59.8778 38.6551C59.7701 38.7149 59.6745 38.7866 59.5669 38.8584C59.3517 39.0019 59.1484 39.1453 58.9571 39.3008C58.8854 39.3605 58.8136 39.4084 58.7419 39.4682C58.4908 39.6714 58.2397 39.8866 58.0006 40.1138C57.9169 40.1975 57.8332 40.2812 57.7495 40.3768C57.5941 40.5323 57.4506 40.6877 57.2952 40.8551C57.1995 40.9627 57.1158 41.0703 57.0202 41.1779C56.8886 41.3453 56.7571 41.5127 56.6256 41.692C56.5539 41.7997 56.4702 41.8953 56.3984 42.0029C56.2191 42.266 56.0517 42.529 55.8963 42.804C55.8245 42.9236 55.7647 43.0431 55.705 43.1627C55.6093 43.342 55.5137 43.5333 55.43 43.7127C55.3702 43.8442 55.3104 43.9877 55.2506 44.1312C55.1669 44.3105 55.1071 44.5018 55.0354 44.6931C54.9876 44.8246 54.9397 44.9562 54.8919 45.0996C54.88 45.1235 54.88 45.1475 54.868 45.1714C55.7169 45.7811 56.9723 46.1996 58.5745 46.104C61.3723 45.9246 63.8473 44.7768 66.2027 43.3181C69.0603 41.5366 73.245 43.079 73.4363 46.7377C73.5798 49.4876 72.6233 52.8593 74.2852 55.2745C75.0744 56.4343 76.1863 57.3191 77.4298 57.9289C77.7526 57.4028 78.1711 56.9604 78.6733 56.6137L77.9678 47.7659C77.6809 44.1192 75.732 40.9747 72.9342 39.0138C72.5037 38.7149 72.0494 38.4519 71.5831 38.2127C71.3679 38.1051 71.1646 37.9856 70.9494 37.8899C71.1646 37.9856 71.3798 38.1051 71.5831 38.2127C80.5743 36.8019 87.4851 29.0422 87.4851 19.6564Z" fill="#2F2F35"/>
<path d="M60.1169 63.1538C60.356 64.9712 61.8386 66.3582 63.656 66.3462C65.4614 66.3223 66.932 64.8995 67.1234 63.0821L60.1169 63.1538Z" fill="white"/>
<path d="M116.121 105.288C113.371 96.7514 105.348 90.3786 94.7666 86.4211C93.3199 85.883 91.8014 85.3569 90.259 85.4646C88.6927 85.5841 87.2699 86.3493 85.859 87.0787C86.5525 87.8797 87.2938 88.5015 88.1188 88.8602C84.9384 93.3917 78.7211 95.9862 73.1972 96.2971C67.6733 96.596 61.7788 94.8503 58.1321 90.6895C59.1125 90.3189 59.9256 89.6852 60.643 88.908C58.8614 88.4895 57.0799 88.1069 55.2626 87.9395C51.1256 87.5569 46.9648 88.2624 42.9594 89.3504C41.142 89.8406 39.3366 90.4265 37.591 91.1558C29.6639 92.9254 20.4215 102.299 15.7346 110.812C16.2487 111.422 16.7748 112.032 17.3129 112.63C18.5324 113.981 19.8118 115.284 21.1389 116.527C21.4498 116.826 21.7607 117.137 22.0835 117.424C27.2367 122.111 33.1193 125.997 39.5399 128.926C48.0648 132.812 57.5343 135 67.5179 135C68.4864 135 69.4429 134.964 70.3994 134.928C71.7385 134.868 73.0776 134.785 74.4048 134.653C91.2514 132.944 106.257 125.04 117.137 113.251C117.89 112.426 118.632 111.589 119.349 110.74C118.536 108.78 117.448 106.938 116.121 105.288Z" fill="white"/>
<path d="M85.871 87.0787C85.2971 86.4091 84.771 85.62 84.2808 84.7113C81.3275 79.2472 79.9884 70.1125 80.108 64.6843C80.0243 64.6604 79.9286 64.6484 79.833 64.6245C79.6417 64.5647 79.4504 64.4691 79.271 64.3734L79.3069 64.8397C79.3189 64.9234 79.3069 65.0071 79.3189 65.1028C79.5102 68.3071 78.3863 71.2962 76.4134 73.5679C74.4526 75.8157 71.6548 77.3342 68.4505 77.5972C67.8766 77.645 67.3146 77.6331 66.7527 77.5972C66.0353 80.3472 64.4092 82.8341 62.9027 85.5841C62.257 86.7558 61.5397 87.9395 60.631 88.92C59.9255 89.6852 59.1125 90.3308 58.1201 90.7015C61.7788 94.8623 67.6613 96.6079 73.1852 96.309C78.7091 96.0101 84.9264 93.4036 88.1068 88.8721C87.3058 88.5015 86.5645 87.8797 85.871 87.0787Z" fill="#AC4E3E"/>
<path d="M79.3309 65.1027C79.3309 65.019 79.3308 64.9353 79.3189 64.8397L79.283 64.3734C79.1276 64.2897 78.9722 64.206 78.8167 64.1103C77.657 63.369 76.8439 62.1256 76.7244 60.6549C76.6407 59.6506 76.9037 58.6941 77.4059 57.905C76.1624 57.2952 75.0624 56.4104 74.2613 55.2506C72.6113 52.8354 73.5679 49.4637 73.4124 46.7137C73.2211 43.0551 69.0364 41.5247 66.1788 43.2942C63.8234 44.7648 61.3604 45.9007 58.5506 46.0801C56.9484 46.1877 55.681 45.7692 54.8441 45.1474C54.4017 46.5583 54.2104 48.0648 54.33 49.6192L55.6332 65.844L55.705 66.7288C56.0995 71.6548 59.5071 75.6602 63.9669 77.0711C64.8636 77.3581 65.7962 77.5255 66.7647 77.5852C67.3266 77.6211 67.8886 77.6331 68.4625 77.5852C71.6548 77.3341 74.4526 75.8037 76.4254 73.5559C78.3982 71.3081 79.5102 68.307 79.3309 65.1027ZM67.1831 56.2789C66.9679 56.2311 66.8364 56.0039 66.8962 55.8006C66.944 55.5854 67.1712 55.4539 67.3744 55.5137C67.3983 55.5137 69.419 56.0158 71.6429 55.3941C71.8461 55.3343 72.0733 55.4539 72.1331 55.6691C72.1929 55.8843 72.0613 56.0995 71.8581 56.1593C71.0331 56.3865 70.244 56.4821 69.5505 56.4941C68.2114 56.53 67.2429 56.2908 67.1831 56.2789ZM66.3581 51.2811C66.4897 51.2572 69.7179 50.6474 71.8103 51.7833C72.1929 51.9985 72.3363 52.4767 72.1331 52.8593C71.9896 53.1224 71.7266 53.2659 71.4516 53.2778C71.32 53.2778 71.1766 53.2539 71.057 53.1822C69.7298 52.4648 67.4342 52.692 66.669 52.8474C66.2386 52.9311 65.8201 52.6441 65.7364 52.2137C65.6407 51.7833 65.9157 51.3648 66.3581 51.2811ZM63.0223 55.6093C63.1538 55.6093 63.2734 55.7169 63.2734 55.8484L63.3571 59.1723C63.7397 59.0528 64.4092 58.9452 65.2342 59.256C65.3658 59.3039 65.4255 59.4473 65.3777 59.5669C65.3299 59.6984 65.1864 59.7582 65.0668 59.7104C64.0147 59.3158 63.2853 59.7223 63.2614 59.7462L62.9027 59.9615L62.7951 55.8604C62.7712 55.7289 62.8788 55.6213 63.0223 55.6093ZM56.1354 52.2017C58.168 50.9583 61.4201 51.3887 61.5517 51.4126C61.9821 51.4724 62.2929 51.8789 62.2332 52.3093C62.1734 52.7398 61.7788 53.0506 61.3364 52.9909C60.5593 52.8833 58.2517 52.7756 56.9723 53.5648C56.8528 53.6365 56.7093 53.6724 56.5778 53.6843C56.3028 53.6963 56.0278 53.5528 55.8724 53.3017C55.6452 52.9191 55.7647 52.4289 56.1354 52.2017ZM60.9897 56.4463C60.9299 56.4702 59.9854 56.7452 58.6343 56.7811C57.9408 56.805 57.1517 56.7571 56.3147 56.5658C56.0995 56.518 55.968 56.3028 56.0158 56.0876C56.0637 55.8724 56.2789 55.7408 56.4941 55.7887C58.7419 56.2789 60.7386 55.6811 60.7625 55.6811C60.9658 55.6213 61.193 55.7289 61.2647 55.9441C61.3125 56.1593 61.193 56.3745 60.9897 56.4463ZM63.656 66.3462C61.8506 66.3701 60.356 64.9712 60.1169 63.1538L67.1233 63.0821C66.932 64.8995 65.4614 66.3223 63.656 66.3462Z" fill="#AC4E3E"/>
<path d="M85.8232 59.9256C85.6199 57.4147 83.42 55.5376 80.9091 55.7408C80.0602 55.8126 79.307 56.1115 78.6613 56.5778C78.1591 56.9365 77.7407 57.3789 77.4178 57.893C76.9276 58.6941 76.6526 59.6386 76.7363 60.643C76.8559 62.1136 77.6689 63.3571 78.8287 64.0984C78.9722 64.194 79.1276 64.2777 79.295 64.3614C79.4743 64.4571 79.6656 64.5408 79.8569 64.6125C79.9406 64.6364 80.0363 64.6484 80.1319 64.6723C80.6222 64.8038 81.1243 64.8636 81.6504 64.8277C82.3678 64.7679 83.0134 64.5408 83.5993 64.194C85.0341 63.3451 85.9667 61.719 85.8232 59.9256Z" fill="#AC4E3E"/>
<path d="M61.2528 55.9441C61.193 55.7289 60.9658 55.6213 60.7506 55.681C60.7267 55.693 58.73 56.2908 56.4821 55.7887C56.2669 55.7408 56.0517 55.8723 56.0039 56.0876C55.9561 56.3028 56.0876 56.518 56.3028 56.5658C57.1397 56.7452 57.9289 56.793 58.6223 56.781C59.9734 56.7452 60.918 56.4582 60.9778 56.4463C61.193 56.3745 61.3125 56.1593 61.2528 55.9441Z" fill="#2F2F35"/>
<path d="M56.9723 53.5648C58.2517 52.7756 60.5592 52.8832 61.3364 52.9908C61.7788 53.0506 62.1734 52.7398 62.2331 52.3093C62.2929 51.8789 61.994 51.4724 61.5516 51.4126C61.4201 51.3887 58.168 50.9583 56.1354 52.2017C55.7647 52.4289 55.6451 52.9191 55.8723 53.3017C56.0278 53.5528 56.3028 53.6843 56.5777 53.6843C56.7093 53.6724 56.8408 53.6365 56.9723 53.5648Z" fill="#2F2F35"/>
<path d="M71.6548 55.3941C69.419 56.0159 67.3983 55.5137 67.3864 55.5137C67.1712 55.4659 66.9559 55.5854 66.9081 55.8007C66.8603 56.0159 66.9799 56.2311 67.1951 56.2789C67.2549 56.2909 68.2114 56.53 69.5624 56.4941C70.2559 56.4702 71.045 56.3865 71.87 56.1594C72.0852 56.0996 72.2048 55.8844 72.145 55.6691C72.0852 55.4539 71.8581 55.3344 71.6548 55.3941Z" fill="#2F2F35"/>
<path d="M66.657 52.8474C67.4342 52.7039 69.7298 52.4768 71.045 53.1822C71.1765 53.2539 71.3081 53.2778 71.4396 53.2778C71.7146 53.2659 71.9776 53.1224 72.1211 52.8594C72.3363 52.4768 72.1809 51.9865 71.7983 51.7833C69.7059 50.6474 66.4777 51.2572 66.3462 51.2811C65.9157 51.3648 65.6288 51.7833 65.7125 52.2137C65.8081 52.6441 66.2146 52.9311 66.657 52.8474Z" fill="#2F2F35"/>
<path d="M63.2494 59.7462C63.2734 59.7343 64.0027 59.3158 65.0549 59.7104C65.1864 59.7582 65.3179 59.6984 65.3657 59.5669C65.4136 59.4354 65.3538 59.3039 65.2222 59.256C64.4092 58.9452 63.7397 59.0528 63.3451 59.1723L63.2614 55.8484C63.2614 55.7169 63.1418 55.6093 63.0103 55.6093C62.8788 55.6093 62.7712 55.7289 62.7712 55.8604L62.8788 59.9615L63.2494 59.7462Z" fill="#2F2F35"/>
<path d="M82.3558 85.046C79.0797 85.046 76.4254 80.0124 76.4254 73.8189C76.4254 67.6255 79.0917 62.5919 82.3558 62.5919C85.6199 62.5919 88.2862 67.6255 88.2862 73.8189C88.2862 80.0124 85.6199 85.046 82.3558 85.046ZM82.3558 63.1897C79.4145 63.1897 77.0232 67.9603 77.0232 73.8189C77.0232 79.6776 79.4145 84.4482 82.3558 84.4482C85.2971 84.4482 87.6884 79.6776 87.6884 73.8189C87.6884 67.9603 85.2971 63.1897 82.3558 63.1897Z" fill="#2F2F35"/>
<defs>
<linearGradient id="paint0_linear_16_455" x1="49.6192" y1="2.98911" x2="85.877" y2="108.739" gradientUnits="userSpaceOnUse">
<stop stop-color="#00EBB2"/>
<stop offset="0.432292" stop-color="#02DFED"/>
<stop offset="1" stop-color="#CB7BFF"/>
</linearGradient>
</defs>
</svg>
